<svg width="44" height="44" viewBox="0 0 44 44" fill="none" xmlns="http://www.w3.org/2000/svg">
<g id="achievement 1">
<g id="C_-_14_x2C__Achievements_x2C__analysis_x2C__performance_x2C__positions">
<g id="Group">
<path id="Vector" d="M13.4062 29.7344H4.8125C4.33787 29.7344 3.95312 30.1192 3.95312 30.5938V41.7656C3.95312 42.2402 4.33787 42.625 4.8125 42.625H13.4062C13.8809 42.625 14.2656 42.2402 14.2656 41.7656V30.5938C14.2656 30.1192 13.8809 29.7344 13.4062 29.7344ZM12.5469 40.9062H5.67188V31.4531H12.5469V40.9062Z" fill="#1D191F"/>
<path id="Vector_2" d="M26.2969 23.7188H17.7031C17.2285 23.7188 16.8438 24.1036 16.8438 24.5781V41.7656C16.8438 42.2402 17.2285 42.625 17.7031 42.625H26.2969C26.7714 42.625 27.1562 42.2402 27.1562 41.7656V24.5781C27.1562 24.1036 26.7714 23.7188 26.2969 23.7188ZM25.4375 40.9062H18.5625V25.4375H25.4375V40.9062Z" fill="#1D191F"/>
<path id="Vector_3" d="M39.1875 14.2656H30.5938C30.1192 14.2656 29.7344 14.6504 29.7344 15.125V41.7656C29.7344 42.2402 30.1192 42.625 30.5938 42.625H39.1875C39.662 42.625 40.0469 42.2402 40.0469 41.7656V15.125C40.0469 14.6504 39.662 14.2656 39.1875 14.2656ZM38.3281 40.9062H31.4531V15.9844H38.3281V40.9062Z" fill="#1D191F"/>
<path id="Vector_4" d="M35.75 36.6094C36.2245 36.6094 36.6094 36.2245 36.6094 35.75V21.1406C36.6094 20.666 36.2245 20.2812 35.75 20.2812C35.2755 20.2812 34.8906 20.666 34.8906 21.1406V35.75C34.8906 36.2245 35.2755 36.6094 35.75 36.6094Z" fill="#1D191F"/>
<path id="Vector_5" d="M4.50362 21.357L6.47906 22.8546L5.76123 25.2274C5.65527 25.5775 5.78263 25.9564 6.0786 26.1714C6.37456 26.3865 6.77426 26.3905 7.07461 26.1815L9.10935 24.7657L11.1441 26.1817C11.2917 26.2844 11.4634 26.3357 11.6349 26.3357C12.2108 26.3357 12.6241 25.7783 12.4575 25.2275L11.7396 22.8547L13.7151 21.3571C14.0067 21.1361 14.1263 20.7547 14.0132 20.4067C13.9001 20.0588 13.5791 19.8205 13.2134 19.8131L10.7349 19.7626L9.92103 17.4211C9.80098 17.0754 9.47519 16.8438 9.10935 16.8438C8.74352 16.8438 8.41773 17.0754 8.29759 17.421L7.48367 19.7625L5.00524 19.813C4.63949 19.8205 4.31851 20.0587 4.20542 20.4066C4.09241 20.7546 4.21203 21.136 4.50362 21.357ZM8.1166 21.4687C8.47599 21.4614 8.79285 21.2312 8.91084 20.8917L9.10935 20.3205L9.30787 20.8917C9.42595 21.2312 9.7428 21.4613 10.1021 21.4687L10.7066 21.481L10.2247 21.8463C9.93831 22.0635 9.81731 22.436 9.92138 22.78L10.0964 23.3587L9.60014 23.0133C9.30546 22.8083 8.9141 22.8076 8.61839 23.0133L8.1221 23.3587L8.29716 22.78C8.40123 22.436 8.28023 22.0635 7.9938 21.8463L7.51195 21.481L8.1166 21.4687Z" fill="#1D191F"/>
<path id="Vector_6" d="M17.3942 15.3414L19.3697 16.839L18.6519 19.2118C18.5459 19.562 18.6733 19.9408 18.9692 20.1559C19.2652 20.371 19.665 20.375 19.9652 20.166L22 18.7501L24.0348 20.1661C24.1824 20.2688 24.3542 20.3201 24.5257 20.3201C25.1015 20.3201 25.515 19.7627 25.3482 19.2118L24.6304 16.8391L26.6056 15.3415C26.8972 15.1204 27.0168 14.7391 26.9038 14.3911C26.7908 14.0431 26.4698 13.8049 26.104 13.7974L23.6256 13.747L22.8116 11.4055C22.6916 11.0597 22.3658 10.8281 22 10.8281C21.6341 10.8281 21.3084 11.0597 21.1882 11.4054L20.3743 13.7469L17.8959 13.7974C17.5301 13.8048 17.2091 14.043 17.096 14.391C16.983 14.739 17.1027 15.1204 17.3942 15.3414ZM21.0072 15.4531C21.3666 15.4458 21.6835 15.2156 21.8015 14.876L22.0001 14.3049L22.1987 14.876C22.3167 15.2156 22.6335 15.4457 22.9928 15.4531L23.5973 15.4654L23.1156 15.8306C22.8292 16.0478 22.7082 16.4203 22.8123 16.7643L22.9873 17.343L22.491 16.9977C22.196 16.7924 21.8044 16.7924 21.5093 16.9977L21.013 17.343L21.188 16.7643C21.2921 16.4203 21.1711 16.0478 20.8847 15.8306L20.4029 15.4654L21.0072 15.4531Z" fill="#1D191F"/>
<path id="Vector_7" d="M30.2849 5.88827L32.2602 7.3859L31.5423 9.75863C31.4364 10.1088 31.5637 10.4876 31.8597 10.7027C32.1557 10.9177 32.5554 10.9218 32.8557 10.7129L34.8906 9.29698L36.9255 10.713C37.0731 10.8157 37.2448 10.867 37.4163 10.867C37.9921 10.867 38.4056 10.3096 38.2388 9.75872L37.521 7.38598L39.4963 5.88835C39.7879 5.66732 39.9075 5.28593 39.7945 4.93797C39.6815 4.59001 39.3604 4.35179 38.9947 4.34431L36.5162 4.29387L35.7022 1.95233C35.5823 1.6066 35.2565 1.375 34.8906 1.375C34.5248 1.375 34.199 1.6066 34.0789 1.95224L33.2649 4.29378L30.7865 4.34423C30.4208 4.3517 30.0998 4.58992 29.9867 4.93788C29.8736 5.28584 29.9934 5.66723 30.2849 5.88827ZM33.8979 5.99998C34.2573 5.99268 34.574 5.76245 34.692 5.42291L34.8906 4.85177L35.0892 5.42291C35.2072 5.76245 35.5241 5.99259 35.8834 5.99998L36.4879 6.01227L36.0062 6.37751C35.7198 6.59467 35.5988 6.96712 35.7028 7.31122L35.8779 7.88992L35.3816 7.54454C35.0865 7.33923 34.6949 7.33923 34.3998 7.54454L33.9035 7.88992L34.0786 7.31122C34.1827 6.96721 34.0617 6.59467 33.7752 6.37751L33.2936 6.01227L33.8979 5.99998Z" fill="#1D191F"/>
</g>
</g>
</g>
</svg>
