<svg width="33" height="31" viewBox="0 0 33 31" fill="none" xmlns="http://www.w3.org/2000/svg">
<path d="M31.2215 8.68227L29.4512 10.9755L29.0812 13.8496L26.2074 14.2193L23.9142 15.9895L21.621 14.2193L18.7472 13.8496L18.3772 10.9755L16.6069 8.68227L18.3772 6.38939L18.7472 3.5153L21.621 3.14558L23.9142 1.375L26.2074 3.14558L29.0812 3.5153L29.4512 6.38939L31.2215 8.68227Z" stroke="#0030AD" stroke-width="1.5" stroke-miterlimit="10"/>
<path d="M27.8893 13.6155V22.2519L23.9142 19.5883L19.9391 22.2519V13.6155" stroke="#0030AD" stroke-width="1.5" stroke-miterlimit="10"/>
<path d="M18.0042 16.0502C16.8029 17.7456 14.8262 18.841 12.61 18.841C9.16132 18.841 6.29287 16.1884 6.0231 12.7503L5.24731 2.85126H17.1805" stroke="#0030AD" stroke-width="1.5" stroke-miterlimit="10"/>
<path d="M5.84222 12.7672H4.18632C3.37639 12.7672 2.69429 12.1612 2.59904 11.3569L1.59923 6.62078C1.48644 5.67017 2.22932 4.83423 3.18652 4.83423H5.39574" stroke="#0030AD" stroke-width="1.5" stroke-miterlimit="10"/>
<path d="M14.238 18.5157C14.238 18.5157 14.5852 22.5319 16.6675 24.3166" stroke="#0030AD" stroke-width="1.5" stroke-miterlimit="10"/>
<path d="M11.0973 18.5155C11.0973 18.5155 10.7502 22.5317 8.66785 24.3163" stroke="#0030AD" stroke-width="1.5" stroke-miterlimit="10"/>
<path d="M18.8156 27.531H6.51965V25.7212C6.51965 24.8309 7.18546 24.1094 8.00699 24.1094H17.328C18.1495 24.1094 18.8153 24.8309 18.8153 25.7212V27.531H18.8156Z" stroke="#0030AD" stroke-width="1.5" stroke-miterlimit="10"/>
<path d="M20.2206 30.0025H5.11475V29.1427C5.11475 28.2524 5.78055 27.5309 6.60208 27.5309H18.7332C19.5548 27.5309 20.2206 28.2524 20.2206 29.1427V30.0025V30.0025Z" stroke="#0030AD" stroke-width="1.5" stroke-miterlimit="10"/>
<path d="M5.11475 30.0022H20.2206V29.1424C20.2206 28.2521 19.5548 27.5306 18.7332 27.5306H6.60209C5.78056 27.5306 5.11475 28.2521 5.11475 29.1424V30.0022V30.0022Z" stroke="#0030AD" stroke-width="1.5" stroke-miterlimit="10"/>
<path d="M20.8156 10.2387L22.6996 11.6271L27.2114 5.87573" stroke="#0030AD" stroke-width="1.5" stroke-miterlimit="10"/>
</svg>
