<svg width="21" height="21" viewBox="0 0 21 21" fill="none" xmlns="http://www.w3.org/2000/svg">
<path d="M13.6896 2.601H6.72739C3.70324 2.601 1.90039 4.40385 1.90039 7.42799V14.3902C1.90039 17.4143 3.70324 19.2172 6.72739 19.2172H13.6896C16.7137 19.2172 18.5166 17.4143 18.5166 14.3902V7.42799C18.5166 4.40385 16.7137 2.601 13.6896 2.601ZM8.52193 13.3184L6.65261 15.1877C6.52799 15.3124 6.37014 15.3705 6.21229 15.3705C6.05443 15.3705 5.88827 15.3124 5.77196 15.1877L5.14885 14.5646C4.89961 14.3237 4.89961 13.9249 5.14885 13.684C5.38978 13.443 5.78026 13.443 6.02951 13.684L6.21229 13.8668L7.64127 12.4378C7.88221 12.1968 8.27269 12.1968 8.52193 12.4378C8.76287 12.6787 8.76287 13.0775 8.52193 13.3184ZM8.52193 7.50277L6.65261 9.37208C6.52799 9.49671 6.37014 9.55486 6.21229 9.55486C6.05443 9.55486 5.88827 9.49671 5.77196 9.37208L5.14885 8.74898C4.89961 8.50804 4.89961 8.10926 5.14885 7.86832C5.38978 7.62739 5.78026 7.62739 6.02951 7.86832L6.21229 8.0511L7.64127 6.62211C7.88221 6.38118 8.27269 6.38118 8.52193 6.62211C8.76287 6.86304 8.76287 7.26183 8.52193 7.50277ZM14.8278 14.7474H10.466C10.1254 14.7474 9.84292 14.4649 9.84292 14.1243C9.84292 13.7837 10.1254 13.5012 10.466 13.5012H14.8278C15.1767 13.5012 15.4509 13.7837 15.4509 14.1243C15.4509 14.4649 15.1767 14.7474 14.8278 14.7474ZM14.8278 8.93176H10.466C10.1254 8.93176 9.84292 8.64928 9.84292 8.30865C9.84292 7.96802 10.1254 7.68554 10.466 7.68554H14.8278C15.1767 7.68554 15.4509 7.96802 15.4509 8.30865C15.4509 8.64928 15.1767 8.93176 14.8278 8.93176Z" fill="#1C1C1C"/>
</svg>
