<svg width="44" height="44" viewBox="0 0 44 44" fill="none" xmlns="http://www.w3.org/2000/svg">
<g id="customer 1" clip-path="url(#clip0_100_2059)">
<g id="Group">
<g id="Group_2">
<path id="Vector" d="M42.6236 21.7069C41.1525 20.4944 38.8272 20.3904 37.301 22.0283L33.5123 26.0954C33.0224 24.5211 31.5521 23.3748 29.8189 23.3748H23.0578C22.5448 23.3748 22.373 23.1789 21.4818 22.4923C18.084 19.5302 12.9805 19.5397 9.59303 22.5207L7.10789 24.7085C5.99079 24.1172 4.68634 24.1026 3.56314 24.6638L0.712766 26.0886C0.0759694 26.4074 -0.181757 27.1816 0.136126 27.8184L7.87007 43.2862C8.1889 43.923 8.96311 44.1807 9.59991 43.8628L12.4503 42.4372C13.8553 41.7352 14.6372 40.3018 14.5865 38.8427H29.8189C32.6434 38.8427 35.3426 37.4936 37.0372 35.2336L43.2252 26.9824C44.4256 25.3831 44.2357 23.038 42.6236 21.7069ZM11.297 40.1316L9.59982 40.9806L3.0183 27.8184L4.71634 26.9694C5.35313 26.6515 6.12648 26.9084 6.44531 27.5461L11.8736 38.4027C12.1916 39.0394 11.9338 39.8128 11.297 40.1316ZM41.1628 25.4355L34.9748 33.6867C33.7641 35.3014 31.8366 36.2647 29.8189 36.2647H13.6868L8.85655 26.6033L11.2961 24.4559C13.7237 22.3205 17.3845 22.3205 19.812 24.4559C21.2419 25.7148 22.1313 25.9529 23.0577 25.9529H29.8189C30.5296 25.9529 31.1078 26.5312 31.1078 27.2418C31.1078 27.9525 30.5295 28.5308 29.8189 28.5308H23.2356C22.524 28.5308 21.9466 29.1083 21.9466 29.8198C21.9466 30.5313 22.5241 31.1088 23.2356 31.1088H30.6825C31.7524 31.1088 32.7836 30.6602 33.5123 29.8774L39.1872 23.7856C39.7063 23.2287 40.502 23.2751 40.9901 23.7022C41.5005 24.149 41.5556 24.913 41.1628 25.4355Z" fill="#1D191F"/>
</g>
</g>
<g id="Group_3">
<g id="Group_4">
<path id="Vector_2" d="M27.1034 8.79727C27.9859 7.87181 28.5299 6.62064 28.5299 5.24306C28.5299 2.40558 26.2373 0.0012207 23.374 0.0012207C20.5322 0.0012207 18.1322 2.40128 18.1322 5.24306C18.1322 6.57845 18.6555 7.83906 19.6059 8.80758C17.2488 10.1292 15.5542 12.6659 15.5542 15.6409V16.9299C15.5542 17.6414 16.1317 18.2189 16.8432 18.2189H29.819C30.5304 18.2189 31.1079 17.6414 31.1079 16.9299V15.6409C31.1079 12.7244 29.5037 10.1481 27.1034 8.79727ZM23.374 2.57926C24.7713 2.57926 25.9519 3.79949 25.9519 5.24315C25.9519 6.66447 24.7953 7.8211 23.374 7.8211C21.9303 7.8211 20.7101 6.64041 20.7101 5.24315C20.7101 3.82441 21.9553 2.57926 23.374 2.57926ZM18.1322 15.6409C18.1322 12.7991 20.5322 10.3991 23.374 10.3991C26.2166 10.3991 28.5299 12.7501 28.5299 15.6409H18.1322Z" fill="#1D191F"/>
</g>
</g>
</g>
<defs>
<clipPath id="clip0_100_2059">
<rect width="44" height="44" fill="white"/>
</clipPath>
</defs>
</svg>
