<svg width="24" height="25" viewBox="0 0 24 25" fill="none" xmlns="http://www.w3.org/2000/svg">
<path d="M1.97461 6.5597C1.97461 4.37434 3.74619 2.60275 5.93155 2.60275H17.8024C19.9877 2.60275 21.7593 4.37434 21.7593 6.5597V18.4305C21.7593 20.6159 19.9877 22.3875 17.8024 22.3875H5.93155C3.74619 22.3875 1.97461 20.6159 1.97461 18.4305V6.5597Z" fill="#252525"/>
<path fill-rule="evenodd" clip-rule="evenodd" d="M11.8669 6.80704C12.2767 6.80704 12.6089 7.13921 12.6089 7.54896V17.4413C12.6089 17.8511 12.2767 18.1833 11.8669 18.1833C11.4572 18.1833 11.125 17.8511 11.125 17.4413V7.54896C11.125 7.13921 11.4572 6.80704 11.8669 6.80704Z" fill="white"/>
<path fill-rule="evenodd" clip-rule="evenodd" d="M16.8122 8.78549C17.222 8.78549 17.5542 9.11766 17.5542 9.52742V15.4628C17.5542 15.8726 17.222 16.2048 16.8122 16.2048C16.4025 16.2048 16.0703 15.8726 16.0703 15.4628V9.52742C16.0703 9.11766 16.4025 8.78549 16.8122 8.78549Z" fill="white"/>
<path fill-rule="evenodd" clip-rule="evenodd" d="M6.92161 8.78549C7.33137 8.78549 7.66354 9.11766 7.66354 9.52742V15.4628C7.66354 15.8726 7.33137 16.2048 6.92161 16.2048C6.51186 16.2048 6.17969 15.8726 6.17969 15.4628V9.52742C6.17969 9.11766 6.51186 8.78549 6.92161 8.78549Z" fill="white"/>
</svg>
