<svg width="315" height="290" viewBox="0 0 315 290" fill="none" xmlns="http://www.w3.org/2000/svg">
<path d="M20.3418 143.655C20.4475 143.594 20.5183 143.465 20.5148 143.306C20.5142 143.036 20.3131 142.772 20.0709 142.716L0.438169 138.187C0.196577 138.129 -0.00136644 138.302 7.10548e-06 138.572C0.00214373 138.841 0.202529 139.104 0.446715 139.16L20.0782 143.691C20.178 143.713 20.2685 143.699 20.3418 143.655Z" fill="#78D0E2"/>
<path d="M136.312 289.016C136.449 288.935 136.567 288.822 136.651 288.682L155.312 256.372C155.521 256.013 155.391 255.624 155.026 255.501C154.666 255.379 154.202 255.572 153.989 255.929L135.325 288.242C135.116 288.6 135.243 288.991 135.614 289.111C135.836 289.188 136.094 289.143 136.312 289.016Z" fill="#78D0E2"/>
<path d="M241.793 31.9469C241.911 31.8776 242.012 31.7782 242.086 31.6502L259.886 1.24856C260.117 0.852825 259.985 0.345071 259.589 0.114468C259.194 -0.116441 258.688 0.012064 258.456 0.410087L240.656 30.8138C240.426 31.2096 240.558 31.7156 240.953 31.9484C241.222 32.1033 241.543 32.0944 241.793 31.9469Z" fill="#231F20"/>
<path d="M314.591 161.241C314.785 161.127 314.933 160.931 314.983 160.691C315.073 160.242 314.785 159.807 314.336 159.716L265.907 149.788C265.459 149.692 265.022 149.982 264.931 150.435C264.839 150.881 265.127 151.319 265.576 151.41L314.004 161.336C314.215 161.379 314.422 161.341 314.591 161.241Z" fill="#78D0E2"/>
<path d="M208.072 19.7136C208.419 19.5089 208.573 19.0767 208.419 18.6938L206.788 14.6037L211.098 11.3029L208.927 6.80805L212.664 3.94482C213.026 3.66752 213.094 3.14816 212.817 2.78341C212.537 2.42049 212.024 2.3573 211.654 2.62881L206.848 6.31236L209.019 10.8086L204.785 14.0531L206.881 19.3076C207.052 19.7311 207.533 19.9388 207.957 19.7693C207.998 19.7525 208.037 19.7346 208.072 19.7136Z" fill="#78D0E2"/>
<path d="M50.7003 225.711C51.1006 225.671 51.4235 225.345 51.4476 224.931L51.6978 220.538L56.9945 219.365L56.9266 214.372L61.5255 213.358C61.974 213.257 62.2571 212.815 62.1552 212.371C62.0595 211.924 61.6087 211.634 61.1714 211.739L55.2545 213.047L55.3241 218.043L50.1151 219.188L49.7942 224.838C49.7696 225.292 50.1182 225.687 50.5725 225.711C50.6144 225.714 50.6604 225.711 50.7003 225.711Z" fill="#231F20"/>
<path d="M47.895 80.3518C47.9477 80.3687 48.0084 80.3828 48.0646 80.3883C48.5202 80.4334 48.9275 80.1012 48.9727 79.6453L49.5796 73.6182L44.8185 72.1233L45.3525 66.8179L40.0898 64.7437C39.6283 64.5485 39.1854 64.7894 39.014 65.21C38.8476 65.6374 39.0581 66.1196 39.4825 66.285L43.576 67.898L43.033 73.2983L47.8006 74.7972L47.3252 79.4811C47.2847 79.877 47.5315 80.235 47.895 80.3518Z" fill="#78D0E2"/>
<path d="M286.549 212.742C286.894 212.539 287.047 212.109 286.902 211.726C286.731 211.3 286.252 211.09 285.825 211.254L281.727 212.861L278.452 208.538L273.945 210.683L271.101 206.93C270.824 206.561 270.294 206.494 269.938 206.767C269.574 207.045 269.504 207.563 269.78 207.928L273.435 212.758L277.947 210.611L281.164 214.863L286.432 212.799C286.473 212.783 286.511 212.764 286.549 212.742Z" fill="#231F20"/>
<path d="M294.389 118.769L280.01 115.061L292.803 107.974L293.02 107.906C294.733 107.689 296.321 109.859 296.714 112.958C297.105 116.053 296.103 118.55 294.389 118.769ZM283.201 114.659L294.333 117.562C295.153 117.33 295.827 115.447 295.531 113.107C295.236 110.766 294.115 109.108 293.264 109.086L283.201 114.659Z" fill="#231F20"/>
<path d="M31.7666 186.488C31.8622 186.094 32.2312 185.825 32.6332 185.856L49.3921 187.142C50.0685 187.198 50.3792 188.18 49.8536 188.611L36.8288 199.239C36.5159 199.495 36.0612 199.484 35.7588 199.214C35.4561 198.945 35.3893 198.493 35.6133 198.147C36.2354 197.175 36.4869 194.976 35.6374 192.265C34.7855 189.55 33.3235 187.89 32.2556 187.448C32.022 187.349 31.8527 187.157 31.7793 186.93C31.7401 186.79 31.7306 186.637 31.7666 186.488ZM37.813 196.297L47.2021 188.636L35.1196 187.708C35.9779 188.766 36.7134 190.169 37.2166 191.769C37.7147 193.369 37.9136 194.941 37.813 196.297Z" fill="#78D0E2"/>
<path d="M30.9248 185.787L32.6326 185.856L32.8885 185.917C34.654 186.648 36.3112 188.891 37.2161 191.769C38.1196 194.647 38.0384 197.433 37.0046 199.043L35.7429 200.124L35.4688 200.27C33.1788 200.99 30.4758 198.417 29.1816 194.287C27.885 190.16 28.6371 186.503 30.9248 185.787ZM35.6719 198.044C36.2523 197.021 36.4565 194.883 35.637 192.265C34.8122 189.644 33.4233 188.006 32.3641 187.497L31.2976 187.416C30.2363 187.936 29.7817 190.672 30.761 193.792C31.7369 196.915 33.6746 198.901 34.8434 198.72L35.6719 198.044Z" fill="#78D0E2"/>
<path d="M114.396 50.167C114.728 50.1941 114.994 50.4587 115.02 50.7882L116.129 64.4881C116.175 65.0377 115.422 65.4136 115.004 65.0482L104.747 55.8969C104.502 55.6721 104.45 55.303 104.633 55.0215C104.809 54.7461 105.17 54.6332 105.475 54.768C106.338 55.1457 108.146 55.0691 110.228 54.0342C112.312 52.9964 113.464 51.6016 113.685 50.6836C113.734 50.4828 113.868 50.3238 114.044 50.2363C114.149 50.1835 114.272 50.1539 114.396 50.167ZM107.25 56.3092L114.644 62.9061L113.841 53.0289C113.1 53.861 112.059 54.6327 110.83 55.2444C109.604 55.8538 108.36 56.2172 107.25 56.3092Z" fill="#231F20"/>
<path d="M114.855 49.4005L115.019 50.7882L115.001 50.9988C114.637 52.5199 113.042 54.1433 110.83 55.2443C108.624 56.3422 106.36 56.6357 104.928 56.0084L103.896 55.1294L103.739 54.9273C102.866 53.1687 104.597 50.6542 107.769 49.0788C110.931 47.5062 113.983 47.6422 114.855 49.4005ZM105.566 54.8031C106.464 55.1423 108.217 55.0335 110.227 54.034C112.239 53.0323 113.384 51.701 113.66 50.779L113.589 49.9049C113.031 49.1148 110.764 49.1007 108.371 50.2896C105.972 51.4843 104.619 53.2966 104.912 54.221L105.566 54.8031Z" fill="#231F20"/>
<path d="M288.977 182.369C287.951 180.627 288.534 178.372 290.275 177.346C292.018 176.319 294.271 176.903 295.297 178.645C296.325 180.389 295.742 182.639 293.999 183.666C292.257 184.692 290.004 184.113 288.977 182.369ZM290.201 181.648C290.83 182.716 292.211 183.073 293.278 182.444C294.347 181.815 294.704 180.433 294.075 179.365C293.444 178.294 292.064 177.939 290.995 178.569C289.928 179.198 289.57 180.576 290.201 181.648Z" fill="#231F20"/>
<path d="M183.352 253.657C182.326 251.915 182.909 249.661 184.651 248.635C186.392 247.609 188.646 248.192 189.672 249.933C190.699 251.675 190.116 253.929 188.374 254.955C186.633 255.981 184.379 255.399 183.352 253.657ZM184.575 252.937C185.206 254.008 186.591 254.363 187.656 253.736C188.724 253.106 189.081 251.725 188.45 250.654C187.821 249.586 186.439 249.228 185.371 249.857C184.306 250.485 183.945 251.869 184.575 252.937Z" fill="#231F20"/>
<path d="M79.1539 259.38C78.1274 257.638 78.7073 255.386 80.4519 254.358C82.1935 253.332 84.4477 253.914 85.4742 255.656C86.5022 257.401 85.9189 259.655 84.1772 260.681C82.4328 261.709 80.1821 261.125 79.1539 259.38ZM80.3766 258.66C81.0077 259.731 82.3845 260.087 83.4554 259.456C84.5237 258.827 84.8826 257.448 84.2514 256.377C83.6237 255.312 82.2421 254.954 81.1739 255.584C80.1027 256.215 79.7489 257.595 80.3766 258.66Z" fill="#78D0E2"/>
<path d="M17.2663 105.596C16.2401 103.855 16.8228 101.6 18.5648 100.574C20.3093 99.5463 22.5632 100.129 23.5894 101.871C24.6163 103.614 24.0333 105.867 22.2888 106.895C20.5468 107.921 18.2934 107.34 17.2663 105.596ZM18.4917 104.874C19.1218 105.944 20.4998 106.302 21.5684 105.672C22.6363 105.043 22.9943 103.663 22.364 102.593C21.7346 101.525 20.3537 101.169 19.2859 101.798C18.2173 102.428 17.8623 103.806 18.4917 104.874Z" fill="#231F20"/>
<path d="M225.889 256.063C227.633 255.035 228.213 252.783 227.186 251.041C226.158 249.296 223.91 248.715 222.165 249.743C220.423 250.769 219.839 253.02 220.867 254.764C221.893 256.506 224.147 257.089 225.889 256.063Z" fill="#78D0E2"/>
<path d="M164.376 31.7578C163.349 30.0147 163.932 27.7618 165.674 26.7358C167.42 25.7078 169.672 26.2892 170.699 28.0324C171.725 29.7741 171.143 32.0282 169.398 33.0564C167.656 34.0823 165.402 33.4993 164.376 31.7578ZM165.598 31.0376C166.228 32.1059 167.609 32.4615 168.676 31.8321C169.748 31.2009 170.106 29.8206 169.477 28.7523C168.847 27.6826 167.466 27.3269 166.394 27.9581C165.326 28.5879 164.968 29.968 165.598 31.0376Z" fill="#231F20"/>
<path d="M267.092 49.2766C267.185 49.2215 267.269 49.1478 267.341 49.0546L275.341 38.1587C275.612 37.7892 275.534 37.2714 275.165 37.0016C274.794 36.7308 274.276 36.8158 274.006 37.1787L266.005 48.0725C265.735 48.4415 265.811 48.9596 266.182 49.2315C266.456 49.4335 266.815 49.4393 267.092 49.2766Z" fill="#78D0E2"/>
<path d="M123.073 265.57C123.102 265.809 123.009 266.051 122.819 266.204L115.321 272.256C115.104 272.431 114.8 272.459 114.557 272.33L108.085 268.904C107.872 268.794 107.733 268.584 107.71 268.35C107.696 268.114 107.791 267.882 107.982 267.738L115.203 262.117C115.398 261.953 115.675 261.922 115.91 262.028L122.663 265.024C122.765 265.068 122.857 265.142 122.923 265.227C123.004 265.323 123.055 265.444 123.073 265.57ZM109.692 268.178L114.801 270.879L121.051 265.834L115.727 263.474L109.692 268.178Z" fill="black"/>
<path d="M123.062 265.52L124.589 272.819C124.645 273.078 124.55 273.342 124.341 273.504L117.061 279.309C116.878 279.46 116.628 279.504 116.402 279.425C116.174 279.352 116.004 279.164 115.949 278.936L114.202 271.879C114.137 271.618 114.229 271.34 114.446 271.172L121.942 265.117C122.132 264.965 122.387 264.922 122.613 265.001C122.737 265.048 122.844 265.121 122.922 265.227C122.991 265.31 123.04 265.405 123.062 265.52ZM117.042 277.541L123.138 272.683L121.934 266.921L115.667 271.976L117.042 277.541Z" fill="black"/>
<path d="M115.561 271.543L117.308 278.601C117.375 278.869 117.275 279.155 117.048 279.325C116.823 279.494 116.522 279.512 116.276 279.372L110.06 275.743C109.906 275.651 109.797 275.507 109.742 275.331L107.737 268.482C107.663 268.214 107.748 267.924 107.97 267.745C108.187 267.569 108.486 267.541 108.737 267.669L115.204 271.094C115.297 271.144 115.366 271.206 115.428 271.278C115.488 271.354 115.537 271.449 115.561 271.543ZM111.006 274.674L115.553 277.332L114.278 272.183L109.544 269.676L111.006 274.674Z" fill="black"/>
<path d="M238.799 32.9297C231.065 29.3235 222.184 29.371 213.785 33.0596C213.376 33.2389 212.975 33.4249 212.569 33.6188L48.542 113.013C39.965 117.164 34.0888 124.108 32.0046 132.558C29.9156 141.005 31.883 149.886 37.5403 157.55L99.732 241.842C110.785 256.822 132.928 262.629 150.134 255.074C150.862 254.755 151.579 254.417 152.285 254.053L241.781 207.626L271.557 189.653C282.297 178.327 286.743 161.4 282.617 147.278L254.926 52.4292C252.316 43.4923 246.595 36.5649 238.799 32.9297Z" fill="#0030AD"/>
<path d="M271.273 72.8584C266.08 66.9461 258.564 63.6934 250.104 63.6934C249.693 63.6934 249.285 63.7015 248.871 63.7148L80.9341 69.9357C72.1527 70.2605 64.6165 73.9454 59.7239 80.3067C54.8281 86.6647 53.1961 94.8929 55.1317 103.462L76.3907 197.694C80.1687 214.441 96.7132 227.555 114.042 227.555C114.775 227.555 115.506 227.536 116.237 227.49L209.019 221.471L240.861 249.99L240.825 217.336C254.092 211.755 264.122 199.11 265.875 185.657L277.661 95.3023C278.77 86.7887 276.509 78.8184 271.273 72.8584Z" fill="#7AAEFF"/>
<path d="M79.0915 99.6928C78.9549 99.7723 78.8227 99.8572 78.6902 99.9408C72.411 103.887 70.3467 112.131 74.1082 118.587C75.1936 120.45 76.6493 121.965 78.325 123.093C85.7029 128.284 89.5165 131.506 91.8844 134.616L92.1516 134.46L97.116 131.568L102.896 128.2L103.163 128.045C101.625 124.452 100.704 119.545 99.825 110.567C99.6711 108.552 99.0712 106.539 97.9858 104.676C94.1443 98.0826 85.6842 95.8518 79.0915 99.6928Z" fill="#FFCA26"/>
<path d="M98.7486 136.468L98.5871 136.555C95.6752 131.122 92.0959 125.274 89.0129 120.912C87.9135 119.357 86.9042 118.028 85.9997 116.939C84.3754 117.946 82.35 119.064 81.1784 118.678C80.2495 118.371 79.5718 116.985 79.6672 115.589C79.7548 114.31 80.476 113.422 81.597 113.216C82.5452 113.042 84.1445 114.419 86.049 116.691C86.2896 116.54 86.5181 116.395 86.7273 116.262C87.1815 115.972 87.5745 115.723 87.8451 115.578L87.9319 115.74C87.6667 115.882 87.2771 116.13 86.8261 116.416C86.6182 116.549 86.3975 116.689 86.1677 116.834C90.0973 121.565 95.2809 129.997 98.7486 136.468ZM80.9133 113.656C80.0545 114.156 79.8823 115.138 79.8511 115.601C79.7598 116.919 80.3822 118.221 81.236 118.503C82.3216 118.862 84.3337 117.753 85.8806 116.796C83.9003 114.434 82.433 113.25 81.6298 113.397C81.3494 113.449 81.1121 113.54 80.9133 113.656Z" fill="white"/>
<path d="M100.711 135.325C96.7905 129.114 92.0017 120.456 89.8004 114.719C89.5476 114.856 89.3025 114.986 89.0721 115.108C88.6003 115.359 88.1925 115.575 87.938 115.737L87.8398 115.581C88.1004 115.416 88.5107 115.198 88.9863 114.946C89.2174 114.823 89.4696 114.689 89.7344 114.546C88.6837 111.77 88.2595 109.706 88.8674 108.981C89.5997 108.108 90.7269 107.918 91.8833 108.472C93.1451 109.078 94.0164 110.351 93.8242 111.31C93.5848 112.514 91.6311 113.719 89.96 114.633C92.119 120.234 96.8099 128.8 100.867 135.227L100.711 135.325ZM89.8921 114.459C91.4842 113.586 93.4219 112.389 93.6444 111.274C93.8203 110.392 92.9941 109.209 91.8037 108.638C91.2873 108.39 89.981 107.939 89.0081 109.099C88.446 109.769 88.8642 111.755 89.8921 114.459Z" fill="white"/>
<path d="M102.667 141.096C102.809 141.03 102.95 140.961 103.087 140.881C104.754 139.91 105.623 138.095 105.472 136.293L107.068 135.363C107.398 135.171 107.478 134.694 107.246 134.298C107.016 133.902 106.563 133.738 106.233 133.93C106.563 133.738 106.643 133.262 106.412 132.866C106.182 132.47 105.728 132.304 105.398 132.496C105.728 132.304 105.808 131.83 105.578 131.434C105.347 131.037 104.893 130.872 104.564 131.064C104.893 130.872 104.973 130.396 104.743 130.001C104.512 129.605 104.059 129.44 103.73 129.632C104.059 129.44 104.139 128.963 103.908 128.568C103.678 128.172 103.225 128.008 102.895 128.2L97.1152 131.567L102.667 141.096Z" fill="black"/>
<path d="M92.1509 134.46C91.8211 134.652 91.741 135.127 91.9713 135.523C92.2016 135.918 92.6554 136.084 92.9854 135.892C92.6554 136.084 92.5752 136.56 92.8059 136.956C93.0361 137.351 93.4898 137.516 93.8198 137.324C93.4898 137.516 93.41 137.993 93.6407 138.389C93.8715 138.785 94.3243 138.949 94.6543 138.756C94.3245 138.949 94.2445 139.425 94.4757 139.821C94.7062 140.217 95.1597 140.382 95.4895 140.19C95.1597 140.382 95.0791 140.857 95.3099 141.253C95.5407 141.65 95.9947 141.815 96.3243 141.623L97.9207 140.693C99.2898 141.63 101.091 141.82 102.667 141.096L97.1155 131.568L92.1509 134.46Z" fill="black"/>
<path d="M77.0765 137.877C76.9705 137.938 76.8379 137.951 76.7172 137.898C76.5154 137.81 76.4239 137.576 76.5121 137.375L79.1101 131.426C79.1981 131.226 79.4319 131.133 79.6337 131.222C79.8347 131.309 79.9266 131.543 79.8387 131.745L77.2407 137.693C77.2056 137.774 77.1468 137.836 77.0765 137.877Z" fill="#FFB21B"/>
<path d="M109.739 123.756C109.633 123.817 109.501 123.83 109.38 123.777L103.432 121.178C103.231 121.091 103.139 120.856 103.227 120.655C103.315 120.454 103.548 120.362 103.751 120.45L109.698 123.048C109.899 123.137 109.991 123.371 109.903 123.572C109.868 123.652 109.809 123.715 109.739 123.756Z" fill="#FFB21B"/>
<path d="M111.11 106.942C111.092 106.952 111.074 106.961 111.054 106.969L105.012 109.337C104.807 109.417 104.576 109.317 104.496 109.112C104.416 108.908 104.516 108.677 104.721 108.597L110.765 106.228C110.969 106.148 111.199 106.249 111.28 106.453C111.352 106.638 111.276 106.845 111.11 106.942Z" fill="#FFB21B"/>
<path d="M95.6977 98.7923C95.5918 98.854 95.4586 98.8662 95.338 98.8132C95.137 98.7255 95.0454 98.491 95.1326 98.2899L97.7315 92.342C97.8194 92.1408 98.0541 92.049 98.2549 92.1372C98.4555 92.2249 98.5477 92.4589 98.46 92.66L95.8613 98.6079C95.8265 98.6884 95.7681 98.7512 95.6977 98.7923Z" fill="#FFB21B"/>
<path d="M81.6364 97.9798C81.6185 97.9901 81.6003 97.9985 81.581 98.0062C81.3766 98.0864 81.1457 97.9862 81.0659 97.7815L78.6976 91.7387C78.6173 91.5342 78.7177 91.3033 78.9222 91.223C79.1267 91.143 79.3575 91.2441 79.4372 91.4483L81.8059 97.4914C81.8776 97.6765 81.8032 97.8827 81.6364 97.9798Z" fill="#FFB21B"/>
<path d="M71.118 107.349C71.0124 107.41 70.8796 107.423 70.7588 107.37L64.811 104.771C64.6097 104.684 64.5178 104.45 64.6054 104.248C64.6941 104.047 64.9276 103.955 65.1289 104.043L71.0768 106.641C71.2781 106.729 71.3697 106.963 71.2819 107.165C71.247 107.245 71.1884 107.308 71.118 107.349Z" fill="#FFB21B"/>
<path d="M70.3054 121.411C70.2876 121.421 70.2694 121.43 70.2499 121.438L64.2072 123.807C64.0029 123.886 63.7719 123.786 63.6917 123.582C63.6115 123.377 63.7117 123.146 63.9166 123.067L69.9599 120.698C70.164 120.617 70.3947 120.719 70.4748 120.923C70.5475 121.108 70.4719 121.314 70.3054 121.411Z" fill="#FFB21B"/>
<path opacity="0.2" d="M94.6069 106.841C97.6741 112.105 95.893 118.859 90.6284 121.926C85.3637 124.994 78.6097 123.212 75.5426 117.947C72.4755 112.683 74.2568 105.929 79.5214 102.862C84.7858 99.7947 91.5398 101.576 94.6069 106.841Z" fill="white"/>
<path d="M131.033 94.139H138.697C140.69 94.139 142.4 94.3243 143.826 94.6938C145.252 95.0634 146.545 95.7566 147.707 96.773C150.73 99.3605 152.242 103.294 152.242 108.575C152.242 110.317 152.09 111.908 151.786 113.347C151.482 114.786 151.014 116.084 150.381 117.238C149.747 118.394 148.935 119.427 147.945 120.337C147.166 121.038 146.315 121.598 145.39 122.02C144.466 122.443 143.473 122.741 142.41 122.912C141.348 123.083 140.149 123.169 138.816 123.169H131.153C130.083 123.169 129.278 123.008 128.737 122.684C128.195 122.361 127.842 121.906 127.677 121.318C127.512 120.73 127.43 119.968 127.43 119.031V97.7433C127.43 96.4756 127.713 95.5588 128.281 94.9909C128.849 94.4229 129.766 94.139 131.033 94.139ZM133.31 98.7927V118.496H137.767C138.743 118.496 139.509 118.469 140.063 118.417C140.617 118.364 141.192 118.232 141.787 118.021C142.38 117.809 142.896 117.513 143.331 117.13C145.298 115.466 146.281 112.601 146.281 108.535C146.281 105.671 145.849 103.525 144.985 102.1C144.119 100.674 143.053 99.7663 141.787 99.3765C140.519 98.9878 138.987 98.7927 137.192 98.7927H133.31Z" fill="white"/>
<path d="M157.648 120.08V97.2089C157.648 96.0203 157.919 95.1291 158.46 94.5354C159.002 93.9414 159.702 93.644 160.56 93.644C161.444 93.644 162.16 93.938 162.708 94.5255C163.256 95.1126 163.53 96.0069 163.53 97.2089V120.08C163.53 121.282 163.256 122.179 162.708 122.773C162.16 123.368 161.444 123.664 160.56 123.664C159.715 123.664 159.018 123.364 158.471 122.764C157.923 122.163 157.648 121.268 157.648 120.08Z" fill="white"/>
<path d="M173.746 94.139H181.409C183.403 94.139 185.113 94.3243 186.539 94.6938C187.964 95.0634 189.258 95.7566 190.42 96.773C193.443 99.3605 194.955 103.294 194.955 108.575C194.955 110.317 194.803 111.908 194.5 113.347C194.195 114.786 193.727 116.084 193.093 117.238C192.459 118.394 191.647 119.427 190.658 120.337C189.878 121.038 189.027 121.598 188.103 122.02C187.179 122.443 186.186 122.741 185.123 122.912C184.06 123.083 182.862 123.169 181.529 123.169H173.865C172.796 123.169 171.991 123.008 171.449 122.684C170.907 122.361 170.555 121.906 170.39 121.318C170.225 120.73 170.143 119.968 170.143 119.031V97.7433C170.143 96.4756 170.426 95.5588 170.994 94.9909C171.561 94.4229 172.479 94.139 173.746 94.139ZM176.024 98.7927V118.496H180.479C181.456 118.496 182.222 118.469 182.776 118.417C183.331 118.364 183.904 118.232 184.499 118.021C185.093 117.809 185.608 117.513 186.044 117.13C188.011 115.466 188.995 112.601 188.995 108.535C188.995 105.671 188.561 103.525 187.697 102.1C186.833 100.674 185.767 99.7663 184.499 99.3765C183.231 98.9878 181.7 98.7927 179.905 98.7927H176.024Z" fill="white"/>
<path d="M128.131 155.119V145.91L121.043 134.92C120.422 133.93 119.983 133.157 119.726 132.603C119.468 132.049 119.34 131.567 119.34 131.158C119.34 130.484 119.6 129.904 120.122 129.415C120.643 128.927 121.286 128.682 122.052 128.682C122.857 128.682 123.468 128.91 123.884 129.366C124.3 129.821 124.923 130.729 125.756 132.089L131.181 140.901L136.666 132.089C136.996 131.548 137.273 131.092 137.498 130.722C137.723 130.353 137.97 130.007 138.241 129.683C138.511 129.359 138.812 129.112 139.142 128.94C139.472 128.768 139.875 128.682 140.35 128.682C141.088 128.682 141.706 128.924 142.202 129.406C142.697 129.887 142.943 130.445 142.943 131.078C142.943 131.594 142.818 132.108 142.568 132.623C142.317 133.138 141.887 133.851 141.281 134.761L134.013 145.911V155.119C134.013 156.32 133.736 157.218 133.181 157.812C132.626 158.406 131.921 158.704 131.062 158.704C130.191 158.704 129.485 158.409 128.943 157.822C128.402 157.234 128.131 156.334 128.131 155.119Z" fill="white"/>
<path d="M159.24 128.682C162.25 128.682 164.834 129.293 166.993 130.514C169.151 131.736 170.784 133.472 171.893 135.722C173.002 137.973 173.557 140.617 173.557 143.653C173.557 145.897 173.253 147.937 172.647 149.772C172.039 151.606 171.128 153.198 169.913 154.544C168.699 155.891 167.207 156.921 165.439 157.633C163.669 158.346 161.643 158.703 159.359 158.703C157.088 158.703 155.055 158.337 153.26 157.604C151.464 156.871 149.966 155.838 148.764 154.504C147.563 153.172 146.656 151.567 146.042 149.693C145.428 147.818 145.121 145.792 145.121 143.614C145.121 141.383 145.441 139.336 146.082 137.475C146.721 135.613 147.649 134.029 148.864 132.722C150.078 131.415 151.557 130.415 153.299 129.722C155.042 129.03 157.023 128.682 159.24 128.682ZM167.597 143.614C167.597 141.488 167.253 139.647 166.568 138.089C165.881 136.531 164.9 135.353 163.627 134.554C162.352 133.755 160.89 133.356 159.241 133.356C158.065 133.356 156.979 133.577 155.982 134.019C154.986 134.461 154.128 135.105 153.408 135.95C152.689 136.795 152.121 137.874 151.705 139.187C151.289 140.502 151.081 141.976 151.081 143.614C151.081 145.264 151.289 146.756 151.705 148.089C152.121 149.423 152.708 150.528 153.469 151.405C154.227 152.283 155.099 152.94 156.081 153.375C157.065 153.811 158.145 154.029 159.319 154.029C160.825 154.029 162.208 153.653 163.468 152.9C164.729 152.148 165.732 150.986 166.478 149.415C167.223 147.845 167.597 145.91 167.597 143.614Z" fill="white"/>
<path d="M178.627 146.207V132.247C178.627 131.058 178.895 130.167 179.43 129.574C179.964 128.979 180.666 128.682 181.538 128.682C182.449 128.682 183.172 128.979 183.707 129.574C184.241 130.168 184.508 131.058 184.508 132.247V146.524C184.508 148.148 184.69 149.504 185.053 150.594C185.416 151.683 186.059 152.528 186.984 153.128C187.908 153.729 189.202 154.029 190.864 154.029C193.162 154.029 194.786 153.419 195.737 152.198C196.687 150.976 197.162 149.125 197.162 146.643V132.247C197.162 131.046 197.427 130.151 197.955 129.564C198.482 128.976 199.189 128.682 200.073 128.682C200.957 128.682 201.673 128.976 202.222 129.564C202.769 130.151 203.043 131.045 203.043 132.247V146.207C203.043 148.478 202.823 150.373 202.38 151.891C201.938 153.408 201.102 154.742 199.875 155.891C198.819 156.868 197.59 157.581 196.192 158.03C194.792 158.478 193.155 158.703 191.281 158.703C189.05 158.703 187.129 158.461 185.518 157.98C183.908 157.499 182.594 156.752 181.578 155.742C180.561 154.732 179.814 153.439 179.34 151.861C178.865 150.284 178.627 148.399 178.627 146.207Z" fill="white"/>
<path d="M111.295 169.036V179.215L122.84 167.176C123.394 166.594 123.866 166.165 124.256 165.888C124.646 165.611 125.164 165.473 125.81 165.473C126.655 165.473 127.338 165.72 127.86 166.215C128.381 166.71 128.642 167.313 128.642 168.026C128.642 168.885 128.199 169.737 127.315 170.581L120.167 177.353L128.404 189.156C128.985 189.975 129.421 190.691 129.711 191.304C130.002 191.918 130.147 192.516 130.147 193.096C130.147 193.743 129.892 194.304 129.385 194.78C128.876 195.255 128.186 195.493 127.315 195.493C126.497 195.493 125.83 195.317 125.315 194.968C124.8 194.618 124.365 194.153 124.008 193.572C123.652 192.991 123.335 192.462 123.057 191.987L116.107 181.294L111.295 185.908V191.908C111.295 193.122 111.018 194.023 110.463 194.611C109.909 195.198 109.196 195.493 108.325 195.493C107.823 195.493 107.341 195.36 106.879 195.096C106.417 194.832 106.06 194.476 105.81 194.027C105.625 193.657 105.513 193.228 105.473 192.74C105.433 192.251 105.414 191.545 105.414 190.621V169.036C105.414 167.848 105.674 166.957 106.196 166.363C106.718 165.769 107.427 165.472 108.325 165.472C109.209 165.472 109.925 165.766 110.473 166.352C111.021 166.942 111.295 167.836 111.295 169.036Z" fill="#19161B"/>
<path d="M143.057 168.997L154.364 186.106V168.839C154.364 167.717 154.604 166.875 155.087 166.314C155.569 165.753 156.219 165.473 157.037 165.473C157.882 165.473 158.548 165.753 159.037 166.314C159.525 166.875 159.769 167.717 159.769 168.839V191.671C159.769 194.218 158.714 195.493 156.601 195.493C156.073 195.493 155.598 195.417 155.175 195.265C154.753 195.113 154.357 194.872 153.988 194.542C153.618 194.211 153.274 193.826 152.958 193.383C152.641 192.942 152.325 192.49 152.007 192.027L140.978 175.116V192.126C140.978 193.235 140.72 194.073 140.206 194.641C139.691 195.209 139.03 195.493 138.225 195.493C137.393 195.493 136.727 195.205 136.226 194.631C135.723 194.057 135.473 193.222 135.473 192.127V169.73C135.473 168.78 135.578 168.033 135.789 167.493C136.04 166.898 136.456 166.413 137.037 166.037C137.618 165.661 138.245 165.473 138.918 165.473C139.446 165.473 139.899 165.559 140.275 165.73C140.651 165.902 140.981 166.133 141.265 166.424C141.549 166.714 141.839 167.09 142.136 167.552C142.433 168.013 142.74 168.495 143.057 168.997Z" fill="#19161B"/>
<path d="M178.981 165.473C181.99 165.473 184.574 166.083 186.732 167.304C188.891 168.525 190.525 170.262 191.634 172.513C192.743 174.763 193.297 177.407 193.297 180.443C193.297 182.687 192.994 184.727 192.386 186.562C191.779 188.397 190.868 189.988 189.654 191.334C188.439 192.681 186.947 193.71 185.178 194.424C183.409 195.136 181.383 195.493 179.098 195.493C176.828 195.493 174.795 195.127 173 194.394C171.204 193.662 169.706 192.629 168.504 191.294C167.303 189.961 166.396 188.358 165.782 186.483C165.168 184.609 164.861 182.582 164.861 180.404C164.861 178.172 165.181 176.126 165.822 174.265C166.462 172.404 167.389 170.82 168.604 169.512C169.818 168.205 171.297 167.205 173.039 166.512C174.782 165.819 176.763 165.473 178.981 165.473ZM187.337 180.404C187.337 178.278 186.993 176.437 186.307 174.878C185.62 173.321 184.64 172.143 183.366 171.344C182.092 170.546 180.63 170.146 178.981 170.146C177.805 170.146 176.719 170.367 175.723 170.81C174.725 171.251 173.868 171.895 173.149 172.74C172.429 173.585 171.861 174.664 171.446 175.978C171.029 177.291 170.822 178.766 170.822 180.404C170.822 182.054 171.029 183.546 171.446 184.879C171.862 186.212 172.448 187.318 173.207 188.196C173.967 189.074 174.838 189.731 175.821 190.166C176.804 190.601 177.884 190.819 179.059 190.819C180.564 190.819 181.947 190.443 183.208 189.691C184.469 188.938 185.472 187.776 186.218 186.205C186.964 184.634 187.337 182.701 187.337 180.404Z" fill="#19161B"/>
<path d="M219.375 190.423L214.681 173.017L209.929 190.423C209.56 191.743 209.266 192.69 209.048 193.265C208.83 193.84 208.45 194.355 207.909 194.809C207.367 195.265 206.648 195.493 205.751 195.493C205.026 195.493 204.426 195.357 203.958 195.087C203.49 194.816 203.111 194.433 202.82 193.938C202.53 193.444 202.292 192.856 202.106 192.176C201.922 191.496 201.757 190.866 201.613 190.285L196.78 170.74C196.49 169.605 196.346 168.74 196.346 168.146C196.346 167.393 196.609 166.759 197.137 166.245C197.665 165.729 198.319 165.473 199.097 165.473C200.168 165.473 200.887 165.816 201.256 166.502C201.626 167.189 201.949 168.186 202.226 169.492L206.028 186.443L210.286 170.581C210.603 169.367 210.886 168.443 211.137 167.809C211.388 167.176 211.797 166.627 212.365 166.165C212.933 165.703 213.704 165.473 214.681 165.473C215.672 165.473 216.441 165.713 216.989 166.195C217.536 166.676 217.916 167.202 218.127 167.769C218.339 168.337 218.622 169.274 218.979 170.581L223.276 186.442L227.078 169.492C227.263 168.608 227.438 167.915 227.602 167.413C227.767 166.911 228.052 166.462 228.454 166.067C228.857 165.67 229.441 165.473 230.206 165.473C230.972 165.473 231.623 165.726 232.157 166.234C232.692 166.743 232.959 167.38 232.959 168.146C232.959 168.687 232.814 169.551 232.524 170.74L227.692 190.284C227.362 191.604 227.087 192.572 226.87 193.185C226.651 193.8 226.282 194.338 225.76 194.799C225.239 195.26 224.504 195.493 223.552 195.493C222.655 195.493 221.935 195.267 221.395 194.819C220.854 194.37 220.476 193.865 220.266 193.304C220.055 192.744 219.757 191.784 219.375 190.423Z" fill="#19161B"/>
<path d="M206.422 108.928C206.422 106.409 207.23 103.859 208.847 101.274C210.463 98.6893 212.822 96.5489 215.924 94.8525C219.025 93.1557 222.642 92.3075 226.779 92.3075C230.623 92.3075 234.016 93.0172 236.958 94.4345C239.899 95.8526 242.171 97.7809 243.777 100.22C245.379 102.658 246.182 105.309 246.182 108.172C246.182 110.426 245.724 112.399 244.809 114.096C243.894 115.792 242.808 117.256 241.55 118.49C240.291 119.722 238.031 121.797 234.77 124.712C233.869 125.533 233.148 126.256 232.604 126.879C232.059 127.502 231.655 128.072 231.391 128.588C231.125 129.106 230.92 129.622 230.775 130.14C230.63 130.656 230.409 131.564 230.119 132.863C229.615 135.62 228.038 136.997 225.387 136.997C224.008 136.997 222.85 136.547 221.908 135.647C220.966 134.745 220.495 133.406 220.495 131.631C220.495 129.404 220.842 127.475 221.53 125.846C222.218 124.216 223.133 122.783 224.272 121.551C225.414 120.319 226.95 118.854 228.887 117.158C230.582 115.673 231.809 114.553 232.563 113.798C233.318 113.042 233.955 112.201 234.47 111.274C234.989 110.346 235.248 109.339 235.248 108.252C235.248 106.131 234.457 104.342 232.881 102.884C231.304 101.426 229.27 100.697 226.779 100.697C223.861 100.697 221.717 101.433 220.337 102.903C218.959 104.375 217.793 106.542 216.838 109.404C215.937 112.4 214.227 113.897 211.709 113.897C210.225 113.897 208.973 113.374 207.952 112.327C206.931 111.28 206.422 110.147 206.422 108.928ZM225.824 152.504C224.208 152.504 222.795 151.981 221.59 150.934C220.384 149.887 219.78 148.421 219.78 146.54C219.78 144.87 220.364 143.465 221.53 142.325C222.695 141.187 224.128 140.616 225.825 140.616C227.495 140.616 228.9 141.187 230.039 142.325C231.178 143.465 231.748 144.87 231.748 146.54C231.748 148.396 231.151 149.854 229.959 150.914C228.766 151.975 227.388 152.504 225.824 152.504Z" fill="#19161B"/>
</svg>
