<svg width="24" height="25" viewBox="0 0 24 25" fill="none" xmlns="http://www.w3.org/2000/svg">
<path d="M11.867 2.67717C6.40639 2.67717 1.97461 7.10895 1.97461 12.5695C1.97461 18.0301 6.40639 22.4619 11.867 22.4619C17.3276 22.4619 21.7593 18.0301 21.7593 12.5695C21.7593 7.10895 17.3276 2.67717 11.867 2.67717ZM6.92079 13.3115H4.94232C4.53673 13.3115 4.20039 12.9751 4.20039 12.5695C4.20039 12.1639 4.53673 11.8276 4.94232 11.8276H6.92079C7.32638 11.8276 7.66272 12.1639 7.66272 12.5695C7.66272 12.9751 7.32638 13.3115 6.92079 13.3115ZM11.867 14.7953C10.6403 14.7953 9.64119 13.7962 9.64119 12.5695C9.64119 11.3429 10.6403 10.3437 11.867 10.3437C13.0936 10.3437 14.0928 11.3429 14.0928 12.5695C14.0928 13.7962 13.0936 14.7953 11.867 14.7953ZM18.7916 13.3115H16.8132C16.4076 13.3115 16.0712 12.9751 16.0712 12.5695C16.0712 12.1639 16.4076 11.8276 16.8132 11.8276H18.7916C19.1972 11.8276 19.5336 12.1639 19.5336 12.5695C19.5336 12.9751 19.1972 13.3115 18.7916 13.3115Z" fill="#2C3658"/>
</svg>
