<svg width="32" height="31" viewBox="0 0 32 31" fill="none" xmlns="http://www.w3.org/2000/svg">
<path d="M21.113 10.2485H10.8645V7.68639H21.113V10.2485ZM21.113 12.8106H10.8645V15.3728H21.113V12.8106ZM26.2372 5.12426V20.497L18.5509 28.1834H8.30236C7.62284 28.1834 6.97116 27.9135 6.49066 27.433C6.01017 26.9525 5.74023 26.3008 5.74023 25.6213V5.12426C5.74023 4.44474 6.01017 3.79305 6.49066 3.31256C6.97116 2.83207 7.62284 2.56213 8.30236 2.56213H23.6751C24.3546 2.56213 25.0063 2.83207 25.4868 3.31256C25.9673 3.79305 26.2372 4.44474 26.2372 5.12426ZM23.6751 17.9349V5.12426H8.30236V25.6213H15.9887V20.497C15.9887 19.8175 16.2587 19.1658 16.7392 18.6853C17.2197 18.2048 17.8713 17.9349 18.5509 17.9349H23.6751Z" fill="#8F9BB2"/>
</svg>
