<svg width="32" height="32" viewBox="0 0 32 32" fill="none" xmlns="http://www.w3.org/2000/svg">
<path fill-rule="evenodd" clip-rule="evenodd" d="M6.99993 21.4643C7.25567 21.4643 7.50094 21.5659 7.68178 21.7467C7.86262 21.9276 7.96422 22.1728 7.96422 22.4286V25C7.96422 25.1774 8.10822 25.3214 8.28564 25.3214H23.7142C23.7995 25.3214 23.8812 25.2876 23.9415 25.2273C24.0018 25.167 24.0356 25.0853 24.0356 25V22.4286C24.0356 22.1728 24.1372 21.9276 24.3181 21.7467C24.4989 21.5659 24.7442 21.4643 24.9999 21.4643C25.2557 21.4643 25.5009 21.5659 25.6818 21.7467C25.8626 21.9276 25.9642 22.1728 25.9642 22.4286V25C25.9642 25.5967 25.7272 26.169 25.3052 26.591C24.8832 27.013 24.311 27.25 23.7142 27.25H8.28564C7.68891 27.25 7.11661 27.013 6.69465 26.591C6.2727 26.169 6.03564 25.5967 6.03564 25V22.4286C6.03564 22.1728 6.13724 21.9276 6.31808 21.7467C6.49892 21.5659 6.74419 21.4643 6.99993 21.4643Z" fill="#0030AD"/>
<path d="M14.3786 5.39288C14.0595 5.39297 13.7521 5.51264 13.5169 5.72828C13.2817 5.94393 13.1359 6.23988 13.1083 6.55774C12.9104 8.81085 12.8752 11.0753 13.0029 13.3335C12.6853 13.3502 12.369 13.372 12.0514 13.3939L10.1357 13.534C9.967 13.5464 9.80438 13.6023 9.66378 13.6964C9.52317 13.7905 9.4094 13.9194 9.33359 14.0707C9.25778 14.2219 9.22253 14.3902 9.23129 14.5592C9.24005 14.7281 9.29252 14.8919 9.38357 15.0345C10.7489 17.1715 12.5081 19.0293 14.5676 20.509L15.3351 21.0606C15.5292 21.2 15.7622 21.275 16.0011 21.275C16.2401 21.275 16.473 21.2 16.6671 21.0606L17.4347 20.509C19.4942 19.0293 21.2534 17.1715 22.6187 15.0345C22.7098 14.8919 22.7622 14.7281 22.771 14.5592C22.7798 14.3902 22.7445 14.2219 22.6687 14.0707C22.5929 13.9194 22.4791 13.7905 22.3385 13.6964C22.1979 13.6023 22.0353 13.5464 21.8666 13.534L19.9509 13.3939C19.6339 13.371 19.3167 13.3508 18.9994 13.3335C19.1275 11.0753 19.0927 8.81088 18.8953 6.55774C18.8676 6.23966 18.7216 5.94352 18.4862 5.72785C18.2508 5.51217 17.943 5.39265 17.6237 5.39288H14.3786Z" fill="#0030AD"/>
</svg>
