<svg width="31" height="32" viewBox="0 0 31 32" fill="none" xmlns="http://www.w3.org/2000/svg">
<path d="M20.5583 30.5347H9.25703C7.19925 30.5347 5.53137 28.8665 5.53137 26.809V8.4165" stroke="#0030AD" stroke-width="1.5" stroke-miterlimit="10"/>
<path d="M3.02002 1.375H22.1233C24.1261 1.375 25.7497 2.99862 25.7497 5.00146V13.1607" stroke="#0030AD" stroke-width="1.5" stroke-miterlimit="10"/>
<path d="M5.51883 7.7829H0.75V3.75933C0.75 2.44241 1.81766 1.37476 3.13457 1.37476C4.45148 1.37476 5.51914 2.44241 5.51914 3.75933V7.7829H5.51883Z" stroke="#0030AD" stroke-width="1.5" stroke-miterlimit="10"/>
<path d="M30.0877 19.865L29.0163 21.4701L28.6386 23.3631L26.746 23.7404L25.1409 24.8119L23.5358 23.7404L21.6428 23.3631L21.2655 21.4701L20.1937 19.865L21.2655 18.2599L21.6428 16.367L23.5358 15.9896L25.1409 14.9182L26.746 15.9896L28.6386 16.367L29.0163 18.2599L30.0877 19.865Z" stroke="#0030AD" stroke-width="1.5" stroke-miterlimit="10"/>
<path d="M27.8728 23.2556V29.8376L25.1407 28.0071L22.4083 29.8376V23.2556" stroke="#0030AD" stroke-width="1.5" stroke-miterlimit="10"/>
<path d="M10.4989 6.87659H19.4903" stroke="#0030AD" stroke-width="1.5" stroke-miterlimit="10"/>
<path d="M10.4989 11.4963H19.4903" stroke="#0030AD" stroke-width="1.5" stroke-miterlimit="10"/>
<path d="M10.4989 16.0667H19.4903" stroke="#0030AD" stroke-width="1.5" stroke-miterlimit="10"/>
<path d="M10.4989 20.5374H16.46" stroke="#0030AD" stroke-width="1.5" stroke-miterlimit="10"/>
<path d="M10.4989 25.1077H16.46" stroke="#0030AD" stroke-width="1.5" stroke-miterlimit="10"/>
</svg>
