<svg width="64" height="63" viewBox="0 0 64 63" fill="none" xmlns="http://www.w3.org/2000/svg">
<path fill-rule="evenodd" clip-rule="evenodd" d="M26.1208 15.6051C27.3953 16.5523 28.336 16.5205 29.3977 16.5494L29.3968 16.5349C28.914 15.9703 29.2638 15.4773 28.5774 15.3549C23.2196 14.4066 25.944 12.3709 27.0252 10.5787L24.4517 11.9451L24.8983 13.4748C25.0909 14.248 25.2379 15.0326 26.1208 15.6051Z" fill="url(#paint0_linear_88_7202)"/>
<path fill-rule="evenodd" clip-rule="evenodd" d="M31.9334 13.678C32.1957 14.5266 31.0981 15.5858 29.3943 16.5582L28.6447 15.3826C29.9912 14.1276 30.1835 11.5908 30.1161 10.6595C30.0653 9.88647 31.0609 11.2037 30.5364 10.1855L31.9334 13.678Z" fill="url(#paint1_linear_88_7202)"/>
<path fill-rule="evenodd" clip-rule="evenodd" d="M31.9606 13.8001C30.5509 11.3972 23.4927 13.6959 26.2097 15.6613C25.1075 14.9803 24.5685 13.9369 24.3876 12.6605C23.885 9.88319 29.3163 8.07596 30.721 10.4444L31.9606 13.8001Z" fill="url(#paint2_linear_88_7202)"/>
<path fill-rule="evenodd" clip-rule="evenodd" d="M28.0066 12.9598C27.3148 11.7098 27.0891 10.6272 26.9626 9.58075C26.0887 9.85763 25.2836 10.3635 24.8055 11.009L24.7083 11.1509L25.9156 14.0177L26.0561 13.8732C26.5001 13.4788 27.219 13.1533 28.0066 12.9598Z" fill="url(#paint3_linear_88_7202)"/>
<path fill-rule="evenodd" clip-rule="evenodd" d="M31.9476 13.6368C30.6212 11.4171 23.682 13.3337 25.9352 15.4847C25.9408 15.4815 26.115 15.6085 26.1262 15.6021C26.1373 15.5956 25.9596 15.4557 25.9696 15.4536C23.7836 13.3609 30.6117 11.5234 31.8867 13.6607L31.9409 13.7675L31.9476 13.6368Z" fill="url(#paint4_linear_88_7202)"/>
<path fill-rule="evenodd" clip-rule="evenodd" d="M31.9755 13.7101C30.6492 11.4905 23.7475 13.3816 25.9935 15.533C26.0047 15.5265 26.1744 15.6525 26.1856 15.646C26.194 15.6412 26.0234 15.5008 26.029 15.4976C23.8414 13.402 30.6324 11.5971 31.9102 13.7328L31.9656 13.8353L31.9755 13.7101Z" fill="url(#paint5_linear_88_7202)"/>
<path fill-rule="evenodd" clip-rule="evenodd" d="M29.393 16.5582L28.6434 15.3826C28.9863 15.0652 29.1644 14.8243 29.3769 14.3844L30.5745 15.7865L29.393 16.5582Z" fill="url(#paint6_linear_88_7202)"/>
<path fill-rule="evenodd" clip-rule="evenodd" d="M31.1983 14.1775C31.8396 15.5985 32.5846 15.9969 33.3998 16.504L33.4033 16.4907C33.2369 15.7695 33.6851 15.4922 33.1966 15.0726C29.377 11.7921 32.2442 11.2189 33.7478 10.1195L31.2414 10.1671L31.0227 11.7339C30.8966 12.5045 30.7164 13.2653 31.1983 14.1775Z" fill="url(#paint7_linear_88_7202)"/>
<path fill-rule="evenodd" clip-rule="evenodd" d="M36.4238 15.1041C36.3183 15.9748 35.0784 16.4257 33.3923 16.511L33.2383 15.1259C34.7485 14.6197 35.8372 12.4462 36.126 11.589C36.3629 10.8813 36.656 12.5071 36.622 11.3624L36.4238 15.1041Z" fill="url(#paint8_linear_88_7202)"/>
<path fill-rule="evenodd" clip-rule="evenodd" d="M36.3993 15.2269C36.1889 12.445 29.8497 11.2835 31.2435 14.2665C30.6341 13.1593 30.6028 11.9869 30.9277 10.7656C31.5563 8.06662 36.4442 8.93156 36.6681 11.6721L36.3993 15.2269Z" fill="url(#paint9_linear_88_7202)"/>
<path fill-rule="evenodd" clip-rule="evenodd" d="M33.6342 12.6813C33.5585 11.2509 33.7815 10.1893 34.0609 9.19952C33.2773 9.05108 32.4672 9.13445 31.8586 9.48952L31.7319 9.57383L31.6139 12.6723L31.7767 12.6118C32.2727 12.456 32.9511 12.4935 33.6342 12.6813Z" fill="url(#paint10_linear_88_7202)"/>
<path fill-rule="evenodd" clip-rule="evenodd" d="M36.4533 15.0722C36.2378 12.4948 30.1323 11.0528 31.093 13.9836C31.1002 13.9832 31.1912 14.1732 31.1968 14.17C31.2056 14.1723 31.1225 13.9703 31.1298 13.9699C30.1967 11.1127 36.1881 12.5832 36.3947 15.0612L36.3989 15.1782L36.4533 15.0722Z" fill="url(#paint11_linear_88_7202)"/>
<path fill-rule="evenodd" clip-rule="evenodd" d="M36.4497 15.1502C36.237 12.5712 30.1683 11.1154 31.1278 14.0507C31.1378 14.0486 31.226 14.2403 31.2377 14.241L31.1662 14.0397C30.2331 11.1825 36.1861 12.664 36.3899 15.1436L36.3941 15.2607L36.4497 15.1502Z" fill="url(#paint12_linear_88_7202)"/>
<path fill-rule="evenodd" clip-rule="evenodd" d="M33.3928 16.511L33.2387 15.1259C33.6246 14.9927 33.8557 14.863 34.1811 14.5669L34.5971 16.3605L33.3928 16.511Z" fill="url(#paint13_linear_88_7202)"/>
<g opacity="0.53">
<path opacity="0.05" fill-rule="evenodd" clip-rule="evenodd" d="M50.8623 42.9147C52.2403 42.593 52.2909 41.9891 51.6645 42.8433L36.2454 53.2121C35.6699 53.3205 36.3325 53.6731 36.2559 52.9523L50.8623 42.9147Z" fill="black"/>
<path opacity="0.05" fill-rule="evenodd" clip-rule="evenodd" d="M51.7949 42.8428C52.2944 42.1178 52.1943 42.6942 50.9106 43.0174L36.2833 53.0448C36.2834 53.6978 35.6692 53.3321 36.1695 53.1515L49.7557 44.0163C50.5238 43.5691 51.2615 43.147 51.7949 42.8428Z" fill="black"/>
<path opacity="0.05" fill-rule="evenodd" clip-rule="evenodd" d="M51.9208 42.8448C52.2978 42.2503 52.1451 42.7937 50.9588 43.1241L36.3078 53.1428C36.2343 53.7263 35.6585 53.3497 36.0919 53.092L49.876 43.8276C50.7364 43.3981 51.5403 42.9936 51.9208 42.8448Z" fill="black"/>
<path opacity="0.05" fill-rule="evenodd" clip-rule="evenodd" d="M52.0474 42.842C52.2991 42.3795 52.0985 42.8983 51.0116 43.2199L36.3386 53.2326C36.1841 53.7472 35.6596 53.3559 36.0149 53.0276L50.0081 43.6276C50.9519 43.2133 51.8201 42.8426 52.0474 42.842Z" fill="black"/>
<path opacity="0.05" fill-rule="evenodd" clip-rule="evenodd" d="M52.1771 42.8419C52.3052 42.5142 52.0504 42.9972 51.0609 43.3259L36.3669 53.3283C36.1432 53.7747 35.6612 53.3663 35.9456 52.967L50.1394 43.4363C51.169 43.0284 52.0927 42.6892 52.1771 42.8419Z" fill="black"/>
<path opacity="0.05" fill-rule="evenodd" clip-rule="evenodd" d="M52.2988 42.8356C52.3031 42.6427 52.0033 43.0995 51.1125 43.4309L36.3916 53.419C36.089 53.8064 35.6566 53.3806 35.8642 52.9063L50.263 43.2459C51.3833 42.8529 52.3764 42.537 52.2988 42.8356Z" fill="black"/>
<path opacity="0.05" fill-rule="evenodd" clip-rule="evenodd" d="M52.4335 42.8399C52.3125 42.7791 51.9584 43.2 51.1646 43.5314L36.4272 53.5104C36.0422 53.826 35.657 53.3915 35.7965 52.8445L50.3944 43.0506C51.6009 42.6712 52.6535 42.3807 52.4335 42.8399Z" fill="black"/>
<path opacity="0.05" fill-rule="evenodd" clip-rule="evenodd" d="M52.5598 42.8309C52.3108 42.9038 51.9089 43.3 51.2137 43.6342L36.4554 53.6028C35.9984 53.8518 35.6556 53.4004 35.7198 52.7811L50.5256 42.856C51.8195 42.4858 52.9291 42.2296 52.5598 42.8309Z" fill="black"/>
<path opacity="0.05" fill-rule="evenodd" clip-rule="evenodd" d="M52.684 42.8328C52.3085 43.0421 51.8595 43.4021 51.263 43.739L36.481 53.699C35.9446 53.8818 35.6443 53.4133 35.6388 52.7186L50.6464 42.6583C52.0315 42.3102 53.2045 42.0733 52.684 42.8328Z" fill="black"/>
<path opacity="0.05" fill-rule="evenodd" clip-rule="evenodd" d="M50.7742 42.4695C52.2467 42.1306 53.4864 41.9187 52.8159 42.8321L36.5082 53.7885C35.8982 53.9018 35.6451 53.4247 35.5644 52.6578L50.7742 42.4695Z" fill="black"/>
<path opacity="0.05" fill-rule="evenodd" clip-rule="evenodd" d="M16.5326 48.0539C14.9917 48.242 14.7148 47.6331 15.6822 48.2874L35.4355 53.2467C36.0692 53.1421 35.5168 53.7558 35.3297 52.9794L16.5326 48.0539Z" fill="black"/>
<path opacity="0.05" fill-rule="evenodd" clip-rule="evenodd" d="M15.5455 48.3331C14.7562 47.7738 15.0765 48.3352 16.5198 48.1849L35.33 53.0879C35.5792 53.765 36.0755 53.1575 35.4891 53.1565L18.0794 48.7921C17.1278 48.6175 16.2043 48.4529 15.5455 48.3331Z" fill="black"/>
<path opacity="0.05" fill-rule="evenodd" clip-rule="evenodd" d="M15.4157 48.3814C14.8039 47.9099 15.1634 48.4226 16.5046 48.3088L35.3384 53.1945C35.6397 53.7744 36.0779 53.1631 35.5463 53.0633L17.8794 48.6346C16.837 48.5162 15.8612 48.3967 15.4157 48.3814Z" fill="black"/>
<path opacity="0.05" fill-rule="evenodd" clip-rule="evenodd" d="M15.2856 48.4237C14.8546 48.0456 15.2543 48.5052 16.4939 48.4351L35.3469 53.3023C35.6942 53.781 36.0891 53.1723 35.6003 52.9656L17.6795 48.4784C16.5527 48.4012 15.5254 48.3413 15.2856 48.4237Z" fill="black"/>
<path opacity="0.05" fill-rule="evenodd" clip-rule="evenodd" d="M15.1566 48.4754C14.9016 48.1823 15.3419 48.596 16.4822 48.5609L35.3556 53.4051C35.7549 53.7865 36.0994 53.1809 35.6567 52.873L17.4729 48.3248C16.2622 48.2961 15.177 48.2845 15.1566 48.4754Z" fill="black"/>
<path opacity="0.05" fill-rule="evenodd" clip-rule="evenodd" d="M15.0266 48.5167C14.9495 48.3186 15.4286 48.6765 16.4728 48.6819L35.3598 53.5107C35.82 53.7973 36.1079 53.1907 35.7141 52.78L17.2719 48.172C15.9728 48.1906 14.8357 48.2313 15.0266 48.5167Z" fill="black"/>
<path opacity="0.05" fill-rule="evenodd" clip-rule="evenodd" d="M14.886 48.5717C14.9922 48.4582 15.5119 48.7701 16.4513 48.8136L35.3585 53.6196C35.8764 53.8057 36.1083 53.2054 35.7616 52.689L17.0627 48.0241C15.6836 48.0851 14.4902 48.177 14.886 48.5717Z" fill="black"/>
<path opacity="0.05" fill-rule="evenodd" clip-rule="evenodd" d="M14.7566 48.6169C15.0391 48.5956 15.6007 48.8573 16.4397 48.9401L35.3661 53.7276C35.9345 53.8136 36.1158 53.2163 35.8168 52.6015L16.8618 47.8679C15.3927 47.9735 14.1451 48.1266 14.7566 48.6169Z" fill="black"/>
<path opacity="0.05" fill-rule="evenodd" clip-rule="evenodd" d="M14.624 48.6666C15.084 48.7331 15.6875 48.9445 16.426 49.0667L35.3744 53.8339C35.9937 53.8271 36.1213 53.2273 35.8695 52.5068L16.6577 47.7163C15.1002 47.8691 13.8047 48.0685 14.624 48.6666Z" fill="black"/>
<path opacity="0.05" fill-rule="evenodd" clip-rule="evenodd" d="M16.4572 47.5605C14.8157 47.7618 13.4627 48.0167 14.4949 48.712L35.3834 53.9377C36.0532 53.8308 36.1319 53.2368 35.9262 52.4152L16.4572 47.5605Z" fill="black"/>
</g>
<path fill-rule="evenodd" clip-rule="evenodd" d="M50.5923 22.6991L33.4631 32.4394L35.744 53.4088L52.3639 42.4698L50.5923 22.6991Z" fill="url(#paint14_linear_88_7202)"/>
<path opacity="0.4" fill-rule="evenodd" clip-rule="evenodd" d="M35.749 53.4127L35.7342 53.2384L52.3133 42.3902L52.3867 42.5045L35.749 53.4127Z" fill="#9C877D"/>
<path fill-rule="evenodd" clip-rule="evenodd" d="M12.5063 28.4848L33.5638 32.4262L35.753 53.4112L15.058 48.1783L12.5063 28.4848Z" fill="url(#paint15_linear_88_7202)"/>
<path opacity="0.4" fill-rule="evenodd" clip-rule="evenodd" d="M35.7518 53.4115L15.0477 48.1951L15.0298 48.0412L35.737 53.2372L35.7518 53.4115Z" fill="#9C877D"/>
<path opacity="0.35" fill-rule="evenodd" clip-rule="evenodd" d="M33.8001 35.5924L50.3206 25.5281C50.4061 25.4824 50.478 25.426 50.5351 25.3632L50.623 25.2117L50.4745 23.3644L33.5621 33.2668L33.8001 35.5924Z" fill="url(#paint16_linear_88_7202)"/>
<path fill-rule="evenodd" clip-rule="evenodd" d="M50.6164 16.2104L32.6613 24.5653L33.6981 34.5053L51.0862 24.1342C51.3247 24.0301 51.4126 23.8076 51.3583 23.4807L50.6164 16.2104Z" fill="url(#paint17_linear_88_7202)"/>
<path opacity="0.17" fill-rule="evenodd" clip-rule="evenodd" d="M33.8468 35.5874L13.2332 31.3487C13.1254 31.3364 13.0338 31.3071 12.9603 31.2637L12.8259 31.1473L12.5856 29.3156L33.6016 33.2623L33.8468 35.5874Z" fill="url(#paint18_linear_88_7202)"/>
<path fill-rule="evenodd" clip-rule="evenodd" d="M10.9923 21.5104L32.7691 24.5514L33.8047 34.4958L12.6818 30.2862C12.2626 30.2259 12.0773 29.9373 12.0397 29.5038L10.9923 21.5104Z" fill="url(#paint19_linear_88_7202)"/>
<path opacity="0.67" fill-rule="evenodd" clip-rule="evenodd" d="M11.9188 28.2678L33.632 32.7822L33.8088 34.4975L12.692 30.318C12.2704 30.2666 12.0846 29.9447 12.038 29.4566L11.9188 28.2678Z" fill="url(#paint20_linear_88_7202)"/>
<path fill-rule="evenodd" clip-rule="evenodd" d="M33.7888 34.4268C33.7359 34.4387 33.6898 34.4428 33.6373 34.4359L33.4792 34.4077L12.5613 30.2365L12.5805 30.147L33.4973 34.3226C33.5932 34.3531 33.6786 34.3523 33.7715 34.3323L34.0336 34.2369L51.0588 24.0902L51.1085 24.1698L34.0821 34.3209C33.9865 34.3686 33.8933 34.4075 33.7888 34.4268Z" fill="url(#paint21_linear_88_7202)"/>
<path fill-rule="evenodd" clip-rule="evenodd" d="M11.0312 21.5894L32.9588 25.5509L50.6759 16.2213L29.4016 13.6627L11.0312 21.5894Z" fill="url(#paint22_linear_88_7202)"/>
<path opacity="0.26" fill-rule="evenodd" clip-rule="evenodd" d="M51.2513 22.019L33.2684 32.685L33.4492 34.3944L50.9789 24.2362C51.3349 24.0642 51.4371 23.6918 51.3821 23.2086L51.2513 22.019Z" fill="url(#paint23_linear_88_7202)"/>
<path fill-rule="evenodd" clip-rule="evenodd" d="M50.9384 24.2342C51.3162 24.087 51.4588 23.8106 51.4219 23.4363L51.4148 23.3658L50.7334 16.2844L50.6425 16.2884L51.3238 23.3699C51.3801 23.7516 51.2558 24.0212 50.8992 24.1598L50.9384 24.2342Z" fill="url(#paint24_linear_88_7202)"/>
<path opacity="0.35" fill-rule="evenodd" clip-rule="evenodd" d="M40.8369 30.3718L42.5058 40.8573L41.6389 29.8154L40.8369 30.3718Z" fill="#9C877D"/>
<path fill-rule="evenodd" clip-rule="evenodd" d="M40.4349 21.7943L43.1786 48.1091C43.2378 48.2764 43.223 48.4641 43.156 48.529L47.7455 45.5807C47.8355 45.5362 47.9482 45.3629 47.9194 45.0996L45.2156 19.1835C45.194 19.0878 45.165 18.9925 45.045 18.9461L40.2651 21.6424C40.351 21.6748 40.4265 21.7022 40.4349 21.7943Z" fill="url(#paint25_linear_88_7202)"/>
<path fill-rule="evenodd" clip-rule="evenodd" d="M43.1586 48.5301C43.2241 48.4624 43.2389 48.2748 43.1812 48.1103L42.5213 41.7704L47.5173 41.2518L47.9209 45.1051C47.9481 45.3656 47.8398 45.54 47.747 45.5861L43.1586 48.5301Z" fill="url(#paint26_linear_88_7202)"/>
<path fill-rule="evenodd" clip-rule="evenodd" d="M47.2036 38.4959L46.0592 27.5358L41.2014 29.3665L42.4078 40.9513L47.2036 38.4959Z" fill="url(#paint27_linear_88_7202)"/>
<path fill-rule="evenodd" clip-rule="evenodd" d="M47.3503 39.8822L46.7817 34.4374L41.921 36.2698L42.5557 42.3332L47.3503 39.8822Z" fill="url(#paint28_linear_88_7202)"/>
<path opacity="0.5" fill-rule="evenodd" clip-rule="evenodd" d="M43.1883 48.5504L43.0925 48.449C43.1009 48.4441 43.1044 48.4309 43.1131 48.4072C43.1186 48.3779 43.1237 48.3414 43.1259 48.3065C43.134 48.2235 43.1219 48.1185 43.1122 48.0047L40.3768 21.8531L40.3779 21.8226C40.3843 21.8077 40.3866 21.7989 40.3834 21.7933C40.3834 21.7933 40.3813 21.7833 40.3753 21.7793C40.3656 21.7625 40.3343 21.747 40.2713 21.7348L40.3052 21.5996C40.3698 21.6146 40.4348 21.6367 40.4823 21.6802C40.5057 21.7078 40.5174 21.7345 40.524 21.7718C40.5269 21.7962 40.527 21.8223 40.5183 21.846L40.522 21.8588L43.252 47.9949C43.2629 48.1043 43.2726 48.2181 43.2666 48.3111C43.2602 48.397 43.2474 48.4976 43.1883 48.5504Z" fill="#035412"/>
<path opacity="0.35" fill-rule="evenodd" clip-rule="evenodd" d="M40.8718 30.4494L40.8309 25.4015L41.3104 30.0133L40.8718 30.4494Z" fill="#9C877D"/>
<path fill-rule="evenodd" clip-rule="evenodd" d="M47.7669 45.6227L47.7272 45.5411C47.7608 45.5217 47.8059 45.477 47.8348 45.4043C47.865 45.3272 47.8838 45.2306 47.872 45.1068L45.1683 19.1906L45.1718 19.1773C45.1592 19.1361 45.147 19.1021 45.1265 19.0729C45.1043 19.041 45.0809 19.0134 45.0263 18.9964L45.0571 18.9077C45.1282 18.9338 45.1757 18.9773 45.206 19.0233C45.2351 19.0736 45.2469 19.1265 45.2584 19.1722L45.2588 19.1794L47.9625 45.0955C47.9752 45.2337 47.9533 45.3509 47.9196 45.4412C47.8815 45.5304 47.8245 45.5932 47.7669 45.6227Z" fill="#C9FF59"/>
<path opacity="0.35" fill-rule="evenodd" clip-rule="evenodd" d="M25.4656 32.6339L26.0571 43.5735L24.6199 32.3907L25.4656 32.6339Z" fill="#9C877D"/>
<path fill-rule="evenodd" clip-rule="evenodd" d="M24.1186 24.0709L26.9245 50.9655C26.9081 51.1504 26.9582 51.3341 27.0346 51.3759L22.002 50.0795C21.9101 50.069 21.7632 49.9374 21.7384 49.6681L18.9756 23.1778C18.9811 23.0776 18.9878 22.973 19.0985 22.8867L24.2584 23.8671C24.176 23.9183 24.1085 23.9759 24.1186 24.0709Z" fill="url(#paint29_linear_88_7202)"/>
<path fill-rule="evenodd" clip-rule="evenodd" d="M27.0318 51.3738C26.9554 51.3321 26.9053 51.1483 26.9217 50.9634L25.8165 40.3427C23.7608 40.4212 22.1449 40.8541 20.8915 41.5852L21.734 49.6633C21.7616 49.9309 21.9073 50.067 21.9976 50.0746L27.0318 51.3738Z" fill="url(#paint30_linear_88_7202)"/>
<path fill-rule="evenodd" clip-rule="evenodd" d="M20.8581 41.2462L19.7166 30.2845L24.8531 31.0694L26.0612 42.6569L20.8581 41.2462Z" fill="url(#paint31_linear_88_7202)"/>
<path fill-rule="evenodd" clip-rule="evenodd" d="M21.0021 42.6297L20.4351 37.1878L25.5716 37.9726L26.2052 44.0405L21.0021 42.6297Z" fill="url(#paint32_linear_88_7202)"/>
<path opacity="0.5" fill-rule="evenodd" clip-rule="evenodd" d="M27.006 51.4036L27.0776 51.269C27.0776 51.269 27.0623 51.2554 27.0466 51.2347C27.0336 51.2123 27.0259 51.1795 27.0149 51.141C26.9985 51.0609 26.982 50.9547 26.9706 50.8381L24.1875 24.1058L24.1785 24.0774C24.1704 24.0634 24.1679 24.0462 24.1679 24.0462C24.1679 24.0462 24.1731 24.0357 24.1727 24.0285C24.1818 24.012 24.2089 23.9814 24.2593 23.9524L24.2043 23.8311C24.1427 23.8667 24.0864 23.9179 24.0566 23.9761C24.0367 24.0063 24.0316 24.0428 24.0322 24.076C24.0323 24.1021 24.0397 24.1277 24.0498 24.1517L24.0546 24.1601L26.8341 50.8796C26.8422 50.9906 26.8592 51.104 26.8836 51.1981C26.9028 51.2766 26.9389 51.3715 27.006 51.4036Z" fill="#035412"/>
<path opacity="0.35" fill-rule="evenodd" clip-rule="evenodd" d="M25.4575 32.7243L24.4697 27.7492L24.9625 32.4615L25.4575 32.7243Z" fill="#9C877D"/>
<path fill-rule="evenodd" clip-rule="evenodd" d="M18.9805 22.9101L35.4139 14.4597L40.629 14.9605L24.2582 23.9008L18.9805 22.9101Z" fill="url(#paint33_linear_88_7202)"/>
<path fill-rule="evenodd" clip-rule="evenodd" d="M18.9415 23.0302C18.9723 22.9154 19.0825 22.8219 19.2867 22.7749L24.5999 23.7041C24.4527 23.7853 24.3389 23.866 24.2631 23.9545L18.9415 23.0302Z" fill="url(#paint34_linear_88_7202)"/>
<path fill-rule="evenodd" clip-rule="evenodd" d="M18.9373 23.1995C18.9177 23.1138 18.9262 23.038 18.9639 22.9676L24.2945 23.9204C24.2094 23.9993 24.1609 24.0833 24.1549 24.1764L18.9427 23.3121L18.9373 23.1995Z" fill="url(#paint35_linear_88_7202)"/>
<path opacity="0.35" fill-rule="evenodd" clip-rule="evenodd" d="M24.1965 24.2385L24.0606 24.2423C24.0575 23.9978 24.2012 23.8589 24.3747 23.7587L24.5503 23.6685L40.4846 14.9614L40.4931 14.9566C40.5811 14.9281 40.6761 14.9181 40.7405 14.9779L40.6484 15.0833C40.6451 15.0777 40.6303 15.0714 40.5902 15.0796L40.5418 15.0926L24.6186 23.7933L24.6101 23.7982C24.3645 23.9027 24.1947 24.0157 24.1965 24.2385Z" fill="#035412"/>
<path fill-rule="evenodd" clip-rule="evenodd" d="M45.0774 18.7324L24.2276 15.9138L19.5508 17.916L40.249 21.4417L45.0774 18.7324Z" fill="url(#paint36_linear_88_7202)"/>
<path fill-rule="evenodd" clip-rule="evenodd" d="M45.1531 18.831C45.1005 18.727 44.9761 18.6794 44.7689 18.702L39.8887 21.3666C40.0423 21.3936 40.1736 21.4335 40.2652 21.4888L45.1531 18.831Z" fill="url(#paint37_linear_88_7202)"/>
<path fill-rule="evenodd" clip-rule="evenodd" d="M45.1849 18.9911C45.1841 18.9057 45.1621 18.8288 45.1114 18.7797L40.2168 21.4713C40.3108 21.5178 40.3757 21.5848 40.4025 21.6701L45.1974 19.1033L45.1849 18.9911Z" fill="url(#paint38_linear_88_7202)"/>
<path opacity="0.06" fill-rule="evenodd" clip-rule="evenodd" d="M31.0222 20.1931C32.2927 20.0604 33.3026 19.7348 33.2773 19.4583C33.2476 19.1806 32.1913 19.0703 30.9163 19.2018C29.6486 19.333 28.6331 19.6618 28.6628 19.9394C28.6936 20.2127 29.7488 20.3275 31.0222 20.1931Z" fill="black"/>
<path opacity="0.06" fill-rule="evenodd" clip-rule="evenodd" d="M28.0608 20.0037C28.096 20.3491 29.4267 20.4951 31.0382 20.326C32.6469 20.1585 33.9234 19.7387 33.8882 19.3934C33.8514 19.0452 32.5151 18.9024 30.9064 19.0699C29.2976 19.2374 28.0223 19.6527 28.0608 20.0037Z" fill="black"/>
<path opacity="0.06" fill-rule="evenodd" clip-rule="evenodd" d="M27.4499 20.0657C27.4911 20.4861 29.1045 20.6629 31.0526 20.4562C32.9967 20.2555 34.5402 19.7488 34.4962 19.3301C34.4535 18.907 32.8416 18.7329 30.8947 18.9352C28.9422 19.1407 27.4016 19.6459 27.4499 20.0657Z" fill="black"/>
<path opacity="0.06" fill-rule="evenodd" clip-rule="evenodd" d="M26.8382 20.1312C26.8892 20.6204 28.781 20.8268 31.0633 20.5914C33.3439 20.3531 35.1544 19.7594 35.1017 19.2674C35.0462 18.777 33.16 18.5673 30.8766 18.8072C28.5915 19.0443 26.7883 19.6375 26.8382 20.1312Z" fill="black"/>
<path opacity="0.06" fill-rule="evenodd" clip-rule="evenodd" d="M26.2282 20.1918C26.2881 20.7544 28.4626 20.9916 31.0742 20.719C33.693 20.446 35.7677 19.7669 35.7079 19.2043C35.6492 18.6374 33.4763 18.403 30.8603 18.6744C28.2486 18.947 26.174 19.626 26.2282 20.1918Z" fill="black"/>
<path opacity="0.06" fill-rule="evenodd" clip-rule="evenodd" d="M25.622 20.255C25.6878 20.8925 28.1407 21.1593 31.0904 20.852C34.043 20.543 36.3874 19.7753 36.3217 19.1379C36.2543 18.4976 33.803 18.2335 30.8504 18.5424C27.8979 18.8514 25.5562 19.6175 25.622 20.255Z" fill="black"/>
<path opacity="0.06" fill-rule="evenodd" clip-rule="evenodd" d="M25.0144 20.3184C25.0873 21.0264 27.8141 21.3217 31.1037 20.9823C34.3944 20.6386 37.0031 19.7856 36.9257 19.0764C36.8512 18.3656 34.1228 18.0675 30.8321 18.4112C27.5469 18.7517 24.9355 19.6064 25.0144 20.3184Z" fill="black"/>
<path opacity="0.06" fill-rule="evenodd" clip-rule="evenodd" d="M24.4053 20.3832C24.4825 21.1633 27.4893 21.4911 31.1166 21.1097C34.7427 20.7328 37.6183 19.7928 37.5339 19.0131C37.4534 18.2274 34.4467 17.8997 30.8178 18.2782C27.1949 18.6607 24.322 19.5991 24.4053 20.3832Z" fill="black"/>
<path opacity="0.06" fill-rule="evenodd" clip-rule="evenodd" d="M23.7954 20.4469C23.8858 21.3016 27.1709 21.659 31.1307 21.2461C35.0906 20.8332 38.2332 19.8062 38.1428 18.9516C38.0524 18.097 34.7674 17.7396 30.8075 18.1525C26.846 18.5625 23.705 19.5923 23.7954 20.4469Z" fill="black"/>
<path opacity="0.06" fill-rule="evenodd" clip-rule="evenodd" d="M23.1838 20.5093C23.283 21.4372 26.8536 21.8238 31.1444 21.3766C35.4425 20.9289 38.8505 19.8122 38.7513 18.8842C38.6566 17.9575 35.0916 17.5677 30.7935 18.0153C26.4971 18.4658 23.0891 19.5825 23.1838 20.5093Z" fill="black"/>
<path opacity="0.06" fill-rule="evenodd" clip-rule="evenodd" d="M22.5738 20.5741C22.6772 21.5742 26.5206 21.9937 31.1552 21.5084C35.7898 21.0232 39.4663 19.8223 39.3629 18.8222C39.2566 17.8237 35.4145 17.3998 30.7771 17.8867C26.148 18.3687 22.4703 19.574 22.5738 20.5741Z" fill="black"/>
<path opacity="0.06" fill-rule="evenodd" clip-rule="evenodd" d="M21.971 20.6386C22.0815 21.7093 26.2076 22.1595 31.1732 21.6399C36.1432 21.1215 40.0851 19.8308 39.9717 18.7618C39.8595 17.6884 35.7379 17.2394 30.7679 17.7578C25.7979 18.2762 21.8587 19.5652 21.971 20.6386Z" fill="black"/>
<path opacity="0.06" fill-rule="evenodd" clip-rule="evenodd" d="M21.3581 20.7007C21.4747 21.8462 25.8819 22.3245 31.1873 21.7729C36.491 21.2186 40.7027 19.8393 40.5806 18.697C40.4625 17.5487 36.0581 17.0688 30.7515 17.6248C25.4462 18.1763 21.2416 19.5551 21.3581 20.7007Z" fill="black"/>
<path opacity="0.06" fill-rule="evenodd" clip-rule="evenodd" d="M20.7508 20.7644C20.8773 21.9788 25.5572 22.4899 31.1992 21.9008C36.8383 21.3133 41.317 19.847 41.1933 18.631C41.0652 17.4137 36.3781 16.903 30.7389 17.4906C25.0986 18.0825 20.6227 19.5471 20.7508 20.7644Z" fill="black"/>
<path opacity="0.06" fill-rule="evenodd" clip-rule="evenodd" d="M20.1401 20.8295C20.2754 22.1173 25.238 22.6592 31.2137 22.0341C37.1938 21.4102 41.9323 19.8574 41.8015 18.5708C41.6647 17.2803 36.7092 16.7379 30.7263 17.3634C24.749 17.9857 20.0061 19.5373 20.1401 20.8295Z" fill="black"/>
<path opacity="0.06" fill-rule="evenodd" clip-rule="evenodd" d="M19.5323 20.8932C19.6791 22.2527 24.9145 22.8275 31.2255 22.1692C37.5394 21.5093 42.5493 19.8707 42.4081 18.508C42.2642 17.1469 37.0232 16.5754 30.7093 17.2353C24.3966 17.8907 19.3884 19.5321 19.5323 20.8932Z" fill="black"/>
<path opacity="0.06" fill-rule="evenodd" clip-rule="evenodd" d="M30.7005 17.0987C37.3497 16.4057 42.8647 17.0057 43.0174 18.4401C43.1645 19.8777 37.892 21.6045 31.2384 22.2963C24.5935 22.9905 19.0742 22.3894 18.9243 20.9533C18.7744 19.5173 24.0513 17.7918 30.7005 17.0987Z" fill="black"/>
<path opacity="0.35" fill-rule="evenodd" clip-rule="evenodd" d="M40.3717 21.748L40.5066 21.7037C40.4618 21.4646 40.2931 21.3791 40.103 21.3471L39.9148 21.3251L19.69 17.8695L19.6783 17.8688C19.5873 17.8728 19.4933 17.8973 19.4443 17.974L19.5556 18.0441C19.558 18.0353 19.5732 18.0228 19.6149 18.0174L19.6565 18.012L39.871 21.4624L39.877 21.4664C40.1472 21.482 40.331 21.5289 40.3717 21.748Z" fill="#035412"/>
<path fill-rule="evenodd" clip-rule="evenodd" d="M25.8281 19.207C27.4559 18.9949 27.9008 18.35 28.4766 17.6667L28.4573 17.6592C27.6324 17.5943 27.3069 17.0434 26.8339 17.4135C23.104 20.3319 22.4056 17.1638 21.1208 15.2486L21.2075 17.8743L23.0145 18.5998C23.905 18.9851 24.7864 19.4128 25.8281 19.207Z" fill="url(#paint39_linear_88_7202)"/>
<path fill-rule="evenodd" clip-rule="evenodd" d="M26.8277 14.0701C27.8316 14.4645 28.3647 15.892 28.4938 17.6797L26.8982 17.3917C26.2932 15.6587 23.7829 13.8316 22.787 13.2571C21.9647 12.7766 23.8341 12.9959 22.5154 12.6639L26.8277 14.0701Z" fill="url(#paint40_linear_88_7202)"/>
<path fill-rule="evenodd" clip-rule="evenodd" d="M26.9685 14.1306C23.7691 13.4626 22.516 19.6756 25.9372 19.1893C24.6709 19.4651 23.3185 19.1264 21.909 18.3915C18.7943 16.8684 19.7221 12.0636 22.8698 12.713L26.9685 14.1306Z" fill="url(#paint41_linear_88_7202)"/>
<path fill-rule="evenodd" clip-rule="evenodd" d="M24.1179 16.1257L20.0905 14.5923L20.1132 14.4896C20.2481 13.9863 20.503 13.5294 20.8739 13.1958C22.338 13.6828 23.9062 14.0462 25.5526 14.3123L25.4122 14.3858C24.8225 14.7412 24.3812 15.3729 24.1373 16.0623L24.1179 16.1257Z" fill="url(#paint42_linear_88_7202)"/>
<path fill-rule="evenodd" clip-rule="evenodd" d="M26.7927 14.0307C23.8244 13.427 22.2471 19.3047 25.6105 19.2548C25.6085 19.2448 25.8296 19.2141 25.832 19.2053C25.8316 19.1981 25.5967 19.218 25.5991 19.2092C22.3227 19.2611 23.9262 13.5063 26.7845 14.0877L26.9214 14.1244L26.7927 14.0307Z" fill="url(#paint43_linear_88_7202)"/>
<path fill-rule="evenodd" clip-rule="evenodd" d="M26.8788 14.0624C23.9105 13.4587 22.319 19.2923 25.6896 19.242C25.6904 19.2304 25.9031 19.2046 25.9011 19.1946C25.9006 19.1874 25.6702 19.2084 25.6698 19.2012C22.3889 19.2519 24.0127 13.5452 26.865 14.1226L27.003 14.1548L26.8788 14.0624Z" fill="url(#paint44_linear_88_7202)"/>
<path fill-rule="evenodd" clip-rule="evenodd" d="M27.158 18.8454L25.973 18.0145C26.2412 17.8521 26.5234 17.6556 26.8318 17.4142C27.3865 17.3215 27.6674 17.5624 28.4552 17.6599L28.4744 17.6674C28.1044 18.1124 27.784 18.54 27.158 18.8454Z" fill="url(#paint45_linear_88_7202)"/>
<path fill-rule="evenodd" clip-rule="evenodd" d="M28.4917 17.6799L26.8962 17.3919C26.7379 16.9497 26.5875 16.6633 26.2388 16.234L28.2991 16.3768L28.4917 17.6799Z" fill="url(#paint46_linear_88_7202)"/>
<path fill-rule="evenodd" clip-rule="evenodd" d="M24.9141 19.8608L35.413 14.4597L40.6281 14.9605L28.4351 21.6157L24.9141 19.8608Z" fill="#249600"/>
<path fill-rule="evenodd" clip-rule="evenodd" d="M26.0218 12.4708L26.5188 16.2403C26.5307 16.3192 26.6035 16.3742 26.6852 16.3606L33.3183 15.6396C33.4033 15.6316 33.4627 15.5599 33.4511 15.4882L32.9553 11.7143C32.9449 11.6382 32.8693 11.5849 32.7872 11.5912L26.1545 12.3194C26.068 12.3246 26.0086 12.3963 26.0218 12.4708Z" fill="url(#paint47_linear_88_7202)"/>
<path fill-rule="evenodd" clip-rule="evenodd" d="M26.0154 12.4716L26.2278 14.0806C26.2365 14.1539 26.3149 14.2056 26.397 14.1993C28.5863 13.7899 30.7972 13.5471 33.0301 13.4782C33.1135 13.4675 33.1717 13.4003 33.1597 13.3213L32.9517 11.7136C32.943 11.6403 32.8657 11.5841 32.7836 11.5905L26.1493 12.3159C26.0688 12.3251 26.0094 12.3967 26.0154 12.4716Z" fill="url(#paint48_linear_88_7202)"/>
<path fill-rule="evenodd" clip-rule="evenodd" d="M26.5053 16.2967C26.2935 15.0121 26.1379 13.7212 26.0387 12.4313L26.1048 12.423C26.2056 13.7157 26.3584 15.0082 26.5714 16.2884L26.5053 16.2967Z" fill="#C9FF59"/>
<path fill-rule="evenodd" clip-rule="evenodd" d="M33.5074 15.5316C33.3806 14.239 33.1905 12.953 32.9559 11.6741L32.8942 11.6836C33.1288 12.9626 33.3117 14.2489 33.4413 15.5399L33.5074 15.5316Z" fill="#C9FF59"/>
<path fill-rule="evenodd" clip-rule="evenodd" d="M29.2423 16.4408C31.0918 17.6083 31.1725 18.5171 31.3822 19.5268L31.3517 19.5257C30.2851 19.1003 29.4754 19.4559 29.1643 18.8071C26.7008 13.7323 23.5108 16.4548 20.5094 17.5905L22.5489 15.0472L25.3148 15.3909C26.6988 15.5322 28.103 15.6246 29.2423 16.4408Z" fill="url(#paint49_linear_88_7202)"/>
<path fill-rule="evenodd" clip-rule="evenodd" d="M26.6887 22.1127C28.4685 21.7308 30.1606 20.6606 31.3966 19.5178L29.213 18.8641C28.5128 18.007 24.0715 20.6496 21.0926 20.5446C19.7236 20.5327 22.202 21.4191 20.3232 20.9701L26.6887 22.1127Z" fill="url(#paint50_linear_88_7202)"/>
<path fill-rule="evenodd" clip-rule="evenodd" d="M26.9055 22.1338C22.4613 20.9194 25.488 14.0295 29.353 16.5225C27.9932 15.5051 26.0674 15.0459 23.7896 14.9466C18.8195 14.618 16.4287 19.9204 20.8019 21.1348L26.9055 22.1338Z" fill="url(#paint51_linear_88_7202)"/>
<path fill-rule="evenodd" clip-rule="evenodd" d="M24.8458 18.3961C22.5398 17.8019 20.6017 17.6446 18.7358 17.5799C19.0972 16.7257 19.8645 15.9281 20.9399 15.4379L21.1771 15.3382L26.4088 16.3331L26.1757 16.4788C25.5391 16.921 25.0705 17.6283 24.8458 18.3961Z" fill="url(#paint52_linear_88_7202)"/>
<path fill-rule="evenodd" clip-rule="evenodd" d="M26.614 22.1261C22.5057 20.9827 24.8776 14.2321 29.0031 16.2649C28.9935 16.2742 29.2375 16.4319 29.2263 16.4383C29.2223 16.4443 28.9583 16.2908 28.9471 16.2972C24.9377 14.3168 22.6895 20.9587 26.6433 22.0607L26.836 22.1099L26.614 22.1261Z" fill="url(#paint53_linear_88_7202)"/>
<path fill-rule="evenodd" clip-rule="evenodd" d="M26.7513 22.1523C22.6414 21.0061 24.9661 14.2902 29.0916 16.323C29.082 16.3323 29.3305 16.4911 29.3221 16.496C29.3125 16.5052 29.0469 16.3489 29.0357 16.3553C25.029 14.3733 22.8252 20.9821 26.7835 22.0853L26.9772 22.1301L26.7513 22.1523Z" fill="url(#paint54_linear_88_7202)"/>
<path fill-rule="evenodd" clip-rule="evenodd" d="M31.3964 19.5184L29.2127 18.8647C28.6952 19.2158 28.304 19.4043 27.5586 19.6257L30.2002 20.6979L31.3964 19.5184Z" fill="url(#paint55_linear_88_7202)"/>
<path fill-rule="evenodd" clip-rule="evenodd" d="M35.207 17.3968C33.6382 17.2651 33.181 16.6671 32.5957 16.0347L32.6169 16.0262C33.4089 15.9309 33.692 15.3868 34.1681 15.7202C37.8629 18.3451 38.3944 15.2841 39.5465 13.3949L39.5774 15.911L37.8764 16.6879C37.0396 17.1001 36.215 17.5463 35.207 17.3968Z" fill="url(#paint56_linear_88_7202)"/>
<path fill-rule="evenodd" clip-rule="evenodd" d="M34.024 12.5236C33.079 12.9423 32.6314 14.3389 32.5898 16.0572L34.1007 15.7073C34.6019 14.0222 36.9314 12.1623 37.8583 11.5637C38.625 11.0688 36.8445 11.3654 38.0926 10.9806L34.024 12.5236Z" fill="url(#paint57_linear_88_7202)"/>
<path fill-rule="evenodd" clip-rule="evenodd" d="M33.8984 12.5845C36.9311 11.8002 38.4029 17.6975 35.1088 17.3827C36.3315 17.5873 37.613 17.202 38.928 16.4353C41.8484 14.8425 40.7506 10.2779 37.7571 11.0397L33.8984 12.5845Z" fill="url(#paint58_linear_88_7202)"/>
<path fill-rule="evenodd" clip-rule="evenodd" d="M36.1175 13.3373C35.9152 13.1033 35.679 12.9075 35.4142 12.7656L35.1953 12.6643L38.8297 11.0026L39.0103 11.0439C39.4382 11.1775 39.7986 11.4396 40.0655 11.7856C38.6475 12.1154 37.1525 12.4412 36.1175 13.3373Z" fill="url(#paint59_linear_88_7202)"/>
<path fill-rule="evenodd" clip-rule="evenodd" d="M34.0589 12.4835C36.8714 11.7703 38.6504 17.3336 35.4174 17.4349C35.421 17.4217 35.2084 17.4026 35.2052 17.397C35.2076 17.3882 35.4297 17.398 35.4321 17.3892C38.574 17.2918 36.7808 11.8525 34.068 12.538L33.9371 12.5763L34.0589 12.4835Z" fill="url(#paint60_linear_88_7202)"/>
<path fill-rule="evenodd" clip-rule="evenodd" d="M33.9744 12.5188C36.7869 11.8056 38.5749 17.3263 35.3448 17.4261C35.3455 17.4145 35.1302 17.397 35.1326 17.3882C35.1361 17.3749 35.3598 17.3875 35.3566 17.3819C38.5029 17.2858 36.6918 11.8866 33.9862 12.5717L33.8565 12.6055L33.9744 12.5188Z" fill="url(#paint61_linear_88_7202)"/>
<path fill-rule="evenodd" clip-rule="evenodd" d="M33.9114 17.1068L35.01 16.2561C34.7496 16.1154 34.4638 15.937 34.1642 15.7219C33.6259 15.6558 33.3696 15.897 32.613 16.0278L32.5918 16.0364C32.9768 16.4447 33.3021 16.8466 33.9114 17.1068Z" fill="url(#paint62_linear_88_7202)"/>
<path fill-rule="evenodd" clip-rule="evenodd" d="M32.5881 16.0543L34.099 15.7045C34.2353 15.2749 34.3692 14.9961 34.6752 14.5695L32.7152 14.7943L32.5881 16.0543Z" fill="url(#paint63_linear_88_7202)"/>
<path fill-rule="evenodd" clip-rule="evenodd" d="M33.781 15.4321C32.206 16.9572 32.3194 17.8582 32.322 18.8904L32.3504 18.8815C33.3069 18.2435 34.1719 18.4232 34.346 17.7293C35.7086 12.2555 39.3906 14.257 42.5636 14.75L40.0418 12.6832L37.4074 13.5884C36.0764 14.0173 34.7208 14.3969 33.781 15.4321Z" fill="url(#paint64_linear_88_7202)"/>
<path fill-rule="evenodd" clip-rule="evenodd" d="M37.4426 20.4526C35.621 20.4519 33.7375 19.7556 32.2969 18.8893L34.2992 17.8005C34.8091 16.8157 39.6991 18.4855 42.5921 17.7631C43.9257 17.4746 41.6902 18.8511 43.4331 18.024L37.4426 20.4526Z" fill="url(#paint65_linear_88_7202)"/>
<path fill-rule="evenodd" clip-rule="evenodd" d="M37.2398 20.5185C41.3324 18.4094 36.949 12.2973 33.6828 15.534C34.8079 14.2574 36.5933 13.4133 38.7975 12.8423C43.599 11.4956 47.0284 16.1881 43.0026 18.2773L37.2398 20.5185Z" fill="url(#paint66_linear_88_7202)"/>
<path fill-rule="evenodd" clip-rule="evenodd" d="M38.4717 16.4372C40.6076 15.3794 42.4755 14.8271 44.2802 14.3786C43.7553 13.6181 42.8361 12.9956 41.6869 12.7374L41.4294 12.692L36.5195 14.743L36.7741 14.8349C37.4874 15.1396 38.0921 15.7346 38.4717 16.4372Z" fill="url(#paint67_linear_88_7202)"/>
<path fill-rule="evenodd" clip-rule="evenodd" d="M37.5179 20.4585C41.3017 18.4867 37.5841 12.3708 33.9686 15.2158C33.9835 15.2221 33.7699 15.4275 33.7848 15.4339C33.7924 15.4407 34.0216 15.23 34.032 15.2351C37.5481 12.47 41.1134 18.5096 37.4768 20.4002L37.294 20.4908L37.5179 20.4585Z" fill="url(#paint68_linear_88_7202)"/>
<path fill-rule="evenodd" clip-rule="evenodd" d="M37.3935 20.507C41.1745 18.5368 37.5136 12.4479 33.8948 15.2873C33.9141 15.2948 33.7005 15.5003 33.7082 15.5071C33.7186 15.5122 33.9466 15.3059 33.957 15.3111C37.4743 12.5415 40.9874 18.5552 37.348 20.4475L37.1664 20.5337L37.3935 20.507Z" fill="url(#paint69_linear_88_7202)"/>
<path fill-rule="evenodd" clip-rule="evenodd" d="M32.2949 18.891L34.2972 17.8022C34.8743 18.0325 35.2977 18.1389 36.0748 18.2051L33.7104 19.7979L32.2949 18.891Z" fill="url(#paint70_linear_88_7202)"/>
<path fill-rule="evenodd" clip-rule="evenodd" d="M27.0285 15.9239L27.6531 21.8923C27.6661 22.0117 27.7583 22.1004 27.8649 22.0911L36.2322 21.2196C36.3372 21.2075 36.4105 21.1017 36.3975 20.9823L35.7729 15.0139C35.7627 14.8929 35.6677 14.8059 35.5627 14.818L27.1983 15.6878C27.0917 15.6971 27.0184 15.8028 27.0285 15.9239Z" fill="url(#paint71_linear_88_7202)"/>
<path fill-rule="evenodd" clip-rule="evenodd" d="M27.0309 15.9261L27.2952 18.4716C27.3098 18.5938 27.4047 18.6808 27.5069 18.6704C30.2652 18.1153 33.0563 17.8174 35.8743 17.7988C35.9764 17.7884 36.0525 17.681 36.0424 17.56L35.7753 15.0161C35.7639 14.8995 35.6657 14.807 35.5652 14.8202L27.2006 15.6901C27.0941 15.6993 27.0208 15.8051 27.0309 15.9261Z" fill="url(#paint72_linear_88_7202)"/>
<path fill-rule="evenodd" clip-rule="evenodd" d="M27.6393 21.9786C27.3769 19.947 27.1806 17.9071 27.052 15.8616L27.1342 15.8552C27.2684 17.8974 27.4586 19.9334 27.7254 21.9662L27.6393 21.9786Z" fill="#C9FF59"/>
<path fill-rule="evenodd" clip-rule="evenodd" d="M36.4682 21.0534C36.3108 19.0097 36.0773 16.9764 35.7789 14.9469L35.6955 14.9577C35.9923 16.9843 36.217 19.0153 36.3833 21.0614L36.4682 21.0534Z" fill="#C9FF59"/>
<defs>
<linearGradient id="paint0_linear_88_7202" x1="27.2369" y1="13.5014" x2="30.4737" y2="13.7781" gradientUnits="userSpaceOnUse">
<stop stop-color="#035412"/>
<stop offset="1" stop-color="#80DE1C"/>
</linearGradient>
<linearGradient id="paint1_linear_88_7202" x1="30.653" y1="12.5596" x2="30.2175" y2="15.2681" gradientUnits="userSpaceOnUse">
<stop stop-color="#035412"/>
<stop offset="1" stop-color="#249600"/>
</linearGradient>
<linearGradient id="paint2_linear_88_7202" x1="30.1275" y1="12.1654" x2="28.9386" y2="12.3028" gradientUnits="userSpaceOnUse">
<stop stop-color="#249600"/>
<stop offset="1" stop-color="#80DE1C"/>
</linearGradient>
<linearGradient id="paint3_linear_88_7202" x1="26.2282" y1="11.7749" x2="29.0494" y2="12.1005" gradientUnits="userSpaceOnUse">
<stop stop-color="#80DE1C"/>
<stop offset="1" stop-color="white"/>
</linearGradient>
<linearGradient id="paint4_linear_88_7202" x1="23.4661" y1="8.15951" x2="28.875" y2="14.4769" gradientUnits="userSpaceOnUse">
<stop stop-color="white"/>
<stop offset="1" stop-color="#B0E86B"/>
</linearGradient>
<linearGradient id="paint5_linear_88_7202" x1="29.3527" y1="14.9789" x2="27.6719" y2="13.2291" gradientUnits="userSpaceOnUse">
<stop stop-color="#249600"/>
<stop offset="1" stop-color="#C9FF59"/>
</linearGradient>
<linearGradient id="paint6_linear_88_7202" x1="30.0917" y1="15.2857" x2="28.8708" y2="15.6051" gradientUnits="userSpaceOnUse">
<stop stop-color="#249600"/>
<stop offset="1" stop-color="#177003"/>
</linearGradient>
<linearGradient id="paint7_linear_88_7202" x1="33.1547" y1="13.0363" x2="35.5712" y2="14.7531" gradientUnits="userSpaceOnUse">
<stop stop-color="#035412"/>
<stop offset="1" stop-color="#80DE1C"/>
</linearGradient>
<linearGradient id="paint8_linear_88_7202" x1="35.7584" y1="13.6597" x2="34.4243" y2="15.8706" gradientUnits="userSpaceOnUse">
<stop stop-color="#035412"/>
<stop offset="1" stop-color="#249600"/>
</linearGradient>
<linearGradient id="paint9_linear_88_7202" x1="35.4759" y1="12.8981" x2="34.5011" y2="12.48" gradientUnits="userSpaceOnUse">
<stop stop-color="#249600"/>
<stop offset="1" stop-color="#80DE1C"/>
</linearGradient>
<linearGradient id="paint10_linear_88_7202" x1="32.6358" y1="10.7797" x2="34.7121" y2="12.3527" gradientUnits="userSpaceOnUse">
<stop stop-color="#80DE1C"/>
<stop offset="1" stop-color="white"/>
</linearGradient>
<linearGradient id="paint11_linear_88_7202" x1="31.8694" y1="6.37164" x2="33.7582" y2="14.4454" gradientUnits="userSpaceOnUse">
<stop stop-color="white"/>
<stop offset="1" stop-color="#B0E86B"/>
</linearGradient>
<linearGradient id="paint12_linear_88_7202" x1="33.933" y1="15.043" x2="33.2669" y2="12.723" gradientUnits="userSpaceOnUse">
<stop stop-color="#249600"/>
<stop offset="1" stop-color="#C9FF59"/>
</linearGradient>
<linearGradient id="paint13_linear_88_7202" x1="34.4063" y1="15.6964" x2="33.3362" y2="15.425" gradientUnits="userSpaceOnUse">
<stop stop-color="#249600"/>
<stop offset="1" stop-color="#177003"/>
</linearGradient>
<linearGradient id="paint14_linear_88_7202" x1="86.6206" y1="-14.975" x2="35.7783" y2="46.0136" gradientUnits="userSpaceOnUse">
<stop stop-color="#9C877D"/>
<stop offset="1" stop-color="#E3DED9"/>
</linearGradient>
<linearGradient id="paint15_linear_88_7202" x1="23.643" y1="39.5777" x2="43.472" y2="61.0931" gradientUnits="userSpaceOnUse">
<stop stop-color="#F5F0EB"/>
<stop offset="1" stop-color="#E3DED9"/>
</linearGradient>
<linearGradient id="paint16_linear_88_7202" x1="42.6031" y1="30.2187" x2="42.2899" y2="29.7211" gradientUnits="userSpaceOnUse">
<stop stop-color="#E3DED9"/>
<stop offset="1" stop-color="#9C877D"/>
</linearGradient>
<linearGradient id="paint17_linear_88_7202" x1="90.9089" y1="-29.844" x2="36.8909" y2="29.8959" gradientUnits="userSpaceOnUse">
<stop stop-color="#9C877D"/>
<stop offset="1" stop-color="#E3DED9"/>
</linearGradient>
<linearGradient id="paint18_linear_88_7202" x1="23.0312" y1="33.319" x2="23.1424" y2="32.7989" gradientUnits="userSpaceOnUse">
<stop stop-color="#F5F0EB"/>
<stop offset="1" stop-color="#9C877D"/>
</linearGradient>
<linearGradient id="paint19_linear_88_7202" x1="16.0163" y1="18.6724" x2="34.0138" y2="42.6241" gradientUnits="userSpaceOnUse">
<stop stop-color="#F5F0EB"/>
<stop offset="1" stop-color="#E3DED9"/>
</linearGradient>
<linearGradient id="paint20_linear_88_7202" x1="23.1036" y1="29.5529" x2="22.7776" y2="32.0365" gradientUnits="userSpaceOnUse">
<stop stop-color="#F5F0EB"/>
<stop offset="1" stop-color="#E3DED9"/>
</linearGradient>
<linearGradient id="paint21_linear_88_7202" x1="31.588" y1="24.8394" x2="33.0982" y2="39.3115" gradientUnits="userSpaceOnUse">
<stop stop-color="#E3DED9"/>
<stop offset="1" stop-color="white"/>
</linearGradient>
<linearGradient id="paint22_linear_88_7202" x1="31.9039" y1="26.1997" x2="30.3951" y2="15.7205" gradientUnits="userSpaceOnUse">
<stop stop-color="white"/>
<stop offset="1" stop-color="#F5F0EB"/>
</linearGradient>
<linearGradient id="paint23_linear_88_7202" x1="44.7989" y1="31.3642" x2="42.1446" y2="27.9446" gradientUnits="userSpaceOnUse">
<stop stop-color="#9C877D"/>
<stop offset="1" stop-color="#E3DED9"/>
</linearGradient>
<linearGradient id="paint24_linear_88_7202" x1="54.8016" y1="17.0253" x2="46.1888" y2="24.039" gradientUnits="userSpaceOnUse">
<stop stop-color="white"/>
<stop offset="1" stop-color="#9C877D"/>
</linearGradient>
<linearGradient id="paint25_linear_88_7202" x1="41.4324" y1="6.88139" x2="45.0401" y2="42.7913" gradientUnits="userSpaceOnUse">
<stop stop-color="#80DE1C"/>
<stop offset="1" stop-color="#249600"/>
</linearGradient>
<linearGradient id="paint26_linear_88_7202" x1="46.078" y1="46.0024" x2="46.6248" y2="46.8246" gradientUnits="userSpaceOnUse">
<stop stop-color="#249600"/>
<stop offset="1" stop-color="#035412"/>
</linearGradient>
<linearGradient id="paint27_linear_88_7202" x1="44.2553" y1="34.4531" x2="43.6964" y2="29.0969" gradientUnits="userSpaceOnUse">
<stop stop-color="#C9FF59"/>
<stop offset="1" stop-color="#4CB50D"/>
</linearGradient>
<linearGradient id="paint28_linear_88_7202" x1="44.3844" y1="35.6825" x2="44.8847" y2="40.4772" gradientUnits="userSpaceOnUse">
<stop stop-color="#C9FF59"/>
<stop offset="1" stop-color="#249600"/>
</linearGradient>
<linearGradient id="paint29_linear_88_7202" x1="27.0154" y1="53.1495" x2="22.1649" y2="33.4198" gradientUnits="userSpaceOnUse">
<stop stop-color="#249600"/>
<stop offset="1" stop-color="#80DE1C"/>
</linearGradient>
<linearGradient id="paint30_linear_88_7202" x1="23.097" y1="50.391" x2="23.2014" y2="49.9194" gradientUnits="userSpaceOnUse">
<stop stop-color="#249600"/>
<stop offset="1" stop-color="#40C903"/>
</linearGradient>
<linearGradient id="paint31_linear_88_7202" x1="22.9091" y1="36.6784" x2="22.3501" y2="31.3212" gradientUnits="userSpaceOnUse">
<stop stop-color="#C9FF59"/>
<stop offset="1" stop-color="#80DE1C"/>
</linearGradient>
<linearGradient id="paint32_linear_88_7202" x1="23.0372" y1="37.9095" x2="23.5376" y2="42.7048" gradientUnits="userSpaceOnUse">
<stop stop-color="#C9FF59"/>
<stop offset="1" stop-color="#40C903"/>
</linearGradient>
<linearGradient id="paint33_linear_88_7202" x1="19.1539" y1="38.9349" x2="29.3089" y2="19.8674" gradientUnits="userSpaceOnUse">
<stop stop-color="white"/>
<stop offset="1" stop-color="#80DE1C"/>
</linearGradient>
<linearGradient id="paint34_linear_88_7202" x1="21.7933" y1="23.2368" x2="21.7533" y2="23.4583" gradientUnits="userSpaceOnUse">
<stop stop-color="#C9FF59"/>
<stop offset="1" stop-color="#E3E3E3"/>
</linearGradient>
<linearGradient id="paint35_linear_88_7202" x1="21.5734" y1="23.733" x2="21.6083" y2="23.5168" gradientUnits="userSpaceOnUse">
<stop stop-color="#80DE1C"/>
<stop offset="1" stop-color="#E3E3E3"/>
</linearGradient>
<linearGradient id="paint36_linear_88_7202" x1="47.3216" y1="34.5705" x2="33.6336" y2="19.753" gradientUnits="userSpaceOnUse">
<stop stop-color="white"/>
<stop offset="1" stop-color="#80DE1C"/>
</linearGradient>
<linearGradient id="paint37_linear_88_7202" x1="42.4459" y1="19.9274" x2="42.5298" y2="20.1266" gradientUnits="userSpaceOnUse">
<stop stop-color="#C9FF59"/>
<stop offset="1" stop-color="#E3E3E3"/>
</linearGradient>
<linearGradient id="paint38_linear_88_7202" x1="42.7579" y1="20.3391" x2="42.6797" y2="20.1439" gradientUnits="userSpaceOnUse">
<stop stop-color="#80DE1C"/>
<stop offset="1" stop-color="#E3E3E3"/>
</linearGradient>
<linearGradient id="paint39_linear_88_7202" x1="24.5834" y1="16.7093" x2="26.5283" y2="14.7469" gradientUnits="userSpaceOnUse">
<stop stop-color="#035412"/>
<stop offset="1" stop-color="#80DE1C"/>
</linearGradient>
<linearGradient id="paint40_linear_88_7202" x1="25.1689" y1="14.2954" x2="27.7338" y2="16.3942" gradientUnits="userSpaceOnUse">
<stop stop-color="#035412"/>
<stop offset="1" stop-color="#249600"/>
</linearGradient>
<linearGradient id="paint41_linear_88_7202" x1="23.3884" y1="15.5884" x2="23.7684" y2="14.3189" gradientUnits="userSpaceOnUse">
<stop stop-color="#249600"/>
<stop offset="1" stop-color="#80DE1C"/>
</linearGradient>
<linearGradient id="paint42_linear_88_7202" x1="23.0247" y1="13.8356" x2="22.3357" y2="15.8294" gradientUnits="userSpaceOnUse">
<stop stop-color="#80DE1C"/>
<stop offset="1" stop-color="#B0E86B"/>
</linearGradient>
<linearGradient id="paint43_linear_88_7202" x1="17.0124" y1="16.0103" x2="26.2872" y2="16.6444" gradientUnits="userSpaceOnUse">
<stop stop-color="white"/>
<stop offset="1" stop-color="#B0E86B"/>
</linearGradient>
<linearGradient id="paint44_linear_88_7202" x1="26.5366" y1="16.6406" x2="23.8724" y2="16.5863" gradientUnits="userSpaceOnUse">
<stop stop-color="#249600"/>
<stop offset="1" stop-color="#C9FF59"/>
</linearGradient>
<linearGradient id="paint45_linear_88_7202" x1="27.7771" y1="16.5627" x2="27.2222" y2="17.8459" gradientUnits="userSpaceOnUse">
<stop stop-color="#171717"/>
<stop offset="1" stop-color="#035412"/>
</linearGradient>
<linearGradient id="paint46_linear_88_7202" x1="27.5355" y1="16.372" x2="27.2375" y2="17.3967" gradientUnits="userSpaceOnUse">
<stop stop-color="#249600"/>
<stop offset="1" stop-color="#177003"/>
</linearGradient>
<linearGradient id="paint47_linear_88_7202" x1="30.0488" y1="16.3465" x2="29.7931" y2="14.41" gradientUnits="userSpaceOnUse">
<stop stop-color="#035412"/>
<stop offset="1" stop-color="#80DE1C"/>
</linearGradient>
<linearGradient id="paint48_linear_88_7202" x1="29.6862" y1="13.8293" x2="29.4809" y2="11.8619" gradientUnits="userSpaceOnUse">
<stop stop-color="#C9FF59"/>
<stop offset="1" stop-color="#249600"/>
</linearGradient>
<linearGradient id="paint49_linear_88_7202" x1="26.0107" y1="18.6589" x2="26.9703" y2="21.7453" gradientUnits="userSpaceOnUse">
<stop stop-color="#035412"/>
<stop offset="1" stop-color="#80DE1C"/>
</linearGradient>
<linearGradient id="paint50_linear_88_7202" x1="24.8523" y1="20.7402" x2="29.5644" y2="20.1714" gradientUnits="userSpaceOnUse">
<stop stop-color="#035412"/>
<stop offset="1" stop-color="#249600"/>
</linearGradient>
<linearGradient id="paint51_linear_88_7202" x1="23.7536" y1="20.521" x2="23.8227" y2="19.3746" gradientUnits="userSpaceOnUse">
<stop stop-color="#249600"/>
<stop offset="1" stop-color="#80DE1C"/>
</linearGradient>
<linearGradient id="paint52_linear_88_7202" x1="22.4259" y1="16.563" x2="23.4108" y2="19.2474" gradientUnits="userSpaceOnUse">
<stop stop-color="#80DE1C"/>
<stop offset="1" stop-color="white"/>
</linearGradient>
<linearGradient id="paint53_linear_88_7202" x1="16.105" y1="14.4649" x2="28.0177" y2="19.2887" gradientUnits="userSpaceOnUse">
<stop stop-color="white"/>
<stop offset="1" stop-color="#B0E86B"/>
</linearGradient>
<linearGradient id="paint54_linear_88_7202" x1="28.0545" y1="19.3221" x2="24.7245" y2="17.8101" gradientUnits="userSpaceOnUse">
<stop stop-color="#249600"/>
<stop offset="1" stop-color="#C9FF59"/>
</linearGradient>
<linearGradient id="paint55_linear_88_7202" x1="29.2586" y1="20.2485" x2="29.6449" y2="19.0583" gradientUnits="userSpaceOnUse">
<stop stop-color="#249600"/>
<stop offset="1" stop-color="#177003"/>
</linearGradient>
<linearGradient id="paint56_linear_88_7202" x1="36.2868" y1="14.9482" x2="34.3355" y2="13.1539" gradientUnits="userSpaceOnUse">
<stop stop-color="#035412"/>
<stop offset="1" stop-color="#80DE1C"/>
</linearGradient>
<linearGradient id="paint57_linear_88_7202" x1="35.6234" y1="12.6612" x2="33.2571" y2="14.7864" gradientUnits="userSpaceOnUse">
<stop stop-color="#035412"/>
<stop offset="1" stop-color="#249600"/>
</linearGradient>
<linearGradient id="paint58_linear_88_7202" x1="38.1894" y1="16.1025" x2="37.0241" y2="12.7907" gradientUnits="userSpaceOnUse">
<stop stop-color="#249600"/>
<stop offset="1" stop-color="#80DE1C"/>
</linearGradient>
<linearGradient id="paint59_linear_88_7202" x1="37.4661" y1="11.8284" x2="37.9817" y2="13.0828" gradientUnits="userSpaceOnUse">
<stop stop-color="#80DE1C"/>
<stop offset="1" stop-color="#C9FF59"/>
</linearGradient>
<linearGradient id="paint60_linear_88_7202" x1="43.5248" y1="13.944" x2="34.6575" y2="14.9642" gradientUnits="userSpaceOnUse">
<stop stop-color="white"/>
<stop offset="1" stop-color="#B0E86B"/>
</linearGradient>
<linearGradient id="paint61_linear_88_7202" x1="34.4192" y1="14.9728" x2="36.9669" y2="14.8021" gradientUnits="userSpaceOnUse">
<stop stop-color="#249600"/>
<stop offset="1" stop-color="#C9FF59"/>
</linearGradient>
<linearGradient id="paint62_linear_88_7202" x1="33.2161" y1="14.9479" x2="33.8059" y2="16.1539" gradientUnits="userSpaceOnUse">
<stop stop-color="#171717"/>
<stop offset="1" stop-color="#035412"/>
</linearGradient>
<linearGradient id="paint63_linear_88_7202" x1="33.4427" y1="14.7563" x2="33.7738" y2="15.7245" gradientUnits="userSpaceOnUse">
<stop stop-color="#249600"/>
<stop offset="1" stop-color="#177003"/>
</linearGradient>
<linearGradient id="paint64_linear_88_7202" x1="37.3952" y1="16.9357" x2="37.0939" y2="20.151" gradientUnits="userSpaceOnUse">
<stop stop-color="#035412"/>
<stop offset="1" stop-color="#80DE1C"/>
</linearGradient>
<linearGradient id="paint65_linear_88_7202" x1="38.9516" y1="18.7344" x2="34.2232" y2="19.1505" gradientUnits="userSpaceOnUse">
<stop stop-color="#035412"/>
<stop offset="1" stop-color="#249600"/>
</linearGradient>
<linearGradient id="paint66_linear_88_7202" x1="39.987" y1="18.2896" x2="39.6831" y2="17.1824" gradientUnits="userSpaceOnUse">
<stop stop-color="#249600"/>
<stop offset="1" stop-color="#80DE1C"/>
</linearGradient>
<linearGradient id="paint67_linear_88_7202" x1="40.4594" y1="14.1467" x2="40.0503" y2="16.9766" gradientUnits="userSpaceOnUse">
<stop stop-color="#80DE1C"/>
<stop offset="1" stop-color="white"/>
</linearGradient>
<linearGradient id="paint68_linear_88_7202" x1="46.2225" y1="10.7852" x2="35.5551" y2="17.9691" gradientUnits="userSpaceOnUse">
<stop stop-color="white"/>
<stop offset="1" stop-color="#B0E86B"/>
</linearGradient>
<linearGradient id="paint69_linear_88_7202" x1="35.5319" y1="18.0041" x2="38.475" y2="15.839" gradientUnits="userSpaceOnUse">
<stop stop-color="#249600"/>
<stop offset="1" stop-color="#C9FF59"/>
</linearGradient>
<linearGradient id="paint70_linear_88_7202" x1="34.5392" y1="19.1632" x2="33.9162" y2="18.0786" gradientUnits="userSpaceOnUse">
<stop stop-color="#249600"/>
<stop offset="1" stop-color="#177003"/>
</linearGradient>
<linearGradient id="paint71_linear_88_7202" x1="32.1015" y1="22.1706" x2="31.7817" y2="19.1064" gradientUnits="userSpaceOnUse">
<stop stop-color="#035412"/>
<stop offset="1" stop-color="#80DE1C"/>
</linearGradient>
<linearGradient id="paint72_linear_88_7202" x1="31.7045" y1="18.3485" x2="31.4528" y2="15.9369" gradientUnits="userSpaceOnUse">
<stop stop-color="#C9FF59"/>
<stop offset="1" stop-color="#249600"/>
</linearGradient>
</defs>
</svg>
