<svg width="446" height="391" viewBox="0 0 446 391" fill="none" xmlns="http://www.w3.org/2000/svg">
<path d="M217.251 101.25C217.251 101.25 223.54 109.778 225.039 119.369C226.539 128.961 224.064 139.705 224.064 139.705L213.248 140.962L217.251 101.25Z" fill="black"/>
<path d="M218.186 102.591C215.625 98.3824 210.813 95.6388 205.887 95.5787L202.862 98.0459C207.382 97.8392 211.731 100.425 214.43 104.056C217.129 107.687 218.352 112.232 218.763 116.737C220.973 112.334 220.747 106.8 218.186 102.591Z" fill="black"/>
<path d="M190.031 149.556L188.397 128.724L188.901 111.196L204.931 98.3007L207.854 98.8583C214.036 100.038 218.849 104.812 220.272 110.943L220.296 111.046C220.296 111.046 221.186 127.32 219.548 132.832C217.507 139.703 212.618 140.016 211.438 142.764C209.969 146.182 211.767 151.804 211.767 151.804C211.767 151.804 202.595 164.179 190.031 149.556Z" fill="white"/>
<path d="M190.031 149.556C190.042 149.551 190.159 149.658 190.375 149.869C190.612 150.106 190.922 150.416 191.315 150.808C192.098 151.655 193.37 152.823 195.178 154.077C195.646 154.366 196.139 154.672 196.657 154.993C197.199 155.268 197.799 155.491 198.407 155.762C199.011 156.048 199.714 156.119 200.404 156.319C200.749 156.436 201.124 156.395 201.493 156.442C201.864 156.453 202.244 156.528 202.627 156.489C205.714 156.393 209.139 154.679 211.579 151.666L211.545 151.876C211.114 150.441 210.799 148.931 210.664 147.33C210.554 145.742 210.55 144.013 211.339 142.392C211.774 141.582 212.486 141.003 213.179 140.48C213.881 139.957 214.597 139.464 215.269 138.905C216.621 137.806 217.771 136.402 218.517 134.738C219.3 133.08 219.678 131.244 219.866 129.326C220.068 127.412 220.155 125.443 220.203 123.442C220.277 119.438 220.193 115.293 219.986 111.065L219.993 111.119C219.633 109.499 218.969 107.84 218.04 106.32C216.629 104.006 214.64 102.08 212.328 100.817C211.176 100.18 209.952 99.6984 208.701 99.3739C207.456 99.0639 206.134 98.862 204.875 98.6048L205.123 98.5423C199.408 103.125 194.015 107.447 189.072 111.411L189.175 111.207C188.967 117.722 188.778 123.625 188.615 128.732V128.709C189.076 135.144 189.45 140.334 189.709 143.961C189.824 145.73 189.914 147.116 189.977 148.101C190 148.55 190.018 148.905 190.033 149.182C190.041 149.425 190.041 149.552 190.031 149.556C190.022 149.559 190.003 149.44 189.974 149.204C189.945 148.932 189.908 148.583 189.862 148.144C189.772 147.164 189.644 145.788 189.482 144.031C189.173 140.394 188.73 135.192 188.182 128.741V128.718C188.312 123.609 188.462 117.705 188.628 111.189C188.63 111.107 188.671 111.031 188.73 110.983C193.661 107.004 199.039 102.663 204.74 98.0628C204.811 98.0039 204.906 97.9846 204.989 98.0003C206.265 98.2587 207.534 98.4473 208.853 98.7718C210.155 99.1083 211.429 99.6082 212.63 100.27C215.038 101.583 217.108 103.585 218.574 105.992C219.539 107.571 220.229 109.303 220.6 110.975C220.604 110.99 220.606 111.013 220.607 111.029C220.812 115.278 220.892 119.428 220.809 123.454C220.757 125.467 220.665 127.448 220.455 129.39C220.261 131.325 219.859 133.262 219.038 134.98C218.254 136.715 217.025 138.202 215.62 139.332C214.265 140.499 212.584 141.275 211.804 142.642C211.094 144.067 211.058 145.756 211.162 147.29C211.283 148.843 211.585 150.345 211.99 151.733L211.995 151.75C212.016 151.82 211.998 151.892 211.956 151.945C209.39 155.068 205.852 156.789 202.637 156.862C202.238 156.899 201.846 156.818 201.462 156.801C201.081 156.749 200.693 156.784 200.338 156.661C199.629 156.448 198.907 156.361 198.291 156.062C197.672 155.777 197.063 155.538 196.515 155.25C195.995 154.916 195.498 154.597 195.027 154.295C193.221 152.994 191.968 151.785 191.201 150.888C190.828 150.476 190.534 150.149 190.309 149.901C190.116 149.676 190.021 149.56 190.031 149.556Z" fill="black"/>
<path d="M217.723 108.254C217.515 107.992 217.206 107.877 216.906 107.809C216.599 107.741 216.287 107.73 215.976 107.743C215.947 107.744 215.919 107.749 215.889 107.749C215.731 107.76 215.573 107.773 215.417 107.804C215.231 107.838 215.05 107.891 214.874 107.955C214.855 107.962 214.835 107.966 214.817 107.973C214.625 108.047 214.435 108.142 214.249 108.255C214.228 108.267 214.206 108.274 214.186 108.286L214.196 108.284C214.166 108.303 214.136 108.314 214.106 108.333C213.786 108.547 213.477 108.825 213.327 109.217C213.177 109.608 213.234 110.135 213.537 110.384C213.736 110.546 213.993 110.564 214.234 110.577C214.583 110.595 214.933 110.613 215.281 110.631C215.733 110.655 216.191 110.678 216.633 110.569C217.075 110.459 217.507 110.202 217.759 109.767C218.021 109.32 218.042 108.657 217.723 108.254Z" fill="black"/>
<path d="M205.456 108.254C205.248 107.992 204.94 107.877 204.639 107.809C204.333 107.741 204.02 107.73 203.709 107.743C203.68 107.744 203.652 107.749 203.622 107.749C203.464 107.76 203.306 107.773 203.15 107.804C202.964 107.838 202.784 107.891 202.607 107.955C202.588 107.962 202.568 107.966 202.55 107.973C202.357 108.047 202.168 108.142 201.982 108.255C201.962 108.267 201.939 108.274 201.919 108.286L201.929 108.284C201.899 108.303 201.869 108.314 201.839 108.333C201.519 108.547 201.21 108.825 201.06 109.217C200.91 109.608 200.968 110.135 201.271 110.384C201.469 110.546 201.726 110.564 201.968 110.577C202.316 110.595 202.666 110.613 203.014 110.631C203.466 110.655 203.924 110.678 204.366 110.569C204.809 110.459 205.24 110.202 205.492 109.767C205.756 109.32 205.776 108.657 205.456 108.254Z" fill="black"/>
<path d="M203.022 118.029C203.038 117.463 202.896 116.807 203.239 116.307L203.339 116.231C203.725 116.047 204.183 115.925 204.564 116.118C204.906 116.293 205.103 116.687 205.175 117.079C205.274 117.615 205.182 118.165 205.088 118.702C205.038 118.987 204.988 119.277 204.864 119.535C204.74 119.793 204.533 120.023 204.265 120.096C203.825 120.216 203.367 119.87 203.178 119.437C202.991 119.001 203.01 118.505 203.022 118.029Z" fill="black"/>
<path d="M215.619 117.707C215.634 117.14 215.493 116.485 215.836 115.985L215.936 115.909C216.322 115.725 216.78 115.603 217.161 115.796C217.503 115.971 217.7 116.365 217.772 116.757C217.871 117.293 217.778 117.843 217.685 118.38C217.635 118.665 217.585 118.955 217.461 119.213C217.337 119.471 217.13 119.701 216.863 119.774C216.423 119.894 215.965 119.548 215.776 119.114C215.588 118.679 215.607 118.183 215.619 117.707Z" fill="black"/>
<path d="M214.852 139.705L211.918 142.002C211.314 142.816 211.088 143.006 211.179 144.015C206.54 143.396 202.766 142.916 199.362 139.705C204.95 141.291 208.722 141.9 214.852 139.705Z" fill="black"/>
<path d="M208.389 125.569C208.349 125.472 209.015 125.229 209.803 124.488C210.194 124.12 210.607 123.622 210.923 122.995C211.081 122.683 211.216 122.34 211.309 121.973C211.368 121.799 211.377 121.534 211.39 121.657C211.481 121.701 211.306 121.647 211.104 121.725C210.253 121.925 209.443 122.118 208.649 122.305L208.639 122.308C208.489 122.344 208.337 122.25 208.301 122.1L208.294 122.05C208.176 119.882 208.17 118.371 208.298 118.361C208.425 118.351 208.649 119.846 208.864 122.007L208.51 121.751C209.301 121.546 210.106 121.338 210.952 121.118C211.14 121.101 211.462 120.894 211.868 121.26C212.034 121.466 212.001 121.695 211.98 121.809L211.901 122.131C211.786 122.544 211.622 122.926 211.431 123.268C211.048 123.953 210.552 124.47 210.089 124.825C209.15 125.54 208.401 125.634 208.389 125.569Z" fill="black"/>
<path d="M176.959 110.75C173.393 121.481 179.54 132.756 189.437 138.225L189.614 122.191C199.096 116.205 204.52 106.071 206.118 95.652C191.995 90.9446 180.524 100.019 176.959 110.75Z" fill="black"/>
<path d="M193.748 132.833C191.479 133.173 187.486 131.951 186.336 130.872C184.759 129.392 183.999 127.742 183.942 125.58C183.884 123.418 184.883 121.174 186.73 120.052C188.578 118.929 191.25 119.187 192.624 120.855" fill="white"/>
<path d="M192.626 120.856C192.584 120.893 192.339 120.601 191.781 120.253C191.235 119.903 190.31 119.549 189.148 119.595C187.993 119.622 186.627 120.16 185.662 121.353C184.692 122.522 184.126 124.228 184.277 125.995C184.38 127.784 185.194 129.342 186.299 130.432C186.804 130.992 187.468 131.299 188.104 131.589C188.742 131.865 189.363 132.072 189.935 132.237C192.24 132.921 193.744 132.75 193.751 132.833C193.784 132.919 192.222 133.257 189.824 132.665C189.228 132.523 188.581 132.335 187.904 132.067C187.247 131.794 186.483 131.463 185.89 130.837C184.692 129.714 183.755 127.964 183.654 126.039C183.49 124.121 184.124 122.248 185.222 120.98C186.312 119.678 187.89 119.114 189.141 119.152C190.41 119.161 191.384 119.616 191.921 120.052C192.469 120.488 192.65 120.84 192.626 120.856Z" fill="black"/>
<path d="M191.388 129.276C191.389 129.31 191.154 129.36 190.785 129.181C190.422 129.012 189.976 128.547 189.773 127.86C189.667 127.517 189.596 127.157 189.558 126.74C189.534 126.328 189.529 125.852 189.784 125.369C190.019 124.867 190.691 124.551 191.261 124.678C191.841 124.764 192.333 125.161 192.662 125.582C192.836 125.798 192.982 126.018 193.115 126.218L192.572 126.516C191.857 124.887 190.52 123.851 189.498 123.362C188.462 122.853 187.729 122.78 187.742 122.681C187.739 122.621 188.507 122.54 189.666 122.977C190.802 123.394 192.327 124.456 193.141 126.268C193.212 126.424 193.143 126.609 192.985 126.679C192.845 126.741 192.68 126.688 192.597 126.566C192.464 126.367 192.325 126.163 192.175 125.978C191.643 125.208 190.615 125.014 190.284 125.655C189.946 126.282 190.089 127.151 190.2 127.743C190.329 128.359 190.638 128.766 190.915 128.975C191.187 129.185 191.395 129.226 191.388 129.276Z" fill="black"/>
<path d="M208.208 118.069C208.145 118.073 208.16 117.485 207.885 116.497C207.614 115.528 206.945 114.114 205.484 113.031C204.071 111.945 201.753 111.341 199.514 112.179C197.293 112.948 195.378 115.311 195.404 118.068C195.378 120.826 197.293 123.19 199.514 123.958C201.753 124.795 204.072 124.192 205.484 123.106C206.945 122.023 207.614 120.608 207.885 119.64C208.16 118.654 208.146 118.066 208.208 118.069C208.23 118.069 208.243 118.213 208.251 118.491C208.263 118.768 208.233 119.182 208.122 119.7C207.913 120.722 207.281 122.251 205.753 123.458C204.279 124.665 201.777 125.384 199.318 124.5C198.106 124.077 196.947 123.262 196.121 122.126C195.273 121.006 194.791 119.557 194.779 118.066C194.791 116.577 195.273 115.129 196.121 114.009C196.948 112.874 198.106 112.059 199.318 111.636C201.777 110.751 204.279 111.47 205.753 112.678C207.281 113.884 207.914 115.414 208.123 116.437C208.234 116.956 208.264 117.369 208.252 117.646C208.245 117.926 208.23 118.069 208.208 118.069Z" fill="black"/>
<path d="M224.394 118.377C224.331 118.38 224.346 117.793 224.071 116.805C223.799 115.836 223.131 114.421 221.67 113.339C220.257 112.252 217.938 111.649 215.699 112.487C213.478 113.256 211.564 115.618 211.589 118.375C211.564 121.133 213.478 123.497 215.699 124.267C217.938 125.104 220.258 124.501 221.67 123.414C223.131 122.332 223.799 120.917 224.071 119.949C224.346 118.961 224.332 118.374 224.394 118.377C224.416 118.377 224.43 118.521 224.436 118.798C224.448 119.076 224.418 119.489 224.308 120.007C224.099 121.03 223.467 122.559 221.939 123.765C220.464 124.973 217.962 125.692 215.503 124.807C214.292 124.384 213.134 123.569 212.307 122.434C211.458 121.314 210.976 119.864 210.964 118.374C210.976 116.885 211.458 115.436 212.307 114.317C213.134 113.181 214.292 112.368 215.503 111.945C217.962 111.06 220.464 111.779 221.939 112.987C223.467 114.193 224.1 115.723 224.309 116.746C224.42 117.265 224.45 117.677 224.438 117.955C224.43 118.232 224.416 118.377 224.394 118.377Z" fill="black"/>
<path d="M193.444 132.178C190.817 132.291 188.082 131.417 186.282 129.5C184.481 127.583 183.8 124.568 184.948 122.202C186.094 119.836 189.188 118.5 191.577 119.6L192.512 95.2482C181.293 98.3007 177.428 106.124 174.992 114.885C172.557 123.646 173.627 133.127 176.738 141.671C177.118 142.715 177.574 143.808 178.481 144.449C179.575 145.223 181.035 145.147 182.37 145.039C187.709 144.609 193.048 144.178 198.386 143.747C196.738 139.892 195.091 136.034 193.444 132.178Z" fill="black"/>
<path d="M177.917 119.76C177.865 119.672 179.415 118.809 181.709 117.053C184.001 115.308 186.994 112.577 189.63 108.922C189.731 108.783 189.926 108.751 190.065 108.851C190.143 108.908 190.188 108.995 190.194 109.084C190.23 109.644 190.234 110.242 190.196 110.844C190.074 112.965 189.472 114.957 188.608 116.605L188.199 116.213C191.21 114.518 193.269 112.292 194.502 110.606C195.744 108.907 196.258 107.76 196.337 107.8C196.366 107.813 196.265 108.111 196.029 108.641C195.787 109.169 195.394 109.923 194.802 110.816C193.631 112.594 191.577 114.939 188.491 116.728C188.35 116.809 188.17 116.761 188.088 116.621C188.037 116.532 188.039 116.421 188.082 116.336C188.889 114.747 189.454 112.838 189.571 110.808C189.606 110.232 189.604 109.66 189.571 109.125L190.135 109.287C187.439 112.997 184.342 115.719 181.959 117.394C180.767 118.237 179.761 118.844 179.051 119.23C178.342 119.613 177.936 119.792 177.917 119.76Z" fill="white"/>
<path d="M207.278 130.801C207.31 130.859 206.645 131.174 205.585 130.839C204.572 130.547 203.198 129.214 203.583 127.355C203.656 127.126 203.806 126.886 204.033 126.737C204.257 126.585 204.519 126.543 204.738 126.546C205.185 126.561 205.522 126.698 205.841 126.785C206.403 126.962 206.966 127.14 207.541 127.321C208.505 127.645 209.089 127.885 209.067 127.969C209.044 128.052 208.418 127.962 207.425 127.748C206.837 127.61 206.262 127.476 205.688 127.342C205.03 127.16 204.316 126.978 204.178 127.551C204.013 128.131 204.234 128.878 204.544 129.37C204.866 129.888 205.319 130.233 205.747 130.428C206.617 130.821 207.27 130.698 207.278 130.801Z" fill="black"/>
<path d="M275.725 154.52L256.059 175.18C256.059 175.18 242.536 161.084 234.234 154.926C225.932 148.769 217.025 149.621 217.025 149.621L214.399 149.684L211.433 145.107L202.654 152.907L189.748 146.135L183.72 150.985C183.72 150.985 167.967 150.918 162.872 161.932C158.888 170.542 148.697 189.148 144.1 202.487C141.496 210.045 143.92 220.338 148.269 221.519H165.793L165.899 226.844L217.058 227.217L231.81 183.714C231.81 183.714 250.07 199.271 259.11 196.472C268.15 193.673 288.783 163.281 288.783 163.281L275.725 154.52Z" fill="white" stroke="black" stroke-width="1.6206" stroke-miterlimit="10" stroke-linecap="round" stroke-linejoin="round"/>
<path d="M285.059 135.559C284.24 134.889 282.987 135.318 282.623 136.312C281.814 138.519 279.944 143.317 277.6 147.396C274.505 152.786 277.501 155.644 277.501 155.644L287.486 162.355C287.486 162.355 298.627 152.645 301.53 144.92C303.582 139.464 304.936 136.188 304.136 135.438C303.334 134.688 301.604 135.763 301.604 135.763C301.604 135.763 301.832 133.774 300.389 132.993C298.944 132.21 297.496 135.364 297.496 135.364C297.496 135.364 297.246 132.642 295.151 133.246C293.057 133.851 291.949 139.214 288.289 142.708C284.63 146.202 284.305 143.669 284.305 143.669C284.305 143.669 286.182 139.699 285.858 137.166C285.755 136.371 285.441 135.871 285.059 135.559Z" fill="white"/>
<path d="M285.059 135.559C285.059 135.559 285.247 135.646 285.482 135.958C285.715 136.265 285.947 136.824 285.976 137.572C286.058 139.069 285.555 141.22 284.457 143.74L284.471 143.647C284.519 143.9 284.669 144.181 284.904 144.288C285.137 144.411 285.449 144.374 285.75 144.275C286.358 144.052 286.936 143.618 287.501 143.145C288.622 142.17 289.661 140.941 290.558 139.481C291.485 138.037 292.228 136.373 293.256 134.703C293.518 134.287 293.821 133.878 294.204 133.508C294.601 133.142 295.167 132.891 295.738 132.897C296.336 132.868 296.926 133.264 297.224 133.747C297.536 134.239 297.694 134.764 297.769 135.336L297.24 135.246C297.505 134.694 297.811 134.178 298.198 133.681C298.591 133.217 299.056 132.665 299.863 132.583C300.279 132.559 300.629 132.785 300.889 132.984C301.166 133.201 301.387 133.488 301.541 133.798C301.85 134.426 301.947 135.097 301.896 135.796L301.446 135.512C302.076 135.163 302.726 134.837 303.564 134.886C303.964 134.9 304.475 135.187 304.6 135.675C304.711 136.108 304.659 136.485 304.607 136.85C304.341 138.295 303.817 139.63 303.328 141.009C302.814 142.374 302.291 143.76 301.762 145.163C301.19 146.581 300.46 147.941 299.619 149.24C297.911 151.905 295.9 154.262 293.885 156.477C291.851 158.681 289.774 160.712 287.677 162.577C287.575 162.667 287.426 162.672 287.318 162.6C283.762 160.195 280.423 157.937 277.352 155.86L277.34 155.852L277.317 155.833C275.994 154.352 275.782 152.39 276.076 150.743C276.369 149.069 277.191 147.645 277.909 146.401C279.313 143.847 280.354 141.524 281.173 139.604C281.566 138.644 281.918 137.782 282.228 137.023C282.389 136.647 282.482 136.295 282.676 135.973C282.868 135.661 283.144 135.458 283.406 135.334C283.946 135.083 284.43 135.181 284.691 135.303C284.967 135.43 285.059 135.559 285.059 135.559C285.047 135.577 284.931 135.473 284.668 135.377C284.411 135.286 283.963 135.224 283.482 135.476C283.249 135.601 283.007 135.793 282.847 136.075C282.693 136.348 282.596 136.731 282.45 137.105C282.173 137.87 281.844 138.744 281.456 139.718C280.675 141.662 279.669 144.011 278.285 146.603C277.562 147.889 276.816 149.23 276.549 150.824C276.274 152.363 276.543 154.204 277.68 155.455L277.645 155.428C280.729 157.487 284.08 159.725 287.65 162.11L287.291 162.132C289.354 160.283 291.422 158.249 293.433 156.061C295.428 153.86 297.418 151.519 299.094 148.903C299.919 147.628 300.63 146.302 301.182 144.94C301.712 143.54 302.235 142.158 302.75 140.796C303.238 139.435 303.763 138.081 304.008 136.754C304.062 136.43 304.087 136.091 304.023 135.848C303.975 135.644 303.779 135.507 303.5 135.482C302.947 135.432 302.287 135.711 301.759 136.014C301.614 136.097 301.431 136.046 301.348 135.902C301.316 135.847 301.304 135.787 301.309 135.728C301.354 135.169 301.266 134.549 301.021 134.061C300.802 133.585 300.286 133.156 299.885 133.157C299.439 133.183 298.987 133.602 298.641 134.033C298.29 134.477 297.989 134.98 297.746 135.477C297.679 135.616 297.512 135.674 297.373 135.607C297.284 135.563 297.228 135.477 297.217 135.387C297.113 134.453 296.614 133.397 295.733 133.431C294.823 133.398 294.196 134.202 293.687 134.98C292.683 136.581 291.905 138.27 290.949 139.728C290.022 141.203 288.927 142.466 287.761 143.451C287.168 143.931 286.567 144.38 285.865 144.627C285.517 144.735 285.103 144.795 284.738 144.602C284.372 144.406 284.196 144.044 284.134 143.689C284.13 143.659 284.133 143.628 284.145 143.602L284.149 143.594C285.273 141.138 285.822 139.021 285.794 137.576C285.8 136.087 285.001 135.567 285.059 135.559Z" fill="black"/>
<path d="M301.604 135.763L295.567 146.397C295.567 146.397 283.861 148.779 284.298 158.382" fill="white"/>
<path d="M284.299 158.382C284.256 158.384 284.228 157.963 284.215 157.189C284.181 156.8 284.245 156.333 284.346 155.789C284.4 155.52 284.418 155.22 284.515 154.922C284.62 154.62 284.728 154.306 284.84 153.982C285.352 152.691 286.266 151.245 287.648 150.017C289.017 148.778 290.784 147.746 292.742 146.957C293.668 146.604 294.579 146.305 295.507 146.098L295.301 146.247C297.033 143.223 298.576 140.584 299.702 138.711C300.828 136.836 301.539 135.728 301.605 135.765C301.671 135.802 301.083 136.981 300.051 138.909C299.018 140.837 297.544 143.514 295.836 146.551C295.793 146.628 295.721 146.68 295.64 146.698L295.629 146.7C294.768 146.9 293.864 147.198 292.971 147.54C291.072 148.306 289.361 149.288 288.032 150.449C286.691 151.601 285.79 152.941 285.25 154.152C284.226 156.631 284.468 158.398 284.299 158.382Z" fill="black"/>
<path d="M297.495 135.363C297.146 135.809 291.812 144.475 291.812 144.475L297.495 135.363Z" fill="white"/>
<path d="M291.812 144.475C291.664 144.386 292.821 142.266 294.397 139.741C295.973 137.215 297.36 135.256 297.495 135.364C297.629 135.472 296.472 137.592 294.91 140.099C293.347 142.605 291.959 144.563 291.812 144.475Z" fill="black"/>
<path d="M198.733 175.311L202.485 207.736H218.296L221.377 175.311H198.733Z" fill="white"/>
<path d="M198.734 175.311C198.724 175.301 198.854 175.293 199.116 175.285C199.426 175.277 199.813 175.268 200.292 175.257C201.397 175.241 202.922 175.219 204.84 175.191C208.872 175.157 214.545 175.11 221.378 175.053C221.519 175.052 221.635 175.166 221.636 175.307L221.635 175.336C220.863 183.621 219.931 193.624 218.927 204.398C218.819 205.531 218.712 206.656 218.606 207.766C218.591 207.928 218.454 208.049 218.295 208.049C212.727 208.042 207.407 208.035 202.484 208.027C202.336 208.028 202.213 207.913 202.196 207.77C201.154 198.251 200.265 190.122 199.628 184.306C199.336 181.498 199.102 179.251 198.935 177.644C198.866 176.918 198.81 176.339 198.767 175.892C198.734 175.499 198.722 175.3 198.734 175.311C198.746 175.322 198.783 175.542 198.84 175.956C198.903 176.417 198.984 177.014 199.083 177.763C199.29 179.382 199.578 181.647 199.939 184.478C200.642 190.235 201.624 198.281 202.773 207.704L202.484 207.447C207.407 207.44 212.727 207.432 218.295 207.425L217.984 207.708C218.089 206.597 218.196 205.472 218.303 204.339C219.348 193.569 220.316 183.57 221.119 175.288L221.376 175.571C214.616 175.514 209.002 175.466 205.012 175.432C203.067 175.405 201.522 175.383 200.402 175.366C199.9 175.356 199.495 175.346 199.173 175.339C198.893 175.328 198.743 175.32 198.734 175.311Z" fill="black"/>
<path d="M196.098 177.589L197.419 172.555H222.031L223.923 177.589H196.098Z" fill="black"/>
<path d="M218.914 170.152L201.372 168.914L200.481 172.229H219.368L218.914 170.152Z" fill="black"/>
<path d="M192.69 200.11L196.39 200.003C196.39 200.003 195.591 197.736 196.402 195.766C196.402 195.766 194.717 192.382 195.118 189.514C195.454 187.118 197.246 183.926 200.867 183.871C203.501 183.832 203.369 186.051 202.327 186.747C201.284 187.442 199.547 188.6 200.126 190.223C200.126 190.223 204.181 188.369 205.338 190.685C206.497 193.002 204.527 193.929 204.527 193.929C204.527 193.929 205.918 193.466 206.38 195.203C206.844 196.941 205.454 197.635 205.454 197.635C203.73 198.424 201.276 201.41 201.631 203.079C201.631 203.079 205.652 200.899 207.178 202.405C208.706 203.911 207.107 205.498 206.474 205.396C205.771 205.283 203.715 205.281 203.484 206.902C203.252 208.523 204.643 212.346 202.905 214.201C201.167 216.054 199.199 216.054 199.199 216.054L193.724 216.346L192.69 200.11Z" fill="white"/>
<path d="M192.69 200.11C192.698 200.117 192.713 200.222 192.733 200.418C192.755 200.651 192.781 200.933 192.812 201.276C192.877 202.075 192.965 203.159 193.077 204.525C193.288 207.371 193.586 211.387 193.953 216.332L193.713 216.118C194.722 216.059 195.772 215.996 196.86 215.933C197.404 215.901 197.958 215.869 198.522 215.836C199.103 215.804 199.621 215.799 200.157 215.623C201.207 215.311 202.24 214.63 202.928 213.727C203.562 212.789 203.559 211.485 203.451 210.235C203.377 209.593 203.303 208.943 203.227 208.287C203.18 207.638 203.031 206.886 203.442 206.142C203.875 205.417 204.702 205.153 205.413 205.079C205.781 205.041 206.151 205.047 206.524 205.099C206.633 205.119 206.963 204.919 207.136 204.706C208.05 203.801 207.146 202.124 205.803 202.196C204.47 202.152 203.05 202.721 201.779 203.355L201.758 203.364C201.608 203.439 201.427 203.378 201.351 203.229C201.338 203.202 201.329 203.173 201.323 203.146C201.204 202.465 201.406 201.833 201.658 201.264C201.918 200.69 202.263 200.162 202.649 199.665C203.126 199.058 203.659 198.502 204.264 198.022C204.572 197.789 204.892 197.561 205.249 197.391C205.514 197.259 205.757 197.025 205.918 196.768C206.568 195.765 205.819 193.795 204.622 194.224C204.463 194.281 204.286 194.197 204.229 194.037C204.176 193.892 204.241 193.732 204.375 193.661L204.394 193.652C205.007 193.327 205.453 192.649 205.389 191.951C205.318 191.26 205.023 190.468 204.447 190.151C203.875 189.781 203.088 189.787 202.368 189.877C201.638 189.986 200.908 190.207 200.245 190.488C200.096 190.555 199.921 190.486 199.856 190.337L199.85 190.321C199.597 189.64 199.747 188.824 200.152 188.282C200.535 187.717 201.04 187.311 201.54 186.946C201.778 186.768 202.078 186.59 202.263 186.441C202.448 186.287 202.589 186.071 202.668 185.836C202.841 185.363 202.715 184.836 202.346 184.543C201.57 183.947 200.309 184.106 199.356 184.374C198.356 184.663 197.519 185.299 196.886 186.047C195.621 187.577 195.132 189.509 195.301 191.196C195.464 192.903 195.983 194.428 196.552 195.692C196.573 195.737 196.573 195.788 196.557 195.832C195.943 197.407 196.205 198.901 196.499 199.965L196.502 199.975C196.519 200.037 196.483 200.099 196.423 200.116L196.393 200.12C195.244 200.124 194.341 200.128 193.67 200.132C193.042 200.129 192.705 200.124 192.69 200.11C192.674 200.097 192.981 200.073 193.6 200.034C194.286 199.998 195.211 199.949 196.387 199.886L196.28 200.041C195.941 198.935 195.62 197.424 196.246 195.703L196.251 195.841C195.635 194.543 195.084 193.016 194.887 191.234C194.686 189.455 195.171 187.391 196.513 185.738C197.184 184.924 198.101 184.214 199.202 183.883C199.746 183.696 200.326 183.635 200.911 183.611C201.495 183.602 202.151 183.7 202.692 184.127C203.244 184.555 203.431 185.372 203.192 186.011C203.084 186.335 202.894 186.637 202.62 186.869C202.339 187.092 202.114 187.216 201.869 187.402C200.938 188.055 199.981 189.05 200.398 190.124L200.003 189.957C200.732 189.644 201.478 189.415 202.281 189.288C203.07 189.192 203.97 189.147 204.763 189.636C205.164 189.859 205.459 190.254 205.651 190.648C205.837 191.033 205.967 191.462 205.998 191.917C206.074 192.856 205.504 193.775 204.657 194.208L204.429 193.637C204.87 193.515 205.304 193.547 205.712 193.754C206.111 193.966 206.382 194.34 206.536 194.712C206.84 195.433 206.913 196.348 206.45 197.093C206.222 197.453 205.92 197.75 205.527 197.95C205.217 198.096 204.934 198.301 204.651 198.514C204.095 198.955 203.59 199.481 203.143 200.05C202.444 200.956 201.797 202.088 201.935 203.017L201.481 202.808C202.849 202.14 204.256 201.541 205.84 201.581C206.233 201.586 206.639 201.708 207.013 201.898C207.377 202.148 207.651 202.425 207.855 202.785C208.302 203.507 208.147 204.519 207.596 205.105C207.305 205.383 207.043 205.704 206.436 205.697C206.119 205.651 205.793 205.644 205.474 205.678C204.845 205.738 204.225 205.971 203.952 206.445C203.671 206.905 203.749 207.584 203.808 208.227C203.88 208.887 203.951 209.539 204.021 210.186C204.116 211.473 204.155 212.886 203.38 214.04C202.564 215.093 201.475 215.775 200.301 216.125C199.72 216.314 199.079 216.32 198.535 216.344C197.973 216.371 197.42 216.398 196.876 216.424C195.789 216.476 194.741 216.526 193.734 216.574C193.609 216.583 193.502 216.484 193.493 216.36C193.226 211.35 193.008 207.28 192.854 204.395C192.792 203.048 192.744 201.979 192.708 201.19C192.681 200.467 192.673 200.095 192.69 200.11Z" fill="black"/>
<path d="M200.426 209.222C200.282 209.266 199.328 207.216 198.1 204.677C196.871 202.137 196.155 199.926 196.341 199.865C196.485 199.82 197.438 201.869 198.666 204.41C199.896 206.949 200.612 209.161 200.426 209.222Z" fill="black"/>
<path d="M196.405 195.782C196.246 195.756 196.52 194.073 197.699 192.386C198.866 190.689 200.344 189.842 200.425 189.981C200.535 190.129 199.305 191.148 198.213 192.743C197.104 194.323 196.582 195.834 196.405 195.782Z" fill="black"/>
<path d="M204.739 193.877C204.747 193.981 204.072 194.032 203.125 194.47C202.173 194.889 201.011 195.788 200.032 197.06C199.042 198.32 198.452 199.676 198.013 200.654C197.581 201.639 197.29 202.247 197.206 202.215C197.128 202.187 197.27 201.532 197.6 200.496C197.936 199.471 198.484 198.019 199.538 196.675C200.571 195.33 201.888 194.401 202.96 194.059C204.032 193.698 204.743 193.81 204.739 193.877Z" fill="black"/>
<path d="M165.255 220.819C165.255 220.802 165.441 220.781 165.803 220.755C166.218 220.733 166.744 220.703 167.393 220.666C168.85 220.608 170.861 220.527 173.364 220.426C178.542 220.263 185.738 220.037 194.125 219.772L193.839 220.085C193.543 215.537 193.221 210.565 192.885 205.381C192.759 203.388 192.635 201.428 192.515 199.522L192.833 199.812C183.728 200.044 175.535 200.253 169.141 200.416C169.102 200.418 169.063 200.408 169.031 200.391C167.127 199.425 165.192 199.01 163.495 198.927C161.792 198.831 160.321 199.069 159.158 199.361C156.823 199.984 155.702 200.795 155.667 200.718C155.667 200.718 156.733 199.828 159.091 199.115C160.266 198.78 161.762 198.498 163.511 198.563C165.252 198.614 167.252 199.005 169.238 199.981L169.128 199.956C175.52 199.749 183.713 199.485 192.815 199.191C192.982 199.186 193.123 199.316 193.134 199.481C193.256 201.387 193.381 203.348 193.51 205.339C193.833 210.525 194.144 215.496 194.428 220.045C194.439 220.206 194.317 220.347 194.156 220.358H194.142C185.751 220.531 178.554 220.68 173.375 220.785C170.871 220.815 168.858 220.84 167.4 220.856C166.75 220.854 166.223 220.852 165.807 220.85C165.443 220.848 165.255 220.836 165.255 220.819Z" fill="black"/>
<path d="M169.132 200.189C169.057 200.165 169.429 198.766 170.24 196.578C171.043 194.387 172.298 191.42 173.738 188.175C175.177 184.929 176.492 181.999 177.397 179.86C178.309 177.724 178.828 176.383 178.916 176.412C178.992 176.436 178.619 177.835 177.808 180.023C177.005 182.214 175.751 185.181 174.31 188.427C172.87 191.672 171.555 194.601 170.651 196.74C169.739 198.877 169.221 200.218 169.132 200.189Z" fill="black"/>
<path d="M201.909 153.449C201.965 153.469 201.779 154.143 201.235 155.19C200.724 156.246 199.767 157.639 199.035 159.391C198.974 159.539 198.805 159.61 198.657 159.547L198.642 159.541C197.413 158.954 196.066 158.257 194.678 157.473C191.999 155.962 189.689 154.4 188.08 153.192C186.466 151.988 185.54 151.153 185.59 151.089C185.646 151.016 186.665 151.726 188.335 152.829C190.002 153.939 192.328 155.429 194.987 156.927C196.363 157.706 197.691 158.413 198.896 159.027L198.503 159.177C199.329 157.336 200.34 156.021 200.933 155.019C201.556 154.036 201.845 153.425 201.909 153.449Z" fill="black"/>
<path d="M213.924 149.413C213.994 149.454 213.576 150.368 212.75 151.772C211.926 153.168 210.633 155.068 208.764 156.752C208.302 157.177 207.829 157.561 207.363 157.927C207.117 158.109 206.846 158.307 206.467 158.37C206.078 158.446 205.67 158.219 205.479 157.98C204.816 157.043 204.297 156.325 203.79 155.664C202.805 154.376 202.286 153.498 202.364 153.448C202.433 153.406 203.063 154.171 204.135 155.387C204.656 155.976 205.311 156.79 205.901 157.587C206.186 157.925 206.531 157.804 206.988 157.442C207.432 157.082 207.895 156.703 208.342 156.289C210.154 154.657 211.464 152.858 212.378 151.533C213.291 150.205 213.845 149.366 213.924 149.413Z" fill="black"/>
<path d="M181.41 173.07C181.299 173.059 181.413 171.959 181.24 170.213C181.074 168.471 180.514 166.084 179.271 163.719C178.013 161.36 176.354 159.555 175.005 158.438C173.658 157.314 172.685 156.79 172.738 156.693C172.762 156.637 173.82 157.024 175.279 158.091C176.736 159.146 178.521 160.977 179.823 163.425C181.115 165.878 181.627 168.382 181.683 170.181C181.744 171.988 181.469 173.082 181.41 173.07Z" fill="black"/>
<path d="M225.087 161.261C225.121 161.233 225.365 161.481 225.78 161.956C226.202 162.424 226.753 163.153 227.378 164.091C228.632 165.964 230.069 168.778 230.977 172.114C231.875 175.455 232.053 178.61 231.914 180.86C231.847 181.986 231.738 182.892 231.61 183.51C231.491 184.129 231.404 184.465 231.362 184.458C231.255 184.442 231.452 183.069 231.471 180.847C231.497 178.627 231.253 175.549 230.374 172.279C229.485 169.013 228.145 166.232 227.004 164.327C225.865 162.416 225.003 161.328 225.087 161.261Z" fill="black"/>
<path d="M177.727 179.633L173.248 200.189H169.132L177.727 179.633Z" fill="black"/>
<path d="M221.736 172.555C221.736 172.729 216.244 172.868 209.471 172.868C202.696 172.868 197.206 172.727 197.206 172.555C197.206 172.384 202.697 172.243 209.471 172.243C216.245 172.242 221.736 172.382 221.736 172.555Z" fill="white"/>
<path d="M235.316 305.355L244.369 390.299H239.843L226.42 305.355H235.316Z" fill="black"/>
<path d="M237.435 305.355H156.191C152.113 305.355 148.807 302.049 148.807 297.971V288.501C148.807 284.423 152.113 281.117 156.191 281.117H237.435C241.513 281.117 244.819 284.423 244.819 288.501V297.971C244.819 302.05 241.514 305.355 237.435 305.355Z" fill="white"/>
<path d="M237.435 305.355C237.426 305.3 238.252 305.391 239.692 304.933C240.403 304.696 241.255 304.281 242.095 303.575C242.914 302.859 243.754 301.857 244.23 300.514C244.796 299.187 244.667 297.571 244.67 295.818C244.661 294.062 244.653 292.157 244.644 290.112C244.617 289.085 244.716 288.022 244.47 286.987C244.239 285.947 243.765 284.928 243.064 284.042C242.369 283.151 241.415 282.431 240.332 281.941C239.235 281.439 238.021 281.301 236.734 281.337C216.098 281.361 187.635 281.394 156.198 281.429C154.31 281.42 152.452 282.204 151.154 283.541C149.84 284.867 149.107 286.706 149.119 288.547C149.118 290.461 149.118 292.362 149.117 294.248C149.117 295.191 149.116 296.13 149.116 297.065C149.104 298.016 149.116 298.894 149.351 299.759C149.794 301.482 150.912 302.995 152.383 303.933C153.118 304.406 153.935 304.737 154.781 304.911C155.623 305.093 156.498 305.045 157.401 305.054C160.968 305.058 164.46 305.062 167.867 305.065C181.491 305.091 193.76 305.113 204.074 305.133C214.361 305.175 222.693 305.208 228.484 305.232C231.344 305.258 233.575 305.278 235.12 305.291C235.858 305.304 236.431 305.315 236.846 305.322C237.235 305.333 237.435 305.355 237.435 305.355C237.435 305.355 237.235 305.377 236.847 305.387C236.433 305.395 235.859 305.405 235.121 305.419C233.576 305.432 231.344 305.452 228.485 305.478C222.694 305.502 214.361 305.535 204.076 305.577C193.761 305.596 181.492 305.619 167.868 305.645C164.461 305.648 160.969 305.652 157.402 305.655C156.526 305.647 155.592 305.701 154.662 305.504C153.743 305.315 152.853 304.957 152.056 304.445C150.458 303.43 149.241 301.788 148.758 299.916C148.499 298.987 148.487 297.982 148.499 297.067C148.499 296.132 148.498 295.194 148.498 294.25C148.497 292.365 148.497 290.464 148.496 288.549C148.48 286.557 149.278 284.545 150.707 283.105C152.117 281.65 154.144 280.794 156.197 280.805C187.634 280.841 216.097 280.873 236.733 280.896C238.014 280.864 239.361 281.02 240.502 281.557C241.646 282.082 242.647 282.85 243.375 283.796C244.108 284.736 244.602 285.814 244.835 286.91C245.087 288.019 244.974 289.101 244.994 290.114C244.984 292.159 244.976 294.064 244.969 295.82C244.948 297.549 245.063 299.229 244.459 300.602C243.95 301.983 243.068 303.002 242.217 303.72C241.342 304.428 240.463 304.833 239.733 305.056C238.997 305.27 238.416 305.343 238.026 305.36C237.634 305.367 237.435 305.355 237.435 305.355Z" fill="black"/>
<path d="M160.874 305.355L151.821 390.299H156.347L169.769 305.355H160.874Z" fill="black"/>
<path d="M16.0011 390.3L0.31665 328.463H69.0515L55.3992 390.3H16.0011Z" fill="black"/>
<path d="M191.056 15.5963L157.63 22.938C155.874 23.3238 154.764 25.0592 155.15 26.815L156.813 34.3874C152.744 35.2816 150.168 39.3051 151.062 43.3756C151.956 47.4448 155.98 50.0202 160.049 49.1261L162.491 60.2426C162.877 61.9984 164.612 63.1089 166.368 62.7231L178.564 60.0443C178.592 60.3832 178.634 60.7233 178.708 61.0646C179.602 65.1339 183.626 67.7093 187.695 66.8152C191.764 65.921 194.34 61.8975 193.446 57.8282C193.371 57.4869 193.267 57.16 193.149 56.8416L199.793 55.3826C201.549 54.9968 202.66 53.2615 202.274 51.5056L194.932 18.0792C194.548 16.321 192.812 15.2106 191.056 15.5963Z" fill="black"/>
<path d="M48.3483 189.636L8.11743 198.473C6.0047 198.937 4.6683 201.026 5.13219 203.14L7.13435 212.254C2.23587 213.33 -0.86233 218.173 0.213267 223.071C1.28886 227.97 6.13206 231.068 11.0305 229.992L13.9689 243.372C14.4328 245.485 16.5215 246.821 18.6342 246.357L33.3128 243.133C33.3453 243.54 33.3957 243.95 33.4871 244.361C34.5627 249.259 39.4059 252.358 44.3044 251.282C49.2028 250.206 52.301 245.363 51.2254 240.465C51.1353 240.054 51.0091 239.661 50.8685 239.277L58.8664 237.52C60.9791 237.056 62.3155 234.968 61.8516 232.854L53.0149 192.623C52.551 190.509 50.4611 189.171 48.3483 189.636Z" fill="white"/>
<path d="M309.019 271.848L310.763 279.788C306.45 280.735 303.722 284.999 304.67 289.312C305.617 293.626 309.881 296.354 314.194 295.405L316.763 307.101C317.183 309.008 315.976 310.893 314.069 311.312L301.229 314.133C299.872 310.438 295.97 308.216 292.02 309.084C288.068 309.952 285.457 313.605 285.773 317.528L278.816 319.057C276.909 319.476 275.024 318.269 274.605 316.362L266.862 281.109C266.442 279.202 267.649 277.317 269.556 276.898L304.809 269.155C306.715 268.735 308.601 269.942 309.019 271.848Z" fill="#EBEBEB"/>
<path d="M377.306 137.403L375.152 147.206C380.477 148.375 383.845 153.641 382.675 158.966C381.506 164.291 376.241 167.659 370.917 166.489L367.746 180.928C367.229 183.283 368.718 185.61 371.072 186.127L386.924 189.609C388.598 185.048 393.416 182.304 398.295 183.376C403.173 184.448 406.399 188.957 406.007 193.801L414.597 195.687C416.951 196.204 419.279 194.715 419.796 192.361L429.356 148.836C429.873 146.481 428.384 144.154 426.03 143.637L382.505 134.077C380.15 133.56 377.824 135.049 377.306 137.403Z" fill="white"/>
<path d="M116.158 226L96.1904 390.299H102.846L128.176 226H116.158Z" fill="white"/>
<path d="M116.158 226C116.158 226 116.401 225.986 116.903 225.977C117.427 225.971 118.178 225.963 119.166 225.951C121.207 225.936 124.216 225.916 128.175 225.888C128.236 225.888 128.286 225.937 128.288 225.999L128.286 226.017C124.524 250.627 114.897 313.584 103.621 387.326C103.461 388.361 103.303 389.393 103.156 390.346C103.132 390.501 102.999 390.612 102.846 390.612C100.517 390.612 98.3007 390.612 96.1904 390.612C96.0185 390.612 95.8779 390.473 95.8779 390.299L95.8803 390.261C101.506 344.384 106.545 303.284 110.18 273.633C112.017 258.858 113.497 246.939 114.522 238.692C115.039 234.602 115.441 231.428 115.716 229.253C115.854 228.194 115.961 227.382 116.035 226.815C116.109 226.268 116.158 226 116.158 226C116.158 226 116.138 226.299 116.076 226.86C116.011 227.438 115.919 228.265 115.797 229.343C115.542 231.537 115.168 234.737 114.687 238.86C113.705 247.128 112.285 259.078 110.525 273.891C106.96 303.496 102.018 344.532 96.5005 390.337L96.1904 389.987C98.3007 389.987 100.517 389.987 102.846 389.987L102.537 390.253C102.684 389.3 102.843 388.267 103.002 387.233C114.459 313.516 124.24 250.585 128.064 225.983L128.175 226.112C124.241 226.084 121.254 226.064 119.226 226.049C118.227 226.037 117.469 226.029 116.939 226.023C116.427 226.014 116.158 226 116.158 226Z" fill="black"/>
<path d="M327.176 226L347.299 390.299H340.684L315.158 226H327.176Z" fill="white"/>
<path d="M327.176 226C327.176 226 326.906 226.014 326.393 226.023C325.863 226.029 325.106 226.037 324.106 226.049C322.079 226.064 319.091 226.084 315.158 226.112L315.268 225.982C319.121 250.579 328.976 313.501 340.519 387.205C340.681 388.248 340.842 389.289 340.993 390.25L340.684 389.986C342.998 389.986 345.2 389.986 347.298 389.986L346.988 390.337C341.429 344.532 336.447 303.497 332.854 273.891C331.08 259.078 329.649 247.128 328.66 238.86C328.174 234.737 327.798 231.537 327.541 229.343C327.418 228.265 327.326 227.438 327.26 226.86C327.197 226.299 327.176 226 327.176 226C327.176 226 327.224 226.268 327.299 226.815C327.374 227.383 327.481 228.194 327.622 229.253C327.899 231.428 328.303 234.603 328.823 238.692C329.856 246.94 331.348 258.858 333.198 273.634C336.861 303.285 341.94 344.385 347.607 390.261C347.629 390.432 347.506 390.588 347.336 390.61L347.297 390.612C345.2 390.612 342.997 390.612 340.683 390.612C340.526 390.612 340.396 390.497 340.374 390.346C340.225 389.385 340.062 388.344 339.9 387.301C328.538 313.569 318.838 250.622 315.046 226.017C315.036 225.955 315.077 225.899 315.139 225.888L315.158 225.887C319.118 225.915 322.126 225.935 324.166 225.949C325.155 225.961 325.905 225.97 326.429 225.976C326.933 225.986 327.176 226 327.176 226Z" fill="black"/>
<path d="M352.588 215.037H76.4497V226.001H352.588V215.037Z" fill="black"/>
<path d="M238.898 351.582C240.399 346.997 241.901 342.412 243.402 337.827L264.704 344.804L257.228 364.647L241.388 365.386L237.545 355.716L238.898 351.582Z" fill="white"/>
<path d="M238.898 351.582C238.921 351.589 238.824 351.964 238.614 352.67C238.381 353.436 238.066 354.463 237.671 355.758L237.669 355.666C238.638 358.04 239.977 361.321 241.603 365.301L241.376 365.155C245.867 364.926 251.263 364.652 257.213 364.351L256.949 364.543C258.449 360.548 260.082 356.2 261.778 351.683C262.678 349.297 263.56 346.96 264.416 344.695L264.608 345.097C256.465 342.399 249.134 339.97 243.33 338.047L243.621 337.899C242.207 342.083 241.053 345.493 240.23 347.928C239.832 349.063 239.513 349.968 239.274 350.648C239.05 351.267 238.92 351.589 238.898 351.582C238.876 351.574 238.963 351.239 239.148 350.606C239.357 349.916 239.637 348.998 239.986 347.849C240.762 345.398 241.85 341.966 243.182 337.756L243.252 337.538L243.473 337.61C249.29 339.492 256.638 341.87 264.799 344.511L265.105 344.611L264.991 344.914C264.139 347.179 263.259 349.518 262.362 351.904C260.655 356.418 259.012 360.762 257.503 364.753L257.433 364.937L257.239 364.945C251.287 365.199 245.889 365.429 241.397 365.62L241.23 365.627L241.171 365.473C239.62 361.463 238.343 358.158 237.419 355.766L237.401 355.719L237.416 355.675C237.863 354.397 238.218 353.383 238.482 352.628C238.733 351.934 238.875 351.574 238.898 351.582Z" fill="black"/>
<path d="M225.533 378.125C228.248 369.382 231.245 364.316 233.96 355.573C234.454 353.981 235.172 352.161 236.776 351.708C238.223 351.298 239.74 352.265 240.607 353.495C241.473 354.724 241.901 356.205 242.626 357.523C244.34 360.639 247.816 362.704 251.373 362.717C254.929 362.73 258.421 360.691 260.156 357.587C265.878 364.207 271.601 370.828 277.323 377.449C277.323 377.449 284.137 377.176 286.661 379.47C288.41 381.06 289.188 382.279 289.568 384.74C290.13 388.393 288.112 390.301 288.112 390.301L262.332 390.096L225.533 378.125Z" fill="white"/>
<path d="M225.533 378.125C225.533 378.125 225.785 378.187 226.24 378.325C226.723 378.474 227.385 378.679 228.23 378.941C229.993 379.498 232.52 380.296 235.727 381.309C242.178 383.374 251.355 386.31 262.411 389.848L262.333 389.834C270.131 389.884 278.817 389.939 288.114 389.998L287.903 390.081C288.966 388.934 289.457 387.19 289.341 385.53C289.207 383.842 288.742 382.112 287.569 380.826C286.986 380.18 286.357 379.527 285.618 379.13C284.862 378.717 284.002 378.451 283.127 378.253C281.369 377.867 279.521 377.746 277.679 377.755L277.336 377.762L277.183 377.766L277.087 377.654C271.062 370.673 265.262 363.955 259.933 357.783L260.417 357.734C258.207 361.642 253.545 363.664 249.51 362.806C247.496 362.413 245.677 361.41 244.27 360.069C243.566 359.396 242.965 358.632 242.493 357.808C242.014 356.985 241.687 356.122 241.319 355.314C240.951 354.51 240.551 353.728 239.986 353.125C239.423 352.519 238.709 352.049 237.944 351.901C237.181 351.738 236.395 351.983 235.837 352.495C235.271 353.005 234.895 353.704 234.604 354.411C234.06 355.846 233.646 357.331 233.149 358.687C232.659 360.051 232.175 361.35 231.684 362.573C229.703 367.457 228.016 371.28 227.04 373.974C226.538 375.31 226.17 376.37 225.931 377.051C225.813 377.379 225.719 377.641 225.646 377.845C225.578 378.024 225.54 378.121 225.533 378.125C225.526 378.129 225.547 378.041 225.597 377.861C225.657 377.65 225.733 377.38 225.829 377.041C226.045 376.301 226.377 375.264 226.853 373.905C227.772 371.184 229.41 367.325 231.338 362.435C231.816 361.211 232.286 359.912 232.763 358.55C233.252 357.183 233.636 355.748 234.193 354.241C234.494 353.503 234.883 352.744 235.531 352.15C236.165 351.55 237.133 351.24 238.033 351.43C238.934 351.601 239.723 352.126 240.345 352.787C240.978 353.46 241.397 354.281 241.779 355.102C242.159 355.925 242.487 356.772 242.943 357.546C243.393 358.324 243.966 359.045 244.637 359.679C245.978 360.946 247.711 361.893 249.617 362.256C253.412 363.057 257.835 361.117 259.897 357.439L260.105 357.069L260.382 357.39C265.718 363.557 271.525 370.268 277.561 377.241L277.312 377.133L277.671 377.124C279.558 377.116 281.434 377.236 283.264 377.639C284.175 377.847 285.081 378.122 285.92 378.582C286.782 379.057 287.425 379.737 288.04 380.417C289.317 381.826 289.825 383.718 289.956 385.489C290.063 387.299 289.585 389.158 288.322 390.518L288.243 390.602L288.111 390.601C278.814 390.512 270.129 390.429 262.331 390.355H262.29L262.252 390.343C251.166 386.678 241.964 383.636 235.496 381.498C232.332 380.438 229.837 379.602 228.096 379.02C227.278 378.74 226.639 378.521 226.171 378.362C225.736 378.212 225.52 378.131 225.533 378.125Z" fill="black"/>
<path d="M289.004 386.85C289.004 386.868 288.841 386.886 288.528 386.904C288.152 386.919 287.7 386.936 287.153 386.955C285.868 386.978 284.143 387.008 282.027 387.045C277.569 387.073 271.471 387.111 264.483 387.154C264.451 387.154 264.416 387.148 264.387 387.139C262.104 386.378 259.683 385.564 257.201 384.696C248.806 381.793 241.416 378.646 235.942 376.718C233.274 375.753 231.085 374.961 229.473 374.378C228.766 374.115 228.186 373.899 227.719 373.724C227.32 373.568 227.115 373.477 227.121 373.457C227.128 373.436 227.347 373.488 227.759 373.606C228.236 373.75 228.829 373.929 229.551 374.148C231.102 374.631 233.339 375.36 236.088 376.301C241.615 378.127 249.037 381.212 257.407 384.104C259.89 384.955 262.302 385.781 264.578 386.561L264.482 386.545C271.47 386.588 277.568 386.627 282.025 386.654C284.143 386.692 285.866 386.722 287.152 386.745C287.698 386.765 288.151 386.782 288.527 386.796C288.841 386.814 289.004 386.832 289.004 386.85Z" fill="black"/>
<path d="M269.849 377.319C269.69 377.273 270.153 375.925 271.548 374.99C272.935 374.042 274.359 374.113 274.343 374.276C274.362 374.459 273.124 374.661 271.899 375.508C270.659 376.33 270.011 377.406 269.849 377.319Z" fill="black"/>
<path d="M270.068 376.77C270.012 376.84 269.649 376.525 269.081 376.731C268.809 376.83 268.564 377.064 268.553 377.406C268.528 377.74 268.744 378.164 269.086 378.289C269.431 378.422 269.873 378.259 270.098 377.996C270.336 377.738 270.359 377.385 270.279 377.103C270.11 376.516 269.676 376.332 269.718 376.248C269.706 376.173 270.314 376.192 270.693 376.947C270.868 377.296 270.916 377.894 270.546 378.361C270.206 378.806 269.543 379.116 268.865 378.875C268.192 378.603 267.908 377.915 267.98 377.348C268.043 376.737 268.574 376.358 268.967 376.305C269.375 376.227 269.708 376.348 269.883 376.484C270.06 376.621 270.097 376.746 270.068 376.77Z" fill="black"/>
<path d="M266.072 372.734C265.913 372.689 266.376 371.34 267.771 370.405C269.158 369.457 270.582 369.528 270.565 369.691C270.584 369.874 269.346 370.076 268.122 370.923C266.883 371.745 266.234 372.82 266.072 372.734Z" fill="black"/>
<path d="M266.292 372.184C266.237 372.254 265.874 371.939 265.305 372.145C265.034 372.244 264.788 372.478 264.778 372.82C264.752 373.154 264.969 373.578 265.31 373.703C265.655 373.836 266.097 373.673 266.323 373.41C266.561 373.152 266.584 372.799 266.503 372.517C266.334 371.93 265.9 371.746 265.942 371.662C265.93 371.587 266.538 371.606 266.917 372.36C267.092 372.71 267.14 373.308 266.77 373.775C266.43 374.22 265.767 374.53 265.089 374.289C264.416 374.017 264.132 373.329 264.204 372.762C264.267 372.151 264.798 371.772 265.191 371.719C265.6 371.641 265.934 371.762 266.107 371.898C266.283 372.036 266.321 372.16 266.292 372.184Z" fill="black"/>
<path d="M262.201 368.533C262.042 368.487 262.505 367.139 263.9 366.204C265.287 365.255 266.711 365.326 266.694 365.49C266.713 365.672 265.476 365.874 264.251 366.722C263.012 367.544 262.363 368.619 262.201 368.533Z" fill="black"/>
<path d="M262.42 367.984C262.366 368.053 262.002 367.738 261.434 367.945C261.162 368.044 260.917 368.278 260.906 368.619C260.881 368.953 261.097 369.378 261.439 369.503C261.784 369.636 262.226 369.473 262.45 369.209C262.688 368.952 262.711 368.599 262.632 368.317C262.463 367.73 262.029 367.546 262.071 367.462C262.059 367.386 262.667 367.406 263.047 368.16C263.222 368.51 263.27 369.107 262.9 369.575C262.56 370.019 261.897 370.329 261.219 370.089C260.546 369.816 260.262 369.129 260.334 368.562C260.397 367.951 260.928 367.571 261.321 367.519C261.729 367.44 262.062 367.562 262.237 367.698C262.412 367.835 262.449 367.96 262.42 367.984Z" fill="black"/>
<path d="M262.192 360.065C262.221 360.079 262.02 360.555 261.521 361.342C261.028 362.131 260.168 363.196 258.885 364.274C257.607 365.354 255.859 366.394 253.733 367.056C251.616 367.722 249.102 367.951 246.571 367.425C244.048 366.856 241.853 365.606 240.202 364.125C238.541 362.642 237.379 360.971 236.663 359.459C235.94 357.947 235.599 356.623 235.475 355.7C235.348 354.777 235.362 354.262 235.394 354.26C235.54 354.227 235.544 356.355 237.057 359.26C237.801 360.702 238.962 362.288 240.58 363.692C242.191 365.096 244.299 366.272 246.702 366.814C249.113 367.315 251.519 367.117 253.566 366.505C255.621 365.898 257.333 364.935 258.607 363.93C261.187 361.911 262.072 359.974 262.192 360.065Z" fill="black"/>
<path d="M201.266 360.758C201.266 355.934 201.266 351.109 201.266 346.285H223.682L222.751 367.47L207.929 373.103L201.266 365.109V360.758Z" fill="white"/>
<path d="M201.265 360.758C201.289 360.758 201.313 361.144 201.334 361.882C201.35 362.682 201.372 363.757 201.399 365.109L201.368 365.022C203.028 366.976 205.322 369.678 208.105 372.954L207.844 372.886C212.041 371.272 217.085 369.331 222.644 367.193L222.453 367.457C222.636 363.193 222.834 358.553 223.04 353.732C223.153 351.185 223.264 348.688 223.371 346.271L223.679 346.593C215.1 346.563 207.378 346.536 201.265 346.515L201.495 346.284C201.452 350.699 201.417 354.3 201.393 356.871C201.368 358.072 201.346 359.031 201.332 359.753C201.31 360.412 201.287 360.758 201.265 360.758C201.242 360.758 201.22 360.412 201.199 359.754C201.183 359.033 201.162 358.074 201.137 356.872C201.112 354.301 201.077 350.702 201.035 346.285L201.033 346.056L201.266 346.055C207.379 346.033 215.102 346.006 223.68 345.976L224.002 345.975L223.988 346.299C223.883 348.717 223.775 351.213 223.665 353.759C223.447 358.58 223.239 363.22 223.047 367.482L223.039 367.678L222.856 367.747C217.278 369.84 212.22 371.738 208.01 373.318L207.853 373.377L207.748 373.25C205.027 369.922 202.785 367.178 201.161 365.193L201.129 365.153L201.13 365.106C201.158 363.753 201.178 362.679 201.195 361.88C201.218 361.144 201.241 360.758 201.265 360.758Z" fill="black"/>
<path d="M196.824 390.143C196.684 380.989 197.954 375.241 197.813 366.087C197.788 364.421 197.903 362.467 199.285 361.537C200.533 360.697 202.278 361.144 203.483 362.043C204.689 362.942 205.556 364.216 206.656 365.243C209.254 367.672 213.201 368.552 216.585 367.457C219.969 366.362 222.652 363.337 223.335 359.847C233.756 366.116 244.176 372.386 254.596 378.654C256.731 379.939 258.935 381.287 260.322 383.357C261.708 385.426 262.027 388.435 260.372 390.298L196.824 390.143Z" fill="white"/>
<path d="M196.824 390.143C196.83 390.137 196.941 390.131 197.152 390.125C197.39 390.12 197.697 390.116 198.083 390.108C198.932 390.101 200.125 390.092 201.654 390.078C204.785 390.066 209.287 390.048 214.921 390.027C226.224 390.019 242.064 390.01 260.372 389.998L260.146 390.099C261.315 388.8 261.429 386.769 260.821 385.058C260.23 383.31 258.839 381.901 257.287 380.762C255.716 379.622 253.953 378.654 252.231 377.597C250.498 376.555 248.748 375.502 246.983 374.441C238.609 369.396 230.558 364.546 223.181 360.102L223.625 359.905C222.739 364.313 218.929 367.687 214.825 368.122C212.786 368.373 210.745 367.98 208.992 367.141C208.113 366.719 207.306 366.18 206.601 365.541C205.892 364.907 205.314 364.188 204.711 363.535C204.111 362.884 203.486 362.269 202.759 361.874C202.036 361.475 201.209 361.256 200.435 361.358C199.659 361.445 198.994 361.934 198.628 362.593C198.251 363.257 198.116 364.039 198.059 364.802C197.993 366.336 198.058 367.877 198.009 369.317C197.968 370.767 197.911 372.15 197.825 373.465C197.462 378.719 197.05 382.872 196.961 385.734C196.899 387.158 196.879 388.278 196.865 388.998C196.855 389.346 196.846 389.623 196.84 389.84C196.834 390.034 196.83 390.137 196.824 390.143C196.818 390.149 196.81 390.059 196.802 389.873C196.794 389.654 196.782 389.375 196.768 389.024C196.743 388.254 196.737 387.168 196.765 385.729C196.791 382.862 197.147 378.688 197.457 373.444C197.53 372.133 197.574 370.754 197.602 369.31C197.641 367.86 197.562 366.378 197.619 364.772C197.676 363.978 197.804 363.136 198.23 362.368C198.642 361.601 199.456 360.993 200.371 360.889C201.28 360.766 202.196 361.013 202.994 361.445C203.807 361.883 204.463 362.532 205.081 363.193C205.699 363.857 206.274 364.561 206.949 365.157C207.617 365.758 208.386 366.266 209.221 366.663C210.889 367.451 212.833 367.818 214.759 367.571C218.619 367.157 222.227 363.936 223.044 359.792L223.126 359.378L223.488 359.595C230.87 364.03 238.926 368.87 247.306 373.905C249.071 374.967 250.821 376.02 252.554 377.063C254.275 378.123 256.028 379.082 257.654 380.263C259.254 381.44 260.75 382.934 261.4 384.859C262.054 386.712 261.957 388.979 260.596 390.5L260.505 390.602L260.37 390.601C241.981 390.499 226.072 390.411 214.718 390.349C209.113 390.299 204.635 390.26 201.519 390.232C200.017 390.212 198.844 390.196 198.011 390.185C197.64 390.177 197.344 390.17 197.116 390.164C196.915 390.156 196.816 390.149 196.824 390.143Z" fill="black"/>
<path d="M196.88 385.214C196.882 385.04 211.349 384.989 229.19 385.098C247.038 385.207 261.501 385.436 261.5 385.609C261.499 385.782 247.034 385.834 229.187 385.724C211.345 385.615 196.879 385.387 196.88 385.214Z" fill="black"/>
<path d="M238.688 375.586C238.523 375.592 238.544 374.167 239.578 372.844C240.601 371.511 241.977 371.135 242.012 371.296C242.088 371.463 240.974 372.041 240.074 373.227C239.151 374.394 238.868 375.617 238.688 375.586Z" fill="black"/>
<path d="M238.725 374.995C238.695 375.078 238.252 374.891 237.776 375.265C237.549 375.443 237.388 375.742 237.484 376.07C237.563 376.396 237.902 376.731 238.264 376.743C238.633 376.763 239.003 376.471 239.135 376.15C239.282 375.831 239.193 375.487 239.029 375.245C238.686 374.741 238.217 374.7 238.23 374.607C238.195 374.538 238.78 374.367 239.374 374.966C239.65 375.244 239.882 375.795 239.675 376.355C239.49 376.884 238.956 377.385 238.238 377.367C237.514 377.318 237.03 376.752 236.922 376.191C236.791 375.591 237.178 375.064 237.535 374.893C237.899 374.691 238.253 374.703 238.461 374.778C238.671 374.857 238.746 374.963 238.725 374.995Z" fill="black"/>
<path d="M233.672 372.404C233.507 372.41 233.528 370.984 234.562 369.661C235.585 368.328 236.96 367.952 236.996 368.113C237.072 368.28 235.958 368.858 235.057 370.043C234.134 371.211 233.852 372.434 233.672 372.404Z" fill="black"/>
<path d="M233.709 371.812C233.679 371.895 233.236 371.709 232.76 372.083C232.533 372.261 232.372 372.56 232.468 372.888C232.547 373.214 232.886 373.549 233.248 373.561C233.617 373.58 233.987 373.288 234.119 372.967C234.266 372.649 234.177 372.305 234.013 372.062C233.669 371.558 233.201 371.518 233.214 371.424C233.179 371.356 233.763 371.185 234.358 371.784C234.633 372.061 234.865 372.613 234.659 373.173C234.473 373.702 233.94 374.202 233.221 374.185C232.498 374.135 232.013 373.569 231.905 373.008C231.774 372.408 232.161 371.882 232.518 371.709C232.882 371.507 233.237 371.519 233.445 371.595C233.655 371.674 233.73 371.78 233.709 371.812Z" fill="black"/>
<path d="M228.686 369.616C228.521 369.622 228.542 368.196 229.576 366.873C230.599 365.54 231.975 365.164 232.01 365.325C232.084 365.492 230.972 366.07 230.071 367.255C229.148 368.423 228.867 369.647 228.686 369.616Z" fill="black"/>
<path d="M228.724 369.026C228.694 369.108 228.25 368.923 227.774 369.296C227.547 369.474 227.386 369.773 227.482 370.101C227.562 370.427 227.901 370.762 228.262 370.774C228.631 370.793 229.002 370.501 229.134 370.18C229.28 369.862 229.191 369.518 229.028 369.275C228.684 368.772 228.216 368.731 228.229 368.637C228.194 368.569 228.778 368.398 229.373 368.997C229.648 369.274 229.88 369.827 229.673 370.386C229.488 370.915 228.955 371.415 228.236 371.398C227.513 371.349 227.028 370.783 226.92 370.221C226.79 369.622 227.176 369.095 227.533 368.922C227.897 368.721 228.252 368.732 228.458 368.808C228.67 368.886 228.743 368.993 228.724 369.026Z" fill="black"/>
<path d="M226.043 361.571C226.074 361.576 226.032 362.09 225.804 362.994C225.58 363.897 225.094 365.176 224.21 366.599C223.333 368.023 221.994 369.555 220.18 370.846C218.376 372.137 216.057 373.138 213.488 373.425C210.914 373.67 208.438 373.166 206.408 372.271C204.368 371.38 202.744 370.153 201.593 368.939C200.437 367.726 199.699 366.575 199.295 365.736C198.886 364.899 198.74 364.403 198.769 364.393C198.898 364.314 199.563 366.336 201.905 368.626C203.061 369.766 204.657 370.911 206.633 371.741C208.6 372.574 210.97 373.036 213.422 372.804C215.869 372.53 218.093 371.592 219.848 370.374C221.612 369.156 222.94 367.708 223.838 366.358C225.662 363.637 225.9 361.522 226.043 361.571Z" fill="black"/>
<path d="M195.068 227.387C195.068 227.387 207.097 226.338 217.115 226.778L216.38 232.759C237.996 233.801 268.912 236.108 277.703 241.136C291.341 248.937 292.34 263.163 289.154 273.718C285.969 284.272 268.611 354.483 268.611 354.483L236.497 346.275L250.659 278.306L176.869 278.765L195.068 227.387Z" fill="black"/>
<path d="M165.902 226.845C165.902 226.845 158.31 234.898 153.569 248.047C150.236 257.291 151.877 271.153 156.723 275.447C161.214 279.427 167.069 281.52 173.071 281.52H189.719L193.136 351.828L232.396 351.271C232.396 351.271 233.44 260.832 232.396 248.938C230.798 230.735 197.077 227.387 197.077 227.387L165.902 226.845Z" fill="black"/>
<path d="M169.769 231.942C169.769 231.931 169.921 231.92 170.218 231.909C170.546 231.901 170.981 231.891 171.534 231.878C172.727 231.863 174.424 231.844 176.591 231.819C181.019 231.795 187.363 231.761 195.189 231.719C199.118 231.705 203.418 231.689 208.032 231.672C212.671 231.622 217.716 232.3 222.506 234.507C224.886 235.614 227.145 237.21 228.936 239.33C229.813 240.403 230.559 241.597 231.165 242.874C231.726 244.171 232.17 245.533 232.425 246.946C232.559 247.649 232.635 248.369 232.712 249.084C232.751 249.799 232.792 250.516 232.832 251.237C232.916 252.68 232.924 254.125 232.975 255.587C233.042 258.506 233.082 261.467 233.108 264.464C233.268 288.443 233.029 310.144 232.861 325.85C232.746 333.676 232.654 340.022 232.59 344.45C232.542 346.617 232.505 348.314 232.478 349.506C232.459 350.059 232.444 350.493 232.433 350.821C232.418 351.116 232.406 351.269 232.395 351.268C232.385 351.268 232.376 351.116 232.369 350.82C232.365 350.492 232.359 350.056 232.352 349.504C232.351 348.31 232.35 346.615 232.347 344.447C232.364 340.018 232.388 333.673 232.419 325.845C232.475 310.139 232.643 288.436 232.484 264.468C232.441 261.474 232.397 258.515 232.355 255.6C232.305 254.144 232.299 252.694 232.216 251.267C232.178 250.554 232.138 249.843 232.1 249.135C232.025 248.436 231.953 247.74 231.825 247.058C231.578 245.688 231.152 244.374 230.614 243.125C230.033 241.895 229.319 240.747 228.478 239.712C226.758 237.668 224.579 236.115 222.261 235.029C217.6 232.858 212.604 232.161 208.049 232.191C203.432 232.181 199.13 232.171 195.199 232.161C187.371 232.119 181.023 232.086 176.593 232.062C174.425 232.036 172.728 232.017 171.535 232.003C170.982 231.99 170.547 231.98 170.219 231.972C169.922 231.963 169.769 231.952 169.769 231.942Z" fill="white"/>
<path d="M262.53 264.729C262.655 264.875 259.479 267.582 256.2 271.51C252.899 275.422 250.785 279.02 250.619 278.922C250.55 278.882 250.991 277.93 251.863 276.48C252.733 275.028 254.059 273.092 255.721 271.109C257.385 269.128 259.062 267.487 260.34 266.379C261.618 265.267 262.48 264.667 262.53 264.729Z" fill="white"/>
<path d="M265.648 271.825C265.719 271.983 262.411 273.613 258.262 275.467C254.111 277.32 250.69 278.695 250.62 278.537C250.549 278.38 253.856 276.749 258.006 274.896C262.155 273.041 265.577 271.668 265.648 271.825Z" fill="white"/>
<path d="M189.043 262.688C189.134 262.69 189.168 263.809 189.214 265.612C189.26 267.415 189.331 269.904 189.483 272.647C189.638 275.392 189.847 277.873 190.005 279.669C190.161 281.466 190.252 282.581 190.163 282.594C190.082 282.606 189.835 281.512 189.566 279.721C189.296 277.93 189.016 275.441 188.859 272.681C188.706 269.922 188.704 267.417 188.773 265.608C188.838 263.8 188.96 262.684 189.043 262.688Z" fill="white"/>
<path d="M301.434 176.732L290.524 215.46H215.582C215.582 212.535 217.92 210.146 220.844 210.085L239.112 209.695L248.276 173.687C248.79 171.67 250.622 170.268 252.704 170.302L297.181 171.019C300.129 171.068 302.233 173.893 301.434 176.732Z" fill="#0030AD"/>
<path d="M274.405 193.877C274.405 196.104 272.599 197.911 270.372 197.911C268.145 197.911 266.339 196.104 266.339 193.877C266.339 191.651 268.145 189.844 270.372 189.844C272.599 189.844 274.405 191.651 274.405 193.877Z" fill="white"/>
<path d="M393.667 114.586H272.105C266.687 114.586 262.296 110.195 262.296 104.777V10.1199C262.296 4.70221 266.688 0.310883 272.105 0.310883H393.667C399.084 0.310883 403.475 4.70341 403.475 10.1199V104.777C403.475 110.194 399.084 114.586 393.667 114.586Z" fill="white"/>
<path d="M393.667 114.586C393.667 114.586 393.775 114.569 393.987 114.554C394.199 114.526 394.52 114.544 394.934 114.462C395.762 114.359 397.012 114.078 398.438 113.27C399.84 112.461 401.454 111.078 402.458 108.896C402.959 107.818 403.298 106.556 403.348 105.186C403.385 103.81 403.351 102.328 403.354 100.768C403.33 88.2538 403.296 70.1693 403.254 47.827C403.242 36.6504 403.23 24.409 403.216 11.2687C403.269 9.61384 403.127 8.01667 402.495 6.49521C401.866 5.00019 400.862 3.63617 399.557 2.62427C398.259 1.60395 396.685 0.911722 395.021 0.690594C394.198 0.562003 393.344 0.586042 392.47 0.58484C391.601 0.586042 390.729 0.586041 389.855 0.587242C382.854 0.590848 375.649 0.595648 368.262 0.600455C338.709 0.607665 306.22 0.616083 272.118 0.624496C267.954 0.569214 264.016 3.55805 262.975 7.53836C262.671 8.52142 262.611 9.52972 262.61 10.5717V13.7143C262.61 15.8054 262.61 17.8893 262.608 19.966C262.607 28.2715 262.605 36.4557 262.604 44.4968C262.598 60.5791 262.592 76.0929 262.586 90.8713C262.583 94.5656 262.581 98.2142 262.579 101.815C262.631 103.616 262.414 105.425 262.869 107.086C263.268 108.768 264.172 110.292 265.356 111.511C266.571 112.697 268.069 113.596 269.7 113.997C271.312 114.458 273.033 114.283 274.737 114.319C278.132 114.322 281.474 114.325 284.76 114.328C297.901 114.341 310.143 114.354 321.319 114.366C343.661 114.408 361.745 114.442 374.257 114.466C380.496 114.491 385.344 114.512 388.649 114.525C390.285 114.538 391.535 114.549 392.393 114.556C393.235 114.564 393.667 114.586 393.667 114.586C393.667 114.586 393.235 114.608 392.391 114.619C391.535 114.626 390.284 114.635 388.648 114.65C385.343 114.663 380.495 114.683 374.255 114.709C361.742 114.733 343.66 114.766 321.318 114.808C310.141 114.82 297.9 114.832 284.758 114.847C281.473 114.849 278.131 114.853 274.736 114.855C273.887 114.856 273.034 114.856 272.178 114.858C271.306 114.834 270.415 114.769 269.562 114.524C267.837 114.099 266.251 113.154 264.965 111.9C263.71 110.614 262.753 109.003 262.327 107.222C262.088 106.342 262.019 105.41 262.016 104.508C262.016 103.614 262.015 102.717 262.015 101.817C262.012 98.2166 262.011 94.568 262.009 90.8737C262.003 76.0953 261.997 60.5815 261.991 44.4992C261.989 36.4581 261.987 28.2739 261.986 19.9684C261.986 17.8917 261.986 15.8078 261.985 13.7167V10.5741C261.985 9.52251 262.051 8.40725 262.373 7.37131C263.483 3.12661 267.68 -0.0581145 272.118 0.000772945C306.22 0.00918544 338.709 0.0175939 368.262 0.0248046C375.649 0.0296117 382.854 0.033219 389.855 0.0380261C390.729 0.0380261 391.601 0.0392273 392.47 0.0392273C393.328 0.0416308 394.216 0.0175966 395.098 0.153398C396.857 0.39015 398.519 1.12324 399.888 2.20364C401.264 3.27564 402.323 4.71537 402.984 6.29452C403.65 7.87486 403.795 9.6487 403.736 11.2687C403.723 24.409 403.71 36.6504 403.698 47.827C403.656 70.1693 403.622 88.2538 403.598 100.768C403.584 102.333 403.61 103.802 403.563 105.195C403.501 106.595 403.145 107.88 402.626 108.976C401.585 111.192 399.93 112.58 398.5 113.382C397.046 114.182 395.778 114.443 394.943 114.527C394.1 114.613 393.667 114.586 393.667 114.586Z" fill="black"/>
<path d="M403.475 14.5436H262.028V9.90471C262.028 4.60604 266.323 0.309662 271.623 0.309662H393.882C399.18 0.309662 403.475 4.60484 403.475 9.90471V14.5436Z" fill="black"/>
<path d="M273.172 7.33291C273.172 8.43976 272.274 9.33749 271.167 9.33749C270.061 9.33749 269.163 8.43976 269.163 7.33291C269.163 6.22607 270.061 5.32834 271.167 5.32834C272.274 5.32834 273.172 6.22607 273.172 7.33291Z" fill="white"/>
<path d="M277.878 9.33749C278.985 9.33749 279.883 8.44001 279.883 7.33291C279.883 6.22582 278.985 5.32834 277.878 5.32834C276.771 5.32834 275.874 6.22582 275.874 7.33291C275.874 8.44001 276.771 9.33749 277.878 9.33749Z" fill="white"/>
<path d="M286.592 7.33291C286.592 8.43976 285.695 9.33749 284.588 9.33749C283.481 9.33749 282.583 8.43976 282.583 7.33291C282.583 6.22607 283.481 5.32834 284.588 5.32834C285.695 5.32834 286.592 6.22607 286.592 7.33291Z" fill="white"/>
<path d="M296.152 44.6122L296.295 62.8866C296.247 62.8866 296.199 62.8866 296.152 62.8866C286.127 62.8866 277.878 54.6375 277.878 44.6122C277.878 34.587 286.128 26.3379 296.152 26.3379C306.178 26.3379 314.428 34.5882 314.428 44.6122H296.152Z" fill="black"/>
<path d="M297.603 45.9012L313.53 46.1044C313.53 46.1416 313.53 46.1777 313.53 46.2149C313.53 54.8281 306.655 62.0112 298.049 62.3873L297.603 45.9012Z" fill="white"/>
<path d="M297.603 45.9005C297.626 45.9222 297.658 46.3644 297.703 47.1636C297.746 48.0445 297.802 49.1814 297.87 50.5743C298.003 53.4838 298.177 57.5626 298.331 62.3794L298.036 62.1042C301.604 61.9371 305.626 60.3976 308.627 57.3283C311.833 54.1267 313.26 49.7991 313.248 46.1072L313.524 46.3848C308.854 46.3007 304.912 46.1865 302.106 46.0976C300.765 46.0507 299.669 46.0111 298.818 45.981C298.05 45.9474 297.625 45.9222 297.603 45.9005C297.581 45.8789 297.964 45.8633 298.701 45.8501C299.535 45.8416 300.611 45.8308 301.926 45.8176C304.715 45.8008 308.738 45.7875 313.534 45.8248L313.807 45.8272L313.811 46.1036C313.869 49.9265 312.407 54.4428 309.076 57.7681C305.959 60.9589 301.761 62.5392 298.063 62.6714L297.774 62.6822L297.768 62.3962C297.658 57.4521 297.609 53.2879 297.585 50.3952C297.579 49.0276 297.574 47.9111 297.569 47.047C297.571 46.2779 297.581 45.8789 297.603 45.9005Z" fill="black"/>
<path d="M285.606 59.3701C285.57 59.3472 285.846 58.8581 286.378 57.9928C286.989 57.029 287.762 55.8116 288.682 54.3586C289.666 52.8312 290.825 51.0008 292.26 49.0744C292.967 48.0973 293.703 47.077 294.466 46.0206C294.811 45.5003 295.34 44.927 295.503 44.4595C295.656 44.0593 295.114 43.5257 294.635 43.0594C290.883 38.9433 287.565 35.2106 285.162 32.4813C284.038 31.181 283.095 30.091 282.35 29.2293C281.696 28.4518 281.35 28.0083 281.381 27.9795C281.414 27.9506 281.821 28.3388 282.53 29.0659C283.315 29.8927 284.308 30.9382 285.49 32.1845C287.968 34.8296 291.367 38.5455 295.078 42.6184C295.316 42.8587 295.58 43.1015 295.809 43.4116C295.922 43.5666 296.026 43.7421 296.095 43.9464C296.169 44.1687 296.164 44.4199 296.103 44.6278C295.977 45.046 295.732 45.3224 295.547 45.5868C295.351 45.8536 295.156 46.1192 294.963 46.3824C294.19 47.4291 293.444 48.441 292.73 49.4109C291.271 51.3169 290.079 53.116 289.05 54.6086C288.064 56.0147 287.238 57.1948 286.584 58.1274C285.989 58.9482 285.643 59.3941 285.606 59.3701Z" fill="white"/>
<path d="M376.748 31.1823C376.748 31.3554 365.199 31.4948 350.955 31.4948C336.707 31.4948 325.16 31.3542 325.16 31.1823C325.16 31.0093 336.707 30.8699 350.955 30.8699C365.199 30.8699 376.748 31.0105 376.748 31.1823Z" fill="black"/>
<path d="M376.748 37.7164C376.748 37.8894 365.199 38.0288 350.955 38.0288C336.707 38.0288 325.16 37.8882 325.16 37.7164C325.16 37.5445 336.707 37.4039 350.955 37.4039C365.199 37.4039 376.748 37.5433 376.748 37.7164Z" fill="black"/>
<path d="M376.748 44.2505C376.748 44.4236 365.199 44.563 350.955 44.563C336.707 44.563 325.16 44.4224 325.16 44.2505C325.16 44.0774 336.707 43.938 350.955 43.938C365.199 43.938 376.748 44.0774 376.748 44.2505Z" fill="black"/>
<path d="M376.748 50.7846C376.748 50.9577 365.199 51.0971 350.955 51.0971C336.707 51.0971 325.16 50.9565 325.16 50.7846C325.16 50.6128 336.707 50.4721 350.955 50.4721C365.199 50.4709 376.748 50.6116 376.748 50.7846Z" fill="black"/>
<path d="M352.307 57.3187C352.307 57.4918 346.23 57.6312 338.734 57.6312C331.236 57.6312 325.16 57.4906 325.16 57.3187C325.16 57.1469 331.236 57.0062 338.734 57.0062C346.23 57.005 352.307 57.1457 352.307 57.3187Z" fill="black"/>
<path d="M290.364 93.9551H285.289V100.319H290.364V93.9551Z" fill="black"/>
<path d="M298.126 87.9005H293.051V100.319H298.126V87.9005Z" fill="black"/>
<path d="M305.888 79.4724H300.813V100.319H305.888V79.4724Z" fill="black"/>
<path d="M313.65 88.7141H308.575V100.319H313.65V88.7141Z" fill="black"/>
<path d="M321.413 83.2869H316.337V100.319H321.413V83.2869Z" fill="black"/>
<path d="M329.175 79.4724H324.1V100.319H329.175V79.4724Z" fill="black"/>
<path d="M336.936 88.7141H331.861V100.319H336.936V88.7141Z" fill="black"/>
<path d="M344.698 93.9551H339.623V100.319H344.698V93.9551Z" fill="black"/>
<path d="M352.461 87.2022H347.386V100.319H352.461V87.2022Z" fill="black"/>
<path d="M356.345 104.542C356.345 104.715 340.79 104.854 321.608 104.854C302.417 104.854 286.866 104.713 286.866 104.542C286.866 104.369 302.417 104.229 321.608 104.229C340.79 104.229 356.345 104.37 356.345 104.542Z" fill="black"/>
<path d="M392.537 92.126C392.537 92.299 386.327 92.4384 378.668 92.4384C371.007 92.4384 364.798 92.2978 364.798 92.126C364.798 91.9529 371.007 91.8135 378.668 91.8135C386.327 91.8123 392.537 91.9529 392.537 92.126Z" fill="black"/>
<path d="M390.16 95.8239C390.16 95.9969 384.482 96.1364 377.48 96.1364C370.476 96.1364 364.798 95.9957 364.798 95.8239C364.798 95.652 370.474 95.5114 377.48 95.5114C384.481 95.5114 390.16 95.652 390.16 95.8239Z" fill="black"/>
<path d="M355.475 77.4186C355.461 77.308 357.131 77.1758 359.704 76.4824C362.222 75.783 365.829 74.3324 368.223 71.0491C369.399 69.4387 370.096 67.5976 370.19 65.8839C370.29 64.1653 369.855 62.615 369.261 61.4565C368.029 59.0914 366.33 58.4292 366.427 58.3234C366.437 58.2994 366.85 58.4184 367.487 58.845C368.123 59.2668 368.958 60.0456 369.649 61.2462C370.327 62.4407 370.839 64.0704 370.764 65.9139C370.697 67.7562 369.967 69.7212 368.727 71.4193C367.479 73.1162 365.879 74.3925 364.284 75.2433C362.691 76.1062 361.131 76.5978 359.814 76.9114C358.49 77.2155 357.403 77.3489 356.65 77.409C355.897 77.4679 355.479 77.4582 355.475 77.4186Z" fill="black"/>
<path d="M363.767 80.9061C363.765 80.9842 362.707 81.0515 361.004 80.9001C360.153 80.8244 359.143 80.6886 358.033 80.4675C357.478 80.3569 356.899 80.2235 356.304 80.0673C355.727 79.8762 355.065 79.8461 354.43 79.2837C354.111 78.9929 354.018 78.4605 354.134 78.1047C354.231 77.7334 354.391 77.4642 354.516 77.189C354.779 76.6458 355.035 76.1194 355.285 75.605C355.758 74.658 356.204 73.7675 356.619 72.9395C357.395 71.43 357.914 70.5143 357.992 70.5515C358.071 70.5888 357.693 71.5706 357.019 73.1294C356.642 73.9754 356.237 74.8852 355.805 75.8526C355.567 76.3706 355.322 76.903 355.07 77.4522C354.796 78.0206 354.531 78.5482 354.876 78.8462C355.214 79.1803 355.895 79.3017 356.464 79.476C357.047 79.637 357.613 79.78 358.155 79.905C359.239 80.1526 360.227 80.3317 361.059 80.4615C362.725 80.721 363.772 80.8112 363.767 80.9061Z" fill="black"/>
<path d="M303.054 215.037V207.914H348.552V215.037C348.552 215.037 302.51 214.494 303.054 215.037Z" fill="white"/>
<path d="M303.053 215.036C302.987 214.768 307.982 214.637 316.133 214.589C324.3 214.545 335.683 214.591 348.555 214.726L348.242 215.036C348.24 212.76 348.24 210.365 348.239 207.932C348.239 207.926 348.239 207.914 348.239 207.914L348.552 208.227C328.989 208.227 311.924 208.163 303.053 208.069L303.208 207.914C303.164 210.199 303.129 211.988 303.104 213.266C303.091 213.82 303.08 214.262 303.071 214.608C303.064 214.905 303.058 215.049 303.053 215.036C303.047 215.023 303.042 214.853 303.035 214.534C303.027 214.173 303.016 213.713 303.003 213.137C302.978 211.89 302.943 210.144 302.898 207.913C302.897 207.829 302.963 207.759 303.047 207.758H303.053C311.924 207.664 328.989 207.601 348.552 207.601C348.725 207.601 348.864 207.741 348.864 207.913C348.864 207.913 348.864 207.925 348.864 207.931C348.863 210.365 348.862 212.76 348.862 215.035C348.862 215.207 348.722 215.345 348.552 215.345H348.548C335.709 215.209 324.35 215.088 316.133 215.001C312.095 214.982 308.834 214.965 306.518 214.954C304.269 214.96 303.008 214.977 303.053 215.036Z" fill="black"/>
<path d="M338.572 210.564C338.572 210.737 330.587 210.877 320.739 210.877C310.888 210.877 302.904 210.736 302.904 210.564C302.904 210.392 310.888 210.252 320.739 210.252C330.587 210.252 338.572 210.391 338.572 210.564Z" fill="black"/>
<path d="M348.438 212.19C348.438 212.363 340.453 212.503 330.604 212.503C320.753 212.503 312.77 212.362 312.77 212.19C312.77 212.017 320.753 211.878 330.604 211.878C340.453 211.878 348.438 212.018 348.438 212.19Z" fill="black"/>
<path d="M345.496 206.161H300.518V207.914H345.496V206.161Z" fill="white"/>
<path d="M345.497 207.914C345.487 207.905 345.478 207.757 345.463 207.466C345.451 207.134 345.437 206.711 345.417 206.161L345.497 206.241C340.347 206.375 322.149 206.473 300.522 206.473H300.519C301.144 205.848 300.692 206.3 300.832 206.161V206.162V206.166V206.173V206.187V206.215V206.271V206.384V206.609V207.054C300.832 207.348 300.832 207.637 300.832 207.914L300.519 207.602C312.954 207.652 324.131 207.698 332.275 207.73C336.3 207.77 339.572 207.802 341.909 207.825C343.008 207.845 343.885 207.859 344.548 207.87C345.156 207.884 345.481 207.899 345.497 207.914C345.513 207.929 345.215 207.943 344.634 207.959C343.99 207.97 343.137 207.985 342.068 208.003C339.75 208.026 336.503 208.058 332.508 208.098C324.304 208.132 313.045 208.176 300.519 208.227C300.347 208.228 300.207 208.089 300.207 207.917V207.914C300.207 207.637 300.207 207.348 300.207 207.054V206.609V206.384V206.271V206.215V206.187V206.173V206.166V206.162V206.161C300.346 206.021 299.894 206.473 300.519 205.847C322.146 205.847 340.347 205.946 345.496 206.079C345.539 206.078 345.575 206.112 345.578 206.155V206.161C345.558 206.73 345.543 207.169 345.531 207.513C345.516 207.796 345.507 207.924 345.497 207.914Z" fill="black"/>
<path d="M435.169 390.299C435.169 390.473 344.679 390.612 233.079 390.612C121.441 390.612 30.9705 390.471 30.9705 390.299C30.9705 390.128 121.441 389.987 233.079 389.987C344.679 389.987 435.169 390.126 435.169 390.299Z" fill="black"/>
<path d="M115.61 135.945H37.4567C34.7286 135.945 32.5173 133.734 32.5173 131.006V69.6298C32.5173 66.9017 34.7286 64.6904 37.4567 64.6904H115.61C118.338 64.6904 120.549 66.9017 120.549 69.6298V131.006C120.548 133.734 118.337 135.945 115.61 135.945Z" fill="white"/>
<path d="M115.61 135.945C115.608 135.921 115.884 135.939 116.402 135.843C116.91 135.742 117.697 135.544 118.511 134.918C119.318 134.318 120.167 133.252 120.389 131.772C120.512 130.298 120.407 128.529 120.426 126.576C120.402 118.709 120.369 107.362 120.327 93.3494C120.315 86.3334 120.303 78.6504 120.288 70.4037C120.324 69.3522 120.246 68.3931 119.764 67.493C119.309 66.6121 118.566 65.8682 117.655 65.4343C116.739 64.9512 115.73 64.9356 114.629 64.9608C113.547 64.962 112.456 64.9632 111.358 64.9644C106.964 64.968 102.443 64.9729 97.8052 64.9777C79.2557 64.9849 58.865 64.9933 37.4625 65.0017C36.2042 64.9921 34.9663 65.5293 34.1107 66.4378C33.2406 67.344 32.7899 68.5782 32.8296 69.8437C32.8296 72.4864 32.8284 75.1123 32.8284 77.719C32.8272 82.9323 32.8248 88.0687 32.8235 93.115C32.8175 103.209 32.8116 112.946 32.8055 122.221C32.8031 124.539 32.8007 126.83 32.7995 129.089C32.8344 130.223 32.6854 131.362 32.9966 132.354C33.3055 133.358 33.9508 134.25 34.8065 134.84C35.6682 135.429 36.6861 135.717 37.7425 135.671C38.8241 135.673 39.8985 135.674 40.9645 135.675C43.0952 135.677 45.1923 135.681 47.2546 135.683C55.5012 135.698 63.1842 135.71 70.2003 135.722C84.2131 135.764 95.5603 135.798 103.426 135.822C107.333 135.847 110.372 135.867 112.46 135.881C113.478 135.894 114.259 135.905 114.809 135.912C115.338 135.925 115.61 135.945 115.61 135.945C115.61 135.945 115.338 135.967 114.809 135.978C114.259 135.985 113.478 135.996 112.46 136.009C110.372 136.022 107.334 136.043 103.426 136.068C95.5603 136.092 84.2143 136.126 70.2003 136.168C63.1842 136.18 55.5012 136.192 47.2546 136.206C45.1923 136.209 43.0952 136.211 40.9645 136.215C39.8985 136.216 38.8253 136.217 37.7425 136.218C36.6332 136.272 35.4435 135.954 34.494 135.296C33.5362 134.639 32.8115 133.645 32.463 132.52C32.284 131.963 32.2359 131.349 32.2371 130.783L32.2359 129.094C32.2335 126.835 32.2323 124.544 32.2299 122.226C32.2239 112.95 32.2178 103.214 32.2118 93.1198C32.2106 88.0723 32.2082 82.9359 32.207 77.7238C32.207 75.1171 32.2058 72.4912 32.2058 69.8485C32.159 68.4724 32.6733 67.0243 33.66 66.01C34.6286 64.9801 36.0395 64.3684 37.4648 64.3792C58.8674 64.3876 79.2581 64.396 97.8076 64.4044C102.444 64.4092 106.966 64.4128 111.36 64.4176C112.459 64.4188 113.549 64.42 114.631 64.4212C115.677 64.396 116.896 64.4152 117.893 64.9572C118.907 65.4452 119.732 66.2744 120.237 67.2562C120.77 68.2225 120.853 69.4122 120.81 70.4085C120.797 78.6552 120.783 86.3382 120.771 93.3542C120.729 107.367 120.696 118.715 120.672 126.581C120.632 128.547 120.721 130.274 120.574 131.805C120.322 133.34 119.427 134.425 118.586 135.024C117.739 135.647 116.93 135.829 116.412 135.911C115.882 135.984 115.61 135.945 115.61 135.945Z" fill="black"/>
<path d="M120.548 75.3416H32.3501V69.3988C32.3501 66.7994 34.458 64.6914 37.0575 64.6914H115.615C118.339 64.6914 120.548 66.9003 120.548 69.6247V75.3416Z" fill="black"/>
<path d="M41.0765 70.0167C41.0765 70.9265 40.3386 71.6644 39.4289 71.6644C38.5191 71.6644 37.7812 70.9265 37.7812 70.0167C37.7812 69.107 38.5191 68.3691 39.4289 68.3691C40.3399 68.3691 41.0765 69.107 41.0765 70.0167Z" fill="white"/>
<path d="M46.5936 70.0167C46.5936 70.9265 45.8557 71.6644 44.946 71.6644C44.0362 71.6644 43.2983 70.9265 43.2983 70.0167C43.2983 69.107 44.0362 68.3691 44.946 68.3691C45.8557 68.3691 46.5936 69.107 46.5936 70.0167Z" fill="white"/>
<path d="M52.11 70.0167C52.11 70.9265 51.3721 71.6644 50.4623 71.6644C49.5526 71.6644 48.8147 70.9265 48.8147 70.0167C48.8147 69.107 49.5526 68.3691 50.4623 68.3691C51.3721 68.3691 52.11 69.107 52.11 70.0167Z" fill="white"/>
<path d="M76.8993 103.554L56.0303 103.605C56.0303 103.589 56.0303 103.572 56.0303 103.554C56.0303 92.1056 65.4511 82.6848 76.8993 82.6848C88.3475 82.6848 97.7683 92.1056 97.7683 103.554H76.8993Z" fill="black"/>
<path d="M78.1924 105.101L97.3176 105.345C97.3176 105.389 97.3176 105.434 97.3176 105.477C97.3176 115.821 89.0613 124.446 78.7272 124.898L78.1924 105.101Z" fill="white"/>
<path d="M78.1921 105.1C78.2137 105.122 78.2498 105.648 78.299 106.605C78.3459 107.634 78.4084 109.003 78.4853 110.695C78.6163 114.24 78.7978 119.129 79.0117 124.89L78.7161 124.615C83.0137 124.418 87.8604 122.566 91.4766 118.867C95.3391 115.009 97.0565 109.795 97.0373 105.347L97.3137 105.626C91.7278 105.497 87.0048 105.388 83.5821 105.308C81.9513 105.257 80.6329 105.216 79.6402 105.183C78.7197 105.15 78.2137 105.122 78.1921 105.1C78.1705 105.079 78.6344 105.064 79.5225 105.052C80.4995 105.046 81.7962 105.038 83.4006 105.028C86.8702 105.038 91.6581 105.05 97.3209 105.064L97.5937 105.066L97.5973 105.343C97.6622 109.921 95.9088 115.325 91.9225 119.306C88.1909 123.125 83.1675 125.019 78.7401 125.181L78.4493 125.192L78.4445 124.906C78.3447 119.065 78.2582 114.108 78.1969 110.514C78.1825 108.848 78.1716 107.5 78.1632 106.487C78.1608 105.562 78.1693 105.079 78.1921 105.1Z" fill="black"/>
<path d="M75.1567 105.685L56.0315 105.928C56.0315 105.973 56.0315 106.017 56.0315 106.061C56.0315 116.404 64.2877 125.03 74.6219 125.482L75.1567 105.685Z" fill="black"/>
<path d="M444.746 194.023C417.228 208.186 398.225 263.387 403.973 301.661C431.447 273.73 450.512 223.16 444.746 194.023Z" fill="white"/>
<path d="M444.746 194.023C444.746 194.023 444.783 194.208 444.847 194.601C444.914 195.023 445.007 195.609 445.126 196.364C445.249 197.161 445.396 198.134 445.572 199.28C445.715 200.436 445.711 201.764 445.798 203.263C446.05 209.248 445.494 217.996 443.075 228.466C440.67 238.924 436.592 251.134 430.333 263.901C428.69 267.051 427.109 270.336 425.185 273.525C424.233 275.123 423.37 276.798 422.317 278.38C421.29 279.977 420.253 281.59 419.206 283.217C414.843 289.608 409.921 295.968 404.197 301.879C404.079 302.004 403.883 302.009 403.759 301.893C403.706 301.842 403.674 301.774 403.664 301.706C403.622 301.376 403.575 301.018 403.53 300.658C402.946 296.554 402.698 292.459 402.659 288.427C402.608 284.395 402.768 280.419 403.124 276.533C403.77 268.75 405.151 261.326 406.836 254.361C408.582 247.406 410.703 240.918 413.066 234.995C415.451 229.083 418.082 223.741 420.813 219.055C426.251 209.655 432.222 203.04 436.896 199.183C439.25 197.263 441.212 195.971 442.607 195.161C443.297 194.79 443.832 194.502 444.216 194.296C444.573 194.106 444.746 194.023 444.746 194.023C444.746 194.023 444.555 194.145 444.201 194.358C443.83 194.578 443.317 194.885 442.656 195.279C441.319 196.104 439.366 197.436 437.054 199.372C432.45 203.267 426.563 209.89 421.196 219.278C418.502 223.958 415.903 229.289 413.548 235.189C411.215 241.097 409.119 247.568 407.396 254.5C405.733 261.443 404.369 268.84 403.734 276.587C403.384 280.455 403.228 284.412 403.281 288.422C403.323 292.431 403.57 296.501 404.15 300.576C404.196 300.932 404.241 301.288 404.283 301.616L403.751 301.443C409.441 295.565 414.347 289.238 418.699 282.878C419.743 281.258 420.779 279.652 421.805 278.062C422.857 276.489 423.719 274.82 424.67 273.229C426.593 270.055 428.175 266.784 429.82 263.648C436.086 250.938 440.195 238.78 442.648 228.37C445.115 217.947 445.735 209.241 445.559 203.274C445.491 201.784 445.512 200.443 445.392 199.31C445.251 198.185 445.131 197.229 445.032 196.447C444.94 195.68 444.868 195.087 444.816 194.657C444.765 194.246 444.746 194.023 444.746 194.023Z" fill="black"/>
<path d="M374.261 235.625C366.564 255.025 377.93 294.952 398.162 313.825C401.127 285.975 394.139 249.448 374.261 235.625Z" fill="white"/>
<path d="M374.261 235.625C374.258 235.614 374.375 235.694 374.61 235.856C374.876 236.042 375.228 236.288 375.675 236.601C376.611 237.286 377.892 238.342 379.446 239.851C382.508 242.879 386.434 247.868 389.729 254.869C393.067 261.835 395.84 270.689 397.479 280.763C399.106 290.829 399.685 302.129 398.475 313.858L398.474 313.864C398.456 314.034 398.304 314.157 398.134 314.14C398.062 314.133 397.998 314.1 397.949 314.053L397.853 313.959C393.554 309.884 389.983 305.296 387.003 300.597C384.003 295.903 381.588 291.09 379.578 286.39C375.602 276.965 373.322 267.963 372.324 260.3C371.304 252.63 371.603 246.305 372.395 242.056C372.781 239.924 373.254 238.318 373.626 237.229C373.825 236.717 373.982 236.315 374.1 236.01C374.205 235.745 374.258 235.615 374.261 235.625C374.265 235.635 374.218 235.786 374.129 236.067C374.032 236.37 373.903 236.773 373.74 237.282C373.419 238.354 372.979 239.978 372.634 242.098C371.922 246.334 371.692 252.619 372.763 260.241C373.812 267.856 376.125 276.803 380.109 286.164C382.122 290.831 384.536 295.611 387.521 300.267C390.487 304.927 394.032 309.473 398.282 313.501L398.377 313.594L397.851 313.79C399.056 302.128 398.497 290.877 396.909 280.854C395.31 270.823 392.596 262.004 389.328 255.058C386.106 248.076 382.264 243.086 379.273 240.021C377.765 238.502 376.485 237.401 375.62 236.714C375.199 236.38 374.868 236.117 374.617 235.918C374.387 235.736 374.264 235.636 374.261 235.625Z" fill="black"/>
<path d="M398.803 359.956C398.793 359.956 398.781 359.851 398.766 359.647C398.754 359.405 398.738 359.107 398.719 358.74C398.689 357.891 398.65 356.724 398.598 355.247C398.54 353.73 398.498 351.874 398.532 349.718C398.556 347.562 398.522 345.105 398.665 342.394C398.719 341.037 398.777 339.616 398.836 338.136C398.901 336.656 399.041 335.121 399.147 333.527C399.333 330.339 399.724 326.95 400.096 323.379C400.962 316.253 402.194 308.448 403.935 300.346C405.723 292.251 407.85 284.64 410.028 277.798C411.176 274.396 412.231 271.151 413.387 268.174C413.953 266.682 414.464 265.226 415.021 263.854C415.583 262.484 416.122 261.168 416.638 259.911C417.637 257.386 418.688 255.165 419.564 253.195C420.43 251.221 421.242 249.55 421.925 248.195C422.586 246.873 423.108 245.828 423.488 245.07C423.659 244.743 423.797 244.479 423.909 244.265C424.007 244.084 424.061 243.996 424.071 244C424.081 244.005 424.044 244.105 423.966 244.294C423.869 244.515 423.75 244.789 423.601 245.126C423.248 245.897 422.761 246.957 422.144 248.3C421.495 249.67 420.718 251.353 419.884 253.339C419.04 255.32 418.019 257.549 417.048 260.08C416.545 261.34 416.019 262.658 415.472 264.03C414.928 265.405 414.429 266.862 413.875 268.355C412.742 271.333 411.707 274.576 410.577 277.976C408.434 284.811 406.329 292.406 404.546 300.481C402.809 308.563 401.563 316.343 400.667 323.449C400.28 327.009 399.872 330.389 399.663 333.569C399.545 335.158 399.393 336.689 399.315 338.166C399.242 339.642 399.172 341.059 399.105 342.413C398.934 345.118 398.937 347.57 398.879 349.723C398.811 351.875 398.819 353.729 398.838 355.246C398.839 356.724 398.841 357.891 398.842 358.738C398.836 359.107 398.831 359.405 398.827 359.647C398.823 359.85 398.814 359.956 398.803 359.956Z" fill="black"/>
<path d="M382.985 262.771C383.006 262.764 383.093 262.964 383.241 263.351C383.407 263.808 383.611 264.371 383.86 265.056C384.373 266.543 385.087 268.705 385.938 271.387C387.64 276.748 389.899 284.182 392.352 292.405C394.777 300.594 396.97 308.003 398.59 313.475C399.367 316.105 400.005 318.265 400.477 319.861C400.68 320.559 400.848 321.133 400.984 321.598C401.094 321.998 401.142 322.211 401.121 322.218C401.101 322.226 401.013 322.025 400.865 321.638C400.699 321.181 400.495 320.619 400.246 319.934C399.733 318.446 399.019 316.284 398.168 313.604C396.467 308.243 394.207 300.807 391.753 292.582C389.329 284.396 387.136 276.988 385.516 271.515C384.74 268.886 384.102 266.726 383.629 265.129C383.426 264.431 383.258 263.856 383.122 263.39C383.012 262.992 382.965 262.778 382.985 262.771Z" fill="black"/>
<path d="M435.507 281.117C437.401 297.022 421.115 324.402 402.396 334.421C405.675 313.18 418.044 287.46 435.507 281.117Z" fill="white"/>
<path d="M435.507 281.117C435.501 281.127 435.391 281.181 435.183 281.281C434.948 281.394 434.651 281.536 434.281 281.712C433.503 282.103 432.347 282.537 430.96 283.459C428.127 285.106 424.3 288.061 420.553 292.61C416.791 297.132 413.05 303.132 409.874 310.242C408.332 313.816 406.862 317.636 405.642 321.696C404.443 325.759 403.414 330.031 402.705 334.467L402.249 334.144L402.336 334.092C406.275 331.937 409.755 329.227 412.901 326.397C416.035 323.54 418.73 320.446 421.173 317.411C425.961 311.253 429.414 305.07 431.71 299.645C434.02 294.215 435.063 289.507 435.377 286.235C435.441 285.416 435.537 284.681 435.552 284.056C435.539 283.444 435.527 282.919 435.518 282.478C435.512 282.069 435.508 281.74 435.504 281.479C435.501 281.25 435.501 281.126 435.507 281.117C435.513 281.108 435.524 281.214 435.542 281.429C435.562 281.685 435.588 282.008 435.621 282.409C435.653 282.868 435.692 283.414 435.736 284.051C435.74 284.696 435.662 285.426 435.617 286.256C435.376 289.561 434.389 294.326 432.117 299.816C429.856 305.3 426.421 311.545 421.625 317.767C419.177 320.834 416.472 323.96 413.313 326.849C410.143 329.713 406.629 332.456 402.631 334.644L402.543 334.697C402.398 334.783 402.21 334.736 402.124 334.591C402.085 334.527 402.073 334.454 402.084 334.387L402.086 334.373C402.8 329.904 403.84 325.605 405.055 321.519C406.291 317.437 407.78 313.598 409.346 310.008C412.571 302.867 416.378 296.849 420.214 292.327C424.034 287.778 427.942 284.844 430.837 283.249C432.226 282.361 433.501 281.923 434.303 281.589C434.675 281.44 434.974 281.319 435.211 281.224C435.414 281.145 435.513 281.108 435.507 281.117Z" fill="black"/>
<path d="M423.697 299.537C423.733 299.561 423.404 300.143 422.78 301.175C422.1 302.305 421.213 303.778 420.144 305.552C417.848 309.334 414.782 314.382 411.392 319.963C407.954 325.581 404.809 330.647 402.479 334.282C401.315 336.1 400.353 337.559 399.673 338.557C398.985 339.551 398.587 340.087 398.551 340.064C398.515 340.04 398.844 339.458 399.468 338.426C400.148 337.296 401.035 335.823 402.103 334.049C404.4 330.267 407.467 325.218 410.857 319.636C414.294 314.02 417.439 308.954 419.767 305.319C420.932 303.501 421.893 302.042 422.573 301.044C423.263 300.05 423.661 299.513 423.697 299.537Z" fill="black"/>
<path d="M411.882 354.081L415.58 347.426H400.911H396.19H381.523L385.221 354.081C385.221 354.081 374.626 361.272 375.129 371.26C375.708 382.764 387.977 389.898 387.977 389.898H396.19H400.911H409.124C409.124 389.898 421.393 382.764 421.974 371.26C422.476 361.272 411.882 354.081 411.882 354.081Z" fill="black"/>
<path d="M265.682 75.7611C261.393 70.6992 255.456 69.3351 248.83 69.0119C243.78 68.7655 238.461 69.2534 234.209 71.9899C228.171 75.8764 225.531 84.0654 227.587 90.9444C229.643 97.8234 235.868 103.647 242.901 105.089H243.484C242.413 109.103 239.988 112.742 236.695 115.276C242.183 115.612 247.555 111.25 248.351 105.809C255.466 107.083 262.726 103.842 267.276 98.2272C271.825 92.6113 272.337 83.6147 265.682 75.7611Z" fill="white"/>
<path d="M265.683 75.7612C265.689 75.7564 265.741 75.8093 265.836 75.9175C265.947 76.0497 266.082 76.2095 266.25 76.409C266.438 76.6385 266.66 76.9102 266.917 77.2262C267.159 77.5771 267.433 77.9749 267.739 78.422C268.91 80.2415 270.494 83.1919 270.811 87.2888C270.95 89.3162 270.778 91.6224 269.922 93.9298C269.536 95.0979 268.915 96.2252 268.208 97.3405C267.456 98.4341 266.554 99.4592 265.552 100.446C263.514 102.375 260.995 104.102 258.029 105.165C255.083 106.243 251.699 106.689 248.302 106.091L248.636 105.85C248.256 108.459 246.8 110.965 244.659 112.774C242.533 114.584 239.662 115.755 236.677 115.581C236.507 115.572 236.377 115.426 236.388 115.257C236.394 115.164 236.441 115.082 236.508 115.031C239.626 112.633 242.098 109.072 243.182 105.008L243.485 105.401C243.301 105.401 243.101 105.401 242.902 105.401H242.892C242.874 105.401 242.856 105.398 242.839 105.395C242.546 105.323 242.229 105.245 241.91 105.167C236.715 103.783 232.387 100.303 229.655 96.0966C228.319 93.9695 227.299 91.6621 226.891 89.2585C226.455 86.8657 226.541 84.4465 227.06 82.1896C228.044 77.6637 230.782 73.7723 234.315 71.6235C237.864 69.4603 241.785 68.8834 245.223 68.7608C248.69 68.6803 251.823 68.9483 254.529 69.4711C257.238 69.9927 259.479 70.876 261.157 71.8506C262.836 72.8313 263.972 73.8468 264.671 74.5847C265.039 74.938 265.268 75.2541 265.444 75.4476C265.61 75.6495 265.69 75.7552 265.683 75.7612C265.659 75.7829 265.308 75.3791 264.581 74.676C263.859 73.973 262.709 72.9983 261.036 72.0645C259.362 71.1356 257.144 70.2991 254.462 69.816C251.785 69.3317 248.661 69.0962 245.237 69.2043C241.841 69.3521 238.005 69.9542 234.587 72.0658C231.194 74.1545 228.561 77.9269 227.621 82.3158C227.125 84.503 227.052 86.8453 227.477 89.1515C227.875 91.4625 228.87 93.7027 230.169 95.7637C232.827 99.8462 237.05 103.228 242.068 104.561C242.375 104.637 242.682 104.712 242.964 104.781L242.902 104.775C243.101 104.775 243.301 104.775 243.485 104.775C243.658 104.775 243.797 104.915 243.797 105.087C243.797 105.115 243.794 105.142 243.786 105.168C242.663 109.373 240.109 113.042 236.883 115.517L236.715 114.967C239.514 115.135 242.245 114.036 244.273 112.317C246.317 110.599 247.703 108.223 248.068 105.766C248.091 105.61 248.237 105.501 248.394 105.523L248.404 105.525C251.688 106.116 254.974 105.699 257.848 104.664C260.744 103.643 263.214 101.971 265.223 100.097C266.209 99.1395 267.103 98.1361 267.838 97.0857C268.532 96.0089 269.146 94.9189 269.531 93.7844C270.387 91.5455 270.579 89.2957 270.467 87.3092C270.206 83.2916 268.699 80.3521 267.585 78.5169C267.295 78.0639 267.034 77.6601 266.805 77.3043C266.563 76.9786 266.354 76.6998 266.177 76.4631C266.023 76.2528 265.9 76.0833 265.799 75.9439C265.715 75.8298 265.676 75.7672 265.683 75.7612Z" fill="black"/>
<path d="M243.428 87.3417C243.428 88.7477 242.289 89.887 240.883 89.887C239.477 89.887 238.337 88.7477 238.337 87.3417C238.337 85.9356 239.477 84.7963 240.883 84.7963C242.289 84.7963 243.428 85.9368 243.428 87.3417Z" fill="black"/>
<path d="M251.34 87.3416C251.34 88.7477 250.2 89.887 248.794 89.887C247.388 89.887 246.249 88.7477 246.249 87.3416C246.249 85.9356 247.388 84.7963 248.794 84.7963C250.199 84.7963 251.34 85.9368 251.34 87.3416Z" fill="black"/>
<path d="M259.251 87.3416C259.251 88.7477 258.112 89.887 256.706 89.887C255.299 89.887 254.16 88.7477 254.16 87.3416C254.16 85.9356 255.299 84.7963 256.706 84.7963C258.11 84.7963 259.251 85.9368 259.251 87.3416Z" fill="black"/>
<path d="M343.688 203.964H304.371V206.161H343.688V203.964Z" fill="black"/>
<path d="M343.688 192.678H304.371V194.875H343.688V192.678Z" fill="black"/>
<path d="M343.634 194.989H305.683V203.964H343.634V194.989Z" fill="white"/>
<path d="M343.634 203.964C343.622 203.952 343.61 203.734 343.597 203.327C343.586 202.872 343.57 202.285 343.552 201.553C343.527 199.968 343.493 197.758 343.45 194.99L343.633 195.173C335.201 195.251 321.336 195.303 305.683 195.303H305.68C306.305 194.678 305.853 195.131 305.993 194.993V194.997V195.007V195.025V195.061V195.133V195.277V195.565V196.139V197.282C305.993 198.042 305.992 198.796 305.992 199.545C305.99 201.042 305.989 202.518 305.987 203.966L305.679 203.659C316.416 203.714 325.843 203.762 332.66 203.797C336.018 203.834 338.729 203.864 340.671 203.885C341.574 203.901 342.296 203.915 342.849 203.926C343.353 203.936 343.621 203.95 343.634 203.964C343.647 203.977 343.405 203.99 342.93 204.004C342.394 204.014 341.694 204.028 340.819 204.045C338.895 204.066 336.207 204.096 332.879 204.132C326.007 204.167 316.506 204.215 305.683 204.27C305.513 204.272 305.376 204.135 305.375 203.966V203.963C305.374 202.515 305.373 201.039 305.37 199.541C305.37 198.793 305.369 198.038 305.369 197.278V196.136V195.561V195.274V195.13V195.058V195.021V195.003V194.994V194.989C305.508 194.848 305.056 195.3 305.681 194.674H305.684C321.337 194.674 335.201 194.725 343.634 194.804C343.734 194.803 343.815 194.882 343.818 194.982V194.988C343.774 197.802 343.741 200.049 343.715 201.66C343.697 202.375 343.683 202.948 343.671 203.393C343.658 203.781 343.646 203.976 343.634 203.964Z" fill="black"/>
<path d="M343.725 206.161H342.424C343.433 201.534 343.497 197.032 342.424 192.678H343.682C344.325 192.678 344.847 193.2 344.847 193.843V205.04C344.845 205.659 344.344 206.161 343.725 206.161Z" fill="black"/>
<path d="M339.997 198.36C339.997 198.533 332.35 198.673 322.92 198.673C313.486 198.673 305.841 198.532 305.841 198.36C305.841 198.187 313.486 198.048 322.92 198.048C332.351 198.048 339.997 198.188 339.997 198.36Z" fill="black"/>
<path d="M343.112 200.899C343.112 201.073 334.692 201.212 324.304 201.212C313.915 201.212 305.495 201.071 305.495 200.899C305.495 200.728 313.915 200.587 324.304 200.587C334.692 200.586 343.112 200.726 343.112 200.899Z" fill="black"/>
<path d="M416.711 81.1741H390.596C386.367 81.1741 382.938 77.7455 382.938 73.5164V48.9135C382.938 44.6844 386.367 41.2557 390.596 41.2557H416.711C420.94 41.2557 424.369 44.6844 424.369 48.9135V73.5164C424.37 77.7455 420.941 81.1741 416.711 81.1741Z" fill="white"/>
<path d="M416.711 81.1741C416.709 81.1309 417.239 81.1609 418.208 80.9614C419.154 80.7427 420.602 80.2524 421.94 78.9352C422.6 78.2826 423.228 77.4342 423.65 76.3838C424.085 75.3298 424.242 74.1161 424.194 72.7713C424.181 70.0769 424.166 67.0183 424.148 63.6413C424.136 60.2547 424.124 56.5508 424.109 52.5753C424.107 51.5802 424.104 50.5695 424.101 49.542C424.117 48.5084 424.044 47.5206 423.698 46.5447C423.044 44.6135 421.516 42.9117 419.515 42.0981C418.511 41.6847 417.436 41.5285 416.305 41.5477C415.159 41.5489 414.001 41.5513 412.83 41.5525C410.489 41.5549 408.099 41.5573 405.665 41.5597C400.798 41.5621 395.759 41.5645 390.599 41.5657C389.36 41.5765 388.135 41.889 387.059 42.4719C385.999 43.0752 385.069 43.9128 384.424 44.9331C383.781 45.9498 383.36 47.1083 383.277 48.2957C383.214 49.4807 383.258 50.7474 383.244 51.9515C383.238 56.8188 383.232 61.5141 383.226 65.9884C383.221 68.2249 383.217 70.4049 383.212 72.5249C383.194 73.5981 383.209 74.5932 383.497 75.5546C383.766 76.5088 384.228 77.3909 384.828 78.1408C386.025 79.6515 387.773 80.6009 389.541 80.846C390.416 80.9722 391.33 80.9254 392.215 80.9398C393.099 80.9434 393.966 80.947 394.812 80.9506C401.546 80.9927 407.01 81.0263 410.835 81.0503C412.695 81.0756 414.155 81.0948 415.192 81.1092C415.662 81.1224 416.036 81.1321 416.325 81.1405C416.581 81.1525 416.711 81.1633 416.711 81.1741C416.711 81.1849 416.58 81.1958 416.325 81.2066C416.036 81.215 415.663 81.2246 415.192 81.2378C414.155 81.2522 412.695 81.2715 410.835 81.2967C407.01 81.3207 401.547 81.3544 394.812 81.3965C393.966 81.4001 393.101 81.4037 392.215 81.4073C391.333 81.3989 390.428 81.4565 389.473 81.328C387.587 81.0792 385.712 80.0781 384.423 78.4701C383.777 77.6709 383.276 76.7287 382.982 75.706C382.667 74.6893 382.646 73.5692 382.661 72.5297C382.656 70.4097 382.652 68.2297 382.648 65.9932C382.642 61.519 382.636 56.8236 382.63 51.9563C382.644 50.7281 382.595 49.536 382.661 48.2488C382.75 46.9629 383.204 45.7023 383.901 44.599C384.6 43.4922 385.608 42.5824 386.759 41.9287C387.923 41.2941 389.256 40.954 390.599 40.9432C395.759 40.9456 400.798 40.948 405.665 40.9492C408.099 40.9516 410.489 40.954 412.83 40.9564C414.001 40.9576 415.159 40.96 416.305 40.9612C417.461 40.942 418.667 41.1163 419.735 41.5657C421.891 42.4502 423.526 44.289 424.22 46.3692C424.586 47.4004 424.661 48.5265 424.637 49.5432C424.634 50.5707 424.631 51.5826 424.628 52.5765C424.615 56.5508 424.602 60.2559 424.59 63.6425C424.573 67.0195 424.557 70.078 424.544 72.7724C424.578 74.1124 424.395 75.4248 423.925 76.4992C423.47 77.5832 422.803 78.4509 422.109 79.1119C420.702 80.4434 419.202 80.9037 418.234 81.0864C417.24 81.2474 416.711 81.1741 416.711 81.1741Z" fill="black"/>
<path d="M424.684 57.6276C421.672 55.1723 416.843 54.021 412.993 54.5474C409.142 55.0738 407.027 57.0002 404.77 60.5347C403.434 62.627 401.613 67.6865 399.251 68.4544C397.28 69.095 394.55 66.0521 392.258 65.2781C388.982 64.1701 385.207 66.2516 383.025 68.9327V74.6412C383.025 78.249 385.95 81.1741 389.558 81.1741H417.752C421.417 81.1741 424.365 78.1588 424.283 74.4946L424.684 57.6276Z" fill="black"/>
<path d="M398.629 51.9347C398.629 54.7313 396.361 56.9991 393.564 56.9991C390.768 56.9991 388.5 54.7313 388.5 51.9347C388.5 49.1382 390.768 46.8704 393.564 46.8704C396.362 46.8704 398.629 49.1382 398.629 51.9347Z" fill="black"/>
</svg>
