<svg width="62" height="62" viewBox="0 0 62 62" fill="none" xmlns="http://www.w3.org/2000/svg">
<path d="M30.8509 3.33277C27.2516 3.33151 23.6873 4.03951 20.3617 5.41632C17.0362 6.79314 14.0145 8.81176 11.4694 11.3569C8.92431 13.9019 6.90568 16.9236 5.52887 20.2492C4.15206 23.5747 3.44406 27.139 3.44531 30.7383C3.44406 34.3376 4.15206 37.9019 5.52887 41.2275C6.90568 44.553 8.92431 47.5747 11.4694 50.1198C14.0145 52.6649 17.0362 54.6835 20.3617 56.0603C23.6873 57.4371 27.2516 58.1451 30.8509 58.1439C34.4502 58.1451 38.0144 57.4371 41.34 56.0603C44.6656 54.6835 47.6872 52.6649 50.2323 50.1198C52.7774 47.5747 54.796 44.553 56.1729 41.2275C57.5497 37.9019 58.2577 34.3376 58.2564 30.7383C58.2577 27.139 57.5497 23.5747 56.1729 20.2492C54.796 16.9236 52.7774 13.9019 50.2323 11.3569C47.6872 8.81176 44.6656 6.79314 41.34 5.41632C38.0144 4.03951 34.4502 3.33151 30.8509 3.33277ZM30.8509 50.478C30.0313 50.4799 29.2297 50.2385 28.5474 49.7843C27.8652 49.3302 27.3332 48.6838 27.0187 47.927C26.7042 47.1702 26.6214 46.3371 26.7808 45.5332C26.9402 44.7293 27.3347 43.9908 27.9142 43.4113C28.4937 42.8318 29.2322 42.4373 30.036 42.2779C30.8399 42.1185 31.6731 42.2013 32.4299 42.5158C33.1867 42.8303 33.8331 43.3623 34.2872 44.0446C34.7413 44.7268 34.9828 45.5284 34.9809 46.348C34.9783 47.4425 34.5424 48.4916 33.7684 49.2655C32.9944 50.0395 31.9454 50.4754 30.8509 50.478ZM35.8624 16.3648L34.3005 37.446C34.2908 37.5917 34.2259 37.7283 34.1191 37.828C34.0124 37.9276 33.8716 37.9829 33.7256 37.9826H27.9762C27.8301 37.9829 27.6894 37.9276 27.5826 37.828C27.4758 37.7283 27.411 37.5917 27.4012 37.446L25.8393 16.3648C25.797 15.6806 25.8952 14.995 26.1279 14.3502C26.3606 13.7054 26.7229 13.1151 27.1924 12.6156C27.6619 12.1161 28.2287 11.7181 28.8579 11.446C29.4871 11.1739 30.1654 11.0336 30.8509 11.0336C31.5364 11.0336 32.2146 11.1739 32.8438 11.446C33.473 11.7181 34.0398 12.1161 34.5093 12.6156C34.9789 13.1151 35.3411 13.7054 35.5738 14.3502C35.8066 14.995 35.9048 15.6806 35.8624 16.3648Z" fill="#FFC048"/>
</svg>
