<svg width="24" height="23" viewBox="0 0 24 23" fill="none" xmlns="http://www.w3.org/2000/svg">
<rect x="0.699219" y="0.49147" width="22.4152" height="22.4152" rx="11.2076" fill="#FF3939"/>
<path fill-rule="evenodd" clip-rule="evenodd" d="M11.9093 12.8882L14.881 15.8599C15.0387 16.0176 15.2526 16.1062 15.4756 16.1062C15.6986 16.1062 15.9125 16.0176 16.0702 15.8599C16.2279 15.7022 16.3165 15.4884 16.3165 15.2654C16.3165 15.0423 16.2279 14.8285 16.0702 14.6708L13.0974 11.6991L16.0696 8.72739C16.1477 8.64931 16.2096 8.55662 16.2518 8.45462C16.294 8.35262 16.3157 8.2433 16.3157 8.13291C16.3157 8.02251 16.2939 7.9132 16.2516 7.81122C16.2094 7.70924 16.1474 7.61658 16.0693 7.53854C15.9913 7.4605 15.8986 7.3986 15.7966 7.35638C15.6946 7.31415 15.5852 7.29243 15.4749 7.29246C15.3645 7.29249 15.2551 7.31426 15.1532 7.35653C15.0512 7.3988 14.9585 7.46074 14.8805 7.53882L11.9093 10.5105L8.93764 7.53882C8.86014 7.4585 8.76742 7.39442 8.66489 7.35032C8.56235 7.30622 8.45207 7.28298 8.34046 7.28196C8.22885 7.28093 8.11815 7.30215 8.01483 7.34437C7.91151 7.38658 7.81763 7.44895 7.73867 7.52784C7.65971 7.60672 7.59725 7.70055 7.55493 7.80383C7.51262 7.90711 7.4913 8.01779 7.49222 8.1294C7.49313 8.24101 7.51627 8.35132 7.56027 8.45389C7.60428 8.55647 7.66827 8.64925 7.74852 8.72683L10.7213 11.6991L7.74908 14.6713C7.66883 14.7489 7.60484 14.8417 7.56083 14.9443C7.51683 15.0469 7.49369 15.1572 7.49278 15.2688C7.49186 15.3804 7.51318 15.4911 7.55549 15.5943C7.59781 15.6976 7.66027 15.7915 7.73923 15.8703C7.81819 15.9492 7.91207 16.0116 8.01539 16.0538C8.11871 16.096 8.22941 16.1172 8.34102 16.1162C8.45263 16.1152 8.56291 16.092 8.66545 16.0479C8.76798 16.0038 8.8607 15.9397 8.9382 15.8594L11.9093 12.8882Z" fill="white"/>
</svg>
