<svg width="27" height="28" viewBox="0 0 27 28" fill="none" xmlns="http://www.w3.org/2000/svg">
<g clip-path="url(#clip0_97_2371)">
<path d="M17.7082 14.1509C17.7082 15.2581 17.2684 16.3198 16.4855 17.1027C15.7027 17.8855 14.6409 18.3253 13.5338 18.3253C12.4267 18.3253 11.3649 17.8855 10.582 17.1027C9.79918 16.3198 9.35938 15.2581 9.35938 14.1509C9.35938 13.0438 9.79918 11.982 10.582 11.1992C11.3649 10.4163 12.4267 9.97653 13.5338 9.97653C14.6409 9.97653 15.7027 10.4163 16.4855 11.1992C17.2684 11.982 17.7082 13.0438 17.7082 14.1509Z" fill="url(#paint0_linear_97_2371)"/>
<path d="M0.175781 14.1509C0.175781 14.1509 5.18507 4.96725 13.5339 4.96725C21.8827 4.96725 26.892 14.1509 26.892 14.1509C26.892 14.1509 21.8827 23.3346 13.5339 23.3346C5.18507 23.3346 0.175781 14.1509 0.175781 14.1509ZM13.5339 19.9951C15.0839 19.9951 16.5703 19.3794 17.6663 18.2834C18.7623 17.1874 19.3781 15.7009 19.3781 14.1509C19.3781 12.601 18.7623 11.1145 17.6663 10.0185C16.5703 8.9225 15.0839 8.30677 13.5339 8.30677C11.9839 8.30677 10.4974 8.9225 9.40143 10.0185C8.30544 11.1145 7.68972 12.601 7.68972 14.1509C7.68972 15.7009 8.30544 17.1874 9.40143 18.2834C10.4974 19.3794 11.9839 19.9951 13.5339 19.9951Z" fill="url(#paint1_linear_97_2371)"/>
</g>
<defs>
<linearGradient id="paint0_linear_97_2371" x1="13.5338" y1="9.97653" x2="13.5338" y2="18.3253" gradientUnits="userSpaceOnUse">
<stop stop-color="#292739"/>
<stop offset="1"/>
</linearGradient>
<linearGradient id="paint1_linear_97_2371" x1="13.5339" y1="4.96725" x2="13.5339" y2="23.3346" gradientUnits="userSpaceOnUse">
<stop stop-color="#292739"/>
<stop offset="1"/>
</linearGradient>
<clipPath id="clip0_97_2371">
<rect width="26.7162" height="26.7162" fill="white" transform="translate(0.175781 0.792839)"/>
</clipPath>
</defs>
</svg>
