<svg width="12" height="12" viewBox="0 0 12 12" fill="none" xmlns="http://www.w3.org/2000/svg">
<g clip-path="url(#clip0_90_2907)">
<path fill-rule="evenodd" clip-rule="evenodd" d="M5.9998 7.061L8.6513 9.7125C8.792 9.8532 8.98283 9.93224 9.1818 9.93224C9.38078 9.93224 9.5716 9.8532 9.7123 9.7125C9.853 9.5718 9.93204 9.38098 9.93204 9.182C9.93204 8.98303 9.853 8.7922 9.7123 8.6515L7.0598 6L9.7118 3.3485C9.78144 3.27884 9.83666 3.19614 9.87434 3.10513C9.91201 3.01411 9.93139 2.91657 9.93137 2.81807C9.93134 2.71958 9.91192 2.62204 9.8742 2.53105C9.83649 2.44006 9.78122 2.35739 9.71155 2.28775C9.64189 2.21812 9.55919 2.16289 9.46818 2.12522C9.37716 2.08754 9.27962 2.06816 9.18113 2.06819C9.08263 2.06821 8.98509 2.08764 8.8941 2.12535C8.80311 2.16307 8.72044 2.21834 8.6508 2.288L5.9998 4.9395L3.3483 2.288C3.27915 2.21634 3.19642 2.15916 3.10493 2.11981C3.01345 2.08046 2.91505 2.05973 2.81546 2.05882C2.71588 2.0579 2.61711 2.07683 2.52492 2.1145C2.43273 2.15217 2.34897 2.20782 2.27851 2.2782C2.20806 2.34859 2.15233 2.4323 2.11458 2.52446C2.07682 2.61661 2.0578 2.71536 2.05862 2.81495C2.05944 2.91453 2.08008 3.01295 2.11934 3.10448C2.15861 3.196 2.2157 3.27878 2.2873 3.348L4.9398 6L2.2878 8.652C2.2162 8.72122 2.15911 8.80401 2.11984 8.89553C2.08058 8.98705 2.05994 9.08547 2.05912 9.18506C2.0583 9.28464 2.07732 9.38339 2.11508 9.47555C2.15283 9.5677 2.20856 9.65141 2.27901 9.7218C2.34947 9.79218 2.43323 9.84784 2.52542 9.8855C2.61761 9.92317 2.71638 9.9421 2.81596 9.94119C2.91555 9.94028 3.01395 9.91954 3.10543 9.88019C3.19692 9.84084 3.27965 9.78367 3.3488 9.712L5.9998 7.061Z" fill="#FF3939"/>
</g>
<defs>
<clipPath id="clip0_90_2907">
<rect width="12" height="12" fill="white"/>
</clipPath>
</defs>
</svg>
