<svg width="27" height="26" viewBox="0 0 27 26" fill="none" xmlns="http://www.w3.org/2000/svg">
<g clip-path="url(#clip0_90_6218)">
<path d="M4.45555 11.2258C2.77847 11.2258 1.41406 9.86135 1.41406 8.18428C1.41406 6.5072 2.77847 5.14279 4.45555 5.14279C6.13262 5.14279 7.49703 6.5072 7.49703 8.18428C7.49703 9.86135 6.13262 11.2258 4.45555 11.2258Z" fill="#0030AD"/>
<path d="M15.1008 9.19811C13.4237 9.19811 12.0593 7.8337 12.0593 6.15663C12.0593 4.47955 13.4237 3.11514 15.1008 3.11514C16.7779 3.11514 18.1423 4.47955 18.1423 6.15663C18.1423 7.8337 16.7779 9.19811 15.1008 9.19811Z" fill="#0030AD"/>
<path d="M25.087 8.18427H22.0455C21.6255 8.18427 21.2851 8.52471 21.2851 8.94464C21.2851 9.36456 21.6255 9.70501 22.0455 9.70501H23.2513L15.4556 17.5007L13.4586 15.5038C13.1617 15.2069 12.6803 15.2069 12.3833 15.5038L6.52309 21.364H0.653682C0.233754 21.364 -0.106689 21.7045 -0.106689 22.1244C-0.106689 22.5443 0.233754 22.8848 0.653682 22.8848H6.83804C7.03974 22.8848 7.23313 22.8047 7.37567 22.662L12.921 17.1168L14.9179 19.1137C15.2148 19.4106 15.6963 19.4106 15.9933 19.1137L24.3266 10.7803V11.9861C24.3266 12.4061 24.667 12.7465 25.087 12.7465C25.5069 12.7465 25.8473 12.4061 25.8473 11.9861V8.94464C25.8473 8.52471 25.5069 8.18427 25.087 8.18427Z" fill="#0030AD"/>
<path d="M17.6214 9.95734C16.8987 10.4381 16.032 10.7188 15.1008 10.7188C14.1697 10.7188 13.3029 10.4382 12.5802 9.95734C11.3498 10.7745 10.5386 12.1726 10.5386 13.7603V15.198L11.3081 14.4284C11.7389 13.9976 12.3118 13.7603 12.9211 13.7603C13.5303 13.7603 14.1032 13.9976 14.534 14.4284L15.4556 15.35L19.1495 11.6561C18.7915 10.9686 18.2635 10.3839 17.6214 9.95734Z" fill="#0030AD"/>
<path d="M1.93496 11.985C0.704576 12.8022 -0.106689 14.2002 -0.106689 15.788V19.8433H5.89315L9.01777 16.7187V15.788C9.01777 14.2002 8.2065 12.8022 6.97612 11.985C6.25346 12.4659 5.38669 12.7465 4.45554 12.7465C3.52439 12.7465 2.65762 12.4659 1.93496 11.985Z" fill="#0030AD"/>
</g>
<defs>
<clipPath id="clip0_90_6218">
<rect width="25.954" height="25.954" fill="white" transform="translate(0.147949 0.0229797)"/>
</clipPath>
</defs>
</svg>
