<svg width="27" height="26" viewBox="0 0 27 26" fill="none" xmlns="http://www.w3.org/2000/svg">
<path d="M18.2479 13.4059H9.21267C8.76474 13.4059 8.40161 13.769 8.40161 14.2169V14.7238C8.40161 15.1718 8.76474 15.5349 9.21267 15.5349H18.2479C18.6959 15.5349 19.059 15.1718 19.059 14.7238V14.2169C19.059 13.769 18.6959 13.4059 18.2479 13.4059Z" fill="#0030AD"/>
<path d="M16.5772 16.3456H7.53787C7.08993 16.3456 6.72681 16.7087 6.72681 17.1566V17.6636C6.72681 18.1115 7.08993 18.4746 7.53787 18.4746H16.5772C17.0251 18.4746 17.3882 18.1115 17.3882 17.6636V17.1566C17.3882 16.7087 17.0251 16.3456 16.5772 16.3456Z" fill="#0030AD"/>
<path d="M18.4871 19.2857H9.44778C8.99984 19.2857 8.63672 19.6488 8.63672 20.0968V20.6037C8.63672 21.0516 8.99984 21.4147 9.44778 21.4147H18.4871C18.935 21.4147 19.2981 21.0516 19.2981 20.6037V20.0968C19.2981 19.6488 18.935 19.2857 18.4871 19.2857Z" fill="#0030AD"/>
<path d="M18.4871 22.2258H9.44778C8.99984 22.2258 8.63672 22.5889 8.63672 23.0369V23.5438C8.63672 23.9917 8.99984 24.3548 9.44778 24.3548H18.4871C18.935 24.3548 19.2981 23.9917 19.2981 23.5438V23.0369C19.2981 22.5889 18.935 22.2258 18.4871 22.2258Z" fill="#0030AD"/>
<path d="M22.3393 1.69832C22.2136 1.62937 22.0595 1.62533 21.9338 1.69832C20.9565 2.26198 19.9103 2.52558 18.8032 2.80133C16.5606 3.18252 14.8453 4.50047 14.5411 6.84034C14.4925 7.23368 14.4925 7.64327 14.5533 8.04879C14.2005 8.51515 13.9166 9.02205 13.6976 9.55328C13.507 10.0196 13.3773 10.5225 13.3002 11.0456C13.1299 10.705 12.9068 10.3765 12.6879 10.0561C13.0153 7.91312 11.6828 5.68898 9.56126 5.1047C8.11354 4.69108 6.6131 4.45993 5.30732 3.70564C5.05184 3.5475 4.68685 3.75432 4.69903 4.05847V5.48589C4.69903 8.29212 6.97401 10.5671 9.78026 10.5671H10.9847C10.2831 9.83716 9.48421 9.24509 8.61235 8.79902C8.28791 8.59626 7.61475 8.5273 7.78101 8.00419C8.02028 7.46483 8.61638 7.92714 8.97731 8.07718C10.786 9.02611 12.5054 10.5711 13.0569 12.5947H14.0261C13.8129 9.54776 15.7351 7.38363 18.2598 6.06986C18.6248 5.9198 19.2209 5.4575 19.4601 6.00091C19.6264 6.51996 18.9492 6.58892 18.6288 6.79168C17.7569 7.23774 16.958 7.82982 16.2565 8.55975H17.4609C20.2671 8.55975 22.5421 6.28478 22.5421 3.47855V2.05113C22.5421 1.90514 22.4651 1.77131 22.3393 1.69832Z" fill="#0030AD"/>
</svg>
