<svg width="384" height="307" viewBox="0 0 384 307" fill="none" xmlns="http://www.w3.org/2000/svg">
<path d="M0 281.978V197.795H50.4772V206.838H10.1941V235.283H46.6955V244.326H10.1941V281.978H0Z" fill="#0030AD"/>
<path d="M66.6213 281.978V218.841H76.3221V281.978H66.6213ZM71.5539 208.318C69.663 208.318 68.0325 207.674 66.6624 206.386C65.3196 205.098 64.6482 203.549 64.6482 201.741C64.6482 199.932 65.3196 198.384 66.6624 197.096C68.0325 195.808 69.663 195.164 71.5539 195.164C73.4447 195.164 75.0615 195.808 76.4043 197.096C77.7745 198.384 78.4596 199.932 78.4596 201.741C78.4596 203.549 77.7745 205.098 76.4043 206.386C75.0615 207.674 73.4447 208.318 71.5539 208.318Z" fill="#0030AD"/>
<path d="M103.791 243.997V281.978H94.0898V218.841H103.462V228.706H104.284C105.764 225.5 108.011 222.924 111.025 220.978C114.04 219.005 117.931 218.019 122.699 218.019C126.974 218.019 130.715 218.895 133.921 220.649C137.127 222.376 139.621 225.006 141.402 228.541C143.183 232.049 144.074 236.488 144.074 241.86V281.978H134.373V242.517C134.373 237.557 133.085 233.693 130.509 230.926C127.933 228.13 124.398 226.733 119.904 226.733C116.807 226.733 114.04 227.404 111.601 228.747C109.189 230.09 107.285 232.049 105.887 234.625C104.489 237.201 103.791 240.325 103.791 243.997Z" fill="#0030AD"/>
<path d="M158.355 197.795H170.029L193.377 237.091H194.364L217.711 197.795H229.385L198.967 247.285V281.978H188.773V247.285L158.355 197.795Z" fill="#3A83F9"/>
<path d="M257.974 283.294C252.274 283.294 247.273 281.937 242.971 279.224C238.696 276.511 235.352 272.716 232.941 267.838C230.557 262.96 229.365 257.26 229.365 250.738C229.365 244.161 230.557 238.42 232.941 233.515C235.352 228.61 238.696 224.801 242.971 222.088C247.273 219.375 252.274 218.019 257.974 218.019C263.674 218.019 268.661 219.375 272.936 222.088C277.239 224.801 280.582 228.61 282.966 233.515C285.377 238.42 286.583 244.161 286.583 250.738C286.583 257.26 285.377 262.96 282.966 267.838C280.582 272.716 277.239 276.511 272.936 279.224C268.661 281.937 263.674 283.294 257.974 283.294ZM257.974 274.579C262.304 274.579 265.866 273.469 268.661 271.25C271.456 269.03 273.525 266.112 274.868 262.494C276.211 258.877 276.882 254.958 276.882 250.738C276.882 246.518 276.211 242.586 274.868 238.941C273.525 235.296 271.456 232.351 268.661 230.103C265.866 227.856 262.304 226.733 257.974 226.733C253.644 226.733 250.082 227.856 247.287 230.103C244.491 232.351 242.422 235.296 241.08 238.941C239.737 242.586 239.066 246.518 239.066 250.738C239.066 254.958 239.737 258.877 241.08 262.494C242.422 266.112 244.491 269.03 247.287 271.25C250.082 273.469 253.644 274.579 257.974 274.579Z" fill="#3A83F9"/>
<path d="M326.877 306.97C322.191 306.97 318.162 306.367 314.792 305.162C311.421 303.983 308.612 302.421 306.365 300.476C304.145 298.557 302.378 296.502 301.062 294.31L308.79 288.884C309.667 290.035 310.777 291.35 312.12 292.83C313.463 294.337 315.299 295.639 317.628 296.735C319.985 297.859 323.067 298.42 326.877 298.42C331.974 298.42 336.18 297.187 339.496 294.721C342.812 292.255 344.47 288.391 344.47 283.129V270.304H343.647C342.935 271.455 341.921 272.88 340.606 274.579C339.318 276.251 337.454 277.744 335.015 279.06C332.604 280.348 329.343 280.992 325.232 280.992C320.135 280.992 315.559 279.786 311.503 277.374C307.475 274.963 304.282 271.455 301.926 266.851C299.596 262.248 298.432 256.657 298.432 250.081C298.432 243.613 299.569 237.982 301.843 233.186C304.118 228.363 307.283 224.636 311.339 222.006C315.394 219.348 320.08 218.019 325.397 218.019C329.507 218.019 332.768 218.704 335.18 220.074C337.619 221.417 339.482 222.951 340.77 224.678C342.085 226.377 343.099 227.774 343.812 228.87H344.798V218.841H354.17V283.787C354.17 289.213 352.937 293.625 350.471 297.023C348.032 300.448 344.744 302.956 340.606 304.545C336.495 306.162 331.919 306.97 326.877 306.97ZM326.548 272.277C330.439 272.277 333.727 271.387 336.413 269.606C339.098 267.824 341.14 265.262 342.538 261.919C343.935 258.576 344.634 254.575 344.634 249.916C344.634 245.367 343.949 241.353 342.579 237.872C341.209 234.392 339.181 231.665 336.495 229.692C333.81 227.719 330.494 226.733 326.548 226.733C322.437 226.733 319.012 227.774 316.271 229.857C313.558 231.939 311.517 234.735 310.147 238.242C308.804 241.75 308.133 245.641 308.133 249.916C308.133 254.301 308.818 258.178 310.188 261.549C311.585 264.892 313.641 267.523 316.354 269.441C319.094 271.332 322.492 272.277 326.548 272.277Z" fill="#3A83F9"/>
<path d="M371.928 281.978V218.841H381.629V281.978H371.928ZM376.86 208.318C374.97 208.318 373.339 207.674 371.969 206.386C370.626 205.098 369.955 203.549 369.955 201.741C369.955 199.932 370.626 198.384 371.969 197.096C373.339 195.808 374.97 195.164 376.86 195.164C378.751 195.164 380.368 195.808 381.711 197.096C383.081 198.384 383.766 199.932 383.766 201.741C383.766 203.549 383.081 205.098 381.711 206.386C380.368 207.674 378.751 208.318 376.86 208.318Z" fill="#3A83F9"/>
<path fill-rule="evenodd" clip-rule="evenodd" d="M184.112 41.0796C171.173 41.0796 159.46 46.3235 150.983 54.7999C142.505 63.2789 137.262 74.9918 137.262 87.9308C137.262 100.869 142.505 112.584 150.983 121.06C159.46 129.538 171.173 134.782 184.112 134.782C197.051 134.782 208.764 129.538 217.242 121.06C225.721 112.583 230.963 100.869 230.963 87.9308C230.963 74.9918 225.719 63.2789 217.242 54.7999C208.764 46.3235 197.052 41.0796 184.112 41.0796ZM131.289 35.1061C144.809 21.5863 163.486 13.2249 184.112 13.2249C204.74 13.2249 223.416 21.5863 236.936 35.1061C250.457 48.626 258.818 67.3031 258.818 87.9308C258.818 108.559 250.457 127.236 236.936 140.754C223.416 154.274 204.739 162.637 184.112 162.637C163.486 162.637 144.807 154.274 131.289 140.754C117.768 127.234 109.406 108.557 109.406 87.9308C109.408 67.3031 117.768 48.6273 131.289 35.1061Z" fill="#3A83F9"/>
<path fill-rule="evenodd" clip-rule="evenodd" d="M171.184 64.5286C171.184 60.2716 174.635 56.8218 178.89 56.8218C183.149 56.8218 186.6 60.2716 186.6 64.5286L186.755 118.83C186.755 123.087 183.303 126.537 179.048 126.537C174.791 126.537 171.341 123.086 171.341 118.83L171.184 64.5286Z" fill="#0030AD"/>
<path fill-rule="evenodd" clip-rule="evenodd" d="M193.846 59.7284C193.846 55.4727 197.296 52.0216 201.552 52.0216C205.809 52.0216 209.259 55.4727 209.259 59.7284L209.416 118.829C209.416 123.086 205.963 126.536 201.709 126.536C197.451 126.536 194.001 123.085 194.001 118.829L193.846 59.7284Z" fill="#0030AD"/>
<path fill-rule="evenodd" clip-rule="evenodd" d="M149.674 76.8882C149.674 72.6313 153.125 69.1802 157.382 69.1802C161.639 69.1802 165.09 72.6313 165.09 76.8882L165.245 118.829C165.245 123.086 161.794 126.536 157.537 126.536C153.281 126.536 149.83 123.085 149.83 118.829L149.674 76.8882Z" fill="#0030AD"/>
<path fill-rule="evenodd" clip-rule="evenodd" d="M189.033 41.5711L230.604 0L272.176 41.5711H246.678C245.735 73.0566 245.446 106.733 216.125 127.285C192.014 144.185 146.953 137.295 140.281 104.749C160.059 130.986 201.963 125.638 213.02 92.4491C218.129 77.1222 216.532 58.6585 215.1 41.5724H189.033V41.5711Z" fill="#0030AD"/>
</svg>
