<svg width="26" height="26" viewBox="0 0 26 26" fill="none" xmlns="http://www.w3.org/2000/svg">
<path d="M15.1855 18.7812L10.2022 13.7979C10.0939 13.6896 10.0173 13.5722 9.97255 13.4458C9.92777 13.3194 9.90502 13.184 9.9043 13.0396C9.9043 12.8951 9.92705 12.7597 9.97255 12.6333C10.018 12.5069 10.0946 12.3896 10.2022 12.2812L15.1855 7.29792C15.3842 7.09931 15.6369 7 15.9439 7C16.2508 7 16.5036 7.09931 16.7022 7.29792C16.9008 7.49653 17.0001 7.74931 17.0001 8.05625C17.0001 8.36319 16.9008 8.61597 16.7022 8.81458L12.4772 13.0396L16.7022 17.2646C16.9008 17.4632 17.0001 17.716 17.0001 18.0229C17.0001 18.3299 16.9008 18.5826 16.7022 18.7812C16.5036 18.9799 16.2508 19.0792 15.9439 19.0792C15.6369 19.0792 15.3842 18.9799 15.1855 18.7812Z" fill="black"/>
</svg>
