<svg width="47" height="47" viewBox="0 0 47 47" fill="none" xmlns="http://www.w3.org/2000/svg">
<g id="Group 186">
<g id="Group 23">
<circle id="Oval" cx="23.4812" cy="23.2335" r="18.2507" fill="#0030AD"/>
</g>
<g id="Group 37">
<path id="Vector" d="M21.3642 17.5302H19.7347C19.2847 17.5302 18.9199 17.895 18.9199 18.345V28.1222C18.9199 28.5721 19.2847 28.9369 19.7347 28.9369H21.3642C21.8142 28.9369 22.179 28.5721 22.179 28.1222V18.345C22.179 17.895 21.8142 17.5302 21.3642 17.5302Z" fill="white"/>
<path id="Vector_2" d="M27.8818 17.5301H26.2523C25.8023 17.5301 25.4375 17.8949 25.4375 18.3449V28.122C25.4375 28.572 25.8023 28.9368 26.2523 28.9368H27.8818C28.3318 28.9368 28.6966 28.572 28.6966 28.122V18.3449C28.6966 17.8949 28.3318 17.5301 27.8818 17.5301Z" fill="white"/>
</g>
<path id="Ellipse 5" d="M31.095 44.7389C36.0994 42.9672 40.3292 39.5057 43.0559 34.9506C45.7825 30.3956 46.8352 25.0322 46.0326 19.7845C45.23 14.5367 42.6224 9.73316 38.6589 6.20129C34.6955 2.66942 29.6244 0.630383 24.3192 0.435432L24.2521 2.25927C29.1329 2.43863 33.7983 4.31454 37.4447 7.56386C41.0911 10.8132 43.4901 15.2325 44.2285 20.0604C44.9669 24.8883 43.9984 29.8226 41.4899 34.0133C38.9814 38.2039 35.0899 41.3885 30.4859 43.0185L31.095 44.7389Z" fill="#0030AD"/>
</g>
</svg>
