<svg width="27" height="26" viewBox="0 0 27 26" fill="none" xmlns="http://www.w3.org/2000/svg">
<g clip-path="url(#clip0_90_6202)">
<path d="M14.2693 0.0229492C6.46232 0.0229492 0.143311 6.34089 0.143311 14.1489C0.143311 14.5692 0.484059 14.91 0.904393 14.91H14.2693C14.6896 14.91 15.0303 14.5692 15.0303 14.1489V0.784032C15.0303 0.363698 14.6896 0.0229492 14.2693 0.0229492Z" fill="#0030AD"/>
<path d="M8.85441 17.1104C8.72089 16.8665 8.46495 16.715 8.18695 16.715H3.68585C3.4436 16.715 3.21574 16.8303 3.07238 17.0257C2.92898 17.221 2.88721 17.4729 2.95975 17.704C4.39325 22.2697 8.52796 25.6643 13.5081 25.977V20.2721C11.5548 20.0297 9.81552 18.865 8.85441 17.1104Z" fill="#0030AD"/>
<path d="M17.8242 2.83946C17.5931 2.76697 17.3412 2.80879 17.1459 2.9521C16.9505 3.0955 16.8352 3.32331 16.8352 3.56562V8.06667C16.8352 8.34461 16.9868 8.6005 17.2306 8.73408C18.9851 9.69529 20.1499 11.4345 20.3923 13.3878H26.0972C25.7837 8.39683 22.3792 4.26962 17.8242 2.83946Z" fill="#0030AD"/>
<path d="M20.3933 14.9099C20.0481 17.7055 17.8258 19.9277 15.0303 20.273V25.9764C20.9689 25.6026 25.7224 20.8567 26.0967 14.9099H20.3933Z" fill="#0030AD"/>
</g>
<defs>
<clipPath id="clip0_90_6202">
<rect width="25.954" height="25.954" fill="white" transform="translate(0.397949 0.0229797)"/>
</clipPath>
</defs>
</svg>
