<svg width="32" height="32" viewBox="0 0 32 32" fill="none" xmlns="http://www.w3.org/2000/svg">
<path fill-rule="evenodd" clip-rule="evenodd" d="M18.318 7.42815C18.318 5.06244 20.2466 3.14287 22.6226 3.14287C23.1867 3.14151 23.7455 3.25128 24.2672 3.46591C24.7889 3.68053 25.2632 3.99581 25.663 4.39373C26.0629 4.79166 26.3804 5.26444 26.5975 5.78509C26.8146 6.30573 26.9271 6.86405 26.9284 7.42815C26.9284 9.79515 24.9999 11.7147 22.6226 11.7147C22.0525 11.7154 21.4879 11.6028 20.9617 11.3834C20.4355 11.164 19.9582 10.8422 19.5574 10.4367L13.5981 14.4944C13.7641 15.3211 13.6827 16.1784 13.3641 16.9592L19.8981 21.2534C20.6677 20.6258 21.6308 20.2837 22.6239 20.2853C23.188 20.2841 23.7468 20.394 24.2684 20.6088C24.79 20.8236 25.2642 21.139 25.6639 21.5371C26.0636 21.9351 26.381 22.408 26.598 22.9287C26.815 23.4494 26.9273 24.0078 26.9284 24.5719C26.9284 26.9376 24.9999 28.8572 22.6226 28.8572C21.4835 28.8595 20.3902 28.4094 19.583 27.6058C18.7757 26.8022 18.3207 25.7109 18.318 24.5719C18.317 23.971 18.4437 23.3767 18.6896 22.8284L12.207 18.5714C11.422 19.254 10.4162 19.629 9.37586 19.627C8.81171 19.6284 8.25282 19.5185 7.73113 19.3038C7.20944 19.0891 6.73517 18.7737 6.33542 18.3756C5.93567 17.9775 5.61827 17.5046 5.40137 16.9838C5.18446 16.463 5.0723 15.9046 5.07129 15.3404C5.07247 14.7764 5.18476 14.2181 5.40174 13.6975C5.61872 13.1768 5.93614 12.704 6.33587 12.3061C6.73561 11.9082 7.20982 11.5929 7.73143 11.3782C8.25304 11.1636 8.81182 11.0538 9.37586 11.0552C10.7439 11.0552 11.9601 11.689 12.7483 12.6764L18.525 8.74344C18.3876 8.31855 18.3177 7.87471 18.318 7.42815Z" fill="#0030AD"/>
</svg>
