<svg width="24" height="25" viewBox="0 0 24 25" fill="none" xmlns="http://www.w3.org/2000/svg">
<path d="M21.7601 9.35575V4.86462C21.7601 3.46979 21.127 2.90593 19.5541 2.90593H15.5576C13.9847 2.90593 13.3516 3.46979 13.3516 4.86462V9.34586C13.3516 10.7506 13.9847 11.3045 15.5576 11.3045H19.5541C21.127 11.3144 21.7601 10.7506 21.7601 9.35575Z" fill="#111827"/>
<path d="M21.7601 20.4846V16.4881C21.7601 14.9152 21.127 14.2821 19.5541 14.2821H15.5576C13.9847 14.2821 13.3516 14.9152 13.3516 16.4881V20.4846C13.3516 22.0575 13.9847 22.6906 15.5576 22.6906H19.5541C21.127 22.6906 21.7601 22.0575 21.7601 20.4846Z" fill="#111827"/>
<path d="M10.3831 9.35575V4.86462C10.3831 3.46979 9.75001 2.90593 8.17712 2.90593H4.18061C2.60772 2.90593 1.97461 3.46979 1.97461 4.86462V9.34586C1.97461 10.7506 2.60772 11.3045 4.18061 11.3045H8.17712C9.75001 11.3144 10.3831 10.7506 10.3831 9.35575Z" fill="#111827"/>
<path d="M10.3831 20.4846V16.4881C10.3831 14.9152 9.75001 14.2821 8.17712 14.2821H4.18061C2.60772 14.2821 1.97461 14.9152 1.97461 16.4881V20.4846C1.97461 22.0575 2.60772 22.6906 4.18061 22.6906H8.17712C9.75001 22.6906 10.3831 22.0575 10.3831 20.4846Z" fill="#111827"/>
</svg>
