<svg width="11" height="20" viewBox="0 0 11 20" fill="none" xmlns="http://www.w3.org/2000/svg">
<path d="M0.374162 19.3334C0.491977 19.4516 0.631935 19.5453 0.786022 19.6092C0.940109 19.6731 1.1053 19.7061 1.27212 19.7061C1.43895 19.7061 1.60414 19.6731 1.75823 19.6092C1.91231 19.5453 2.05227 19.4516 2.17009 19.3334L10.7033 10.8003C10.7973 10.7064 10.872 10.5949 10.9229 10.4721C10.9738 10.3494 11 10.2178 11 10.0849C11 9.95204 10.9738 9.82046 10.9229 9.69772C10.872 9.57497 10.7973 9.46347 10.7033 9.3696L2.17009 0.836417C1.67291 0.33924 0.87134 0.33924 0.374162 0.836417C-0.123015 1.33359 -0.123015 2.13517 0.374162 2.63234L7.82167 10.0799L0.364016 17.5375C-0.123015 18.0347 -0.123015 18.8363 0.374162 19.3334Z" fill="#A6A6A6"/>
</svg>
