<svg width="32" height="32" viewBox="0 0 32 32" fill="none" xmlns="http://www.w3.org/2000/svg">
<path d="M13.4283 19.8571L20.1012 16L13.4283 12.1429V19.8571ZM28.2912 9.79C28.4583 10.3943 28.574 11.2043 28.6512 12.2329C28.7412 13.2614 28.7797 14.1486 28.7797 14.92L28.8569 16C28.8569 18.8157 28.6512 20.8857 28.2912 22.21C27.9697 23.3671 27.224 24.1129 26.0669 24.4343C25.4626 24.6014 24.3569 24.7171 22.6597 24.7943C20.9883 24.8843 19.4583 24.9229 18.044 24.9229L15.9997 25C10.6126 25 7.25686 24.7943 5.93258 24.4343C4.77544 24.1129 4.02972 23.3671 3.70829 22.21C3.54115 21.6057 3.42544 20.7957 3.34829 19.7671C3.25829 18.7386 3.21972 17.8514 3.21972 17.08L3.14258 16C3.14258 13.1843 3.34829 11.1143 3.70829 9.79C4.02972 8.63286 4.77544 7.88714 5.93258 7.56571C6.53686 7.39857 7.64258 7.28286 9.33972 7.20571C11.0112 7.11571 12.5412 7.07714 13.9554 7.07714L15.9997 7C21.3869 7 24.7426 7.20571 26.0669 7.56571C27.224 7.88714 27.9697 8.63286 28.2912 9.79Z" fill="#0030AD"/>
</svg>
