<svg width="72" height="73" viewBox="0 0 72 73" fill="none" xmlns="http://www.w3.org/2000/svg">
<g id="call">
<circle id="Ellipse" cx="36.0951" cy="36.2885" r="35.7836" fill="#F4F4F4"/>
<path id="Icon" d="M51.0279 44.0487C49.9833 42.9963 47.4534 41.4604 46.2259 40.8415C44.6275 40.0364 44.4959 39.9706 43.2395 40.904C42.4015 41.5269 41.8443 42.0833 40.8635 41.8742C39.8827 41.665 37.7515 40.4856 35.8853 38.6255C34.0191 36.7654 32.7712 34.5724 32.5614 33.595C32.3516 32.6175 32.9173 32.067 33.5343 31.227C34.4039 30.0431 34.3381 29.8457 33.5948 28.2474C33.0153 27.0042 31.4346 24.4982 30.3782 23.4589C29.248 22.3427 29.248 22.54 28.5199 22.8426C27.927 23.092 27.3583 23.3952 26.8208 23.7483C25.7683 24.4475 25.1841 25.0283 24.7756 25.9012C24.3671 26.774 24.1836 28.8203 26.2932 32.6524C28.4028 36.4845 29.8828 38.444 32.9462 41.4986C36.0096 44.5532 38.3652 46.1957 41.8088 48.1268C46.0687 50.5125 47.7027 50.0475 48.5782 49.6397C49.4538 49.2319 50.0372 48.653 50.7378 47.6006C51.0919 47.064 51.3958 46.496 51.6456 45.9036C51.9488 45.1781 52.1462 45.1781 51.0279 44.0487Z" stroke="#0030AD" stroke-width="2.10492" stroke-miterlimit="10"/>
</g>
</svg>
