<svg width="72" height="73" viewBox="0 0 72 73" fill="none" xmlns="http://www.w3.org/2000/svg">
<g id="lctn">
<circle id="Ellipse" cx="36.0951" cy="36.5705" r="35.7836" fill="#F4F4F4"/>
<g id="Icon">
<path id="Vector" d="M36.0949 21.8361C30.2845 21.8361 25.5703 26.4957 25.5703 32.2347C25.5703 38.8382 32.5867 49.3028 35.163 52.9173C35.27 53.0699 35.4101 53.194 35.5721 53.2796C35.734 53.3652 35.9132 53.4099 36.0949 53.4099C36.2766 53.4099 36.4558 53.3652 36.6177 53.2796C36.7797 53.194 36.9198 53.0699 37.0268 52.9173C39.6031 49.3044 46.6195 38.8435 46.6195 32.2347C46.6195 26.4957 41.9054 21.8361 36.0949 21.8361Z" stroke="#0030AD" stroke-width="2.10492" stroke-linecap="round" stroke-linejoin="round"/>
<path id="Vector_2" d="M36.0951 37.623C38.4201 37.623 40.3049 35.7382 40.3049 33.4131C40.3049 31.0881 38.4201 29.2033 36.0951 29.2033C33.7701 29.2033 31.8853 31.0881 31.8853 33.4131C31.8853 35.7382 33.7701 37.623 36.0951 37.623Z" stroke="#0030AD" stroke-width="2.10492" stroke-linecap="round" stroke-linejoin="round"/>
</g>
</g>
</svg>
