<svg width="118" height="133" viewBox="0 0 118 133" fill="none" xmlns="http://www.w3.org/2000/svg">
<path d="M15.9799 119.88C16.0012 122.853 17.087 125.811 19.085 128.078C22.098 131.497 26.9368 132.919 31.3463 131.833C38.5331 130.063 42.8096 121.765 39.6211 114.977C37.3055 110.047 31.7307 106.789 26.283 107.673C22.1648 108.341 18.5472 111.284 16.9213 115.107C16.2738 116.629 15.9682 118.257 15.9799 119.88Z" fill="#F7D131"/>
<mask id="mask0_125_13069" style="mask-type:luminance" maskUnits="userSpaceOnUse" x="15" y="107" width="26" height="26">
<path d="M15.9794 119.88C16.0007 122.853 17.0865 125.811 19.0846 128.078C22.0976 131.497 26.9363 132.919 31.3458 131.833C38.5326 130.063 42.8091 121.765 39.6206 114.977C37.305 110.047 31.7302 106.789 26.2825 107.673C22.1643 108.341 18.5467 111.284 16.9208 115.107C16.2733 116.629 15.9677 118.257 15.9794 119.88Z" fill="white"/>
</mask>
<g mask="url(#mask0_125_13069)">
<path d="M40.9951 120.566C40.9951 120.566 38.4416 129.197 28.6382 130.199C18.8348 131.2 15.9793 120.452 15.9793 120.452C15.9793 120.452 15.3658 121.673 15.4796 122.598C15.5933 123.523 18.5505 132.785 27.3084 132.96C36.0662 133.134 39.4246 128.307 40.1624 126.711C40.9002 125.115 40.9951 120.566 40.9951 120.566Z" fill="#E5C028"/>
</g>
<path d="M33.2686 112.467L23.6434 113.301L22.834 114.807L24.8203 114.635C24.8203 114.635 27.4968 114.156 28.5271 115.849L23.9687 116.244L23.1011 117.681L28.805 117.187C28.805 117.187 29.3456 120.235 23.9128 120.334L24.0269 121.563L30.2668 127.931L32.7366 127.716L26.2536 121.221C26.2536 121.221 30.5499 121.047 30.8713 117.057L32.7555 116.894L33.5398 115.39L30.764 115.631C30.764 115.631 30.6099 114.802 29.8604 114.198L32.4324 113.975L33.2686 112.467Z" fill="white"/>
<path d="M-0.00114059 56.926C20.1539 56.926 25.7856 66.7194 25.7856 66.7194C24.2157 62.9011 23.1994 59.0858 23.9194 54.4328C24.5366 50.4439 25.8089 46.6518 26.9398 42.818C20.8595 41.4857 21.1308 32.5564 21.1308 32.5564C28.0854 35.9946 27.2115 41.8806 27.2102 41.8886C28.0698 38.8939 28.8044 35.8624 29.036 32.6807C29.1986 30.4472 29.4978 28.2947 30.0325 26.1152C30.4784 31.4628 29.6577 36.8788 28.4652 42.0812C27.2976 47.1746 25.32 52.2067 25.6048 57.5172C25.6048 57.5172 29.5235 48.0755 41.95 46.9373C41.95 46.9373 37.7322 59.4119 25.6705 58.3254C26.1591 62.9609 28.6228 66.8819 30.7863 71.0651C31.5881 72.6245 32.395 74.2226 33.0542 75.8781C34.3557 72.6763 39.004 65.2097 54.0859 65.0557C54.0859 65.0557 50.8605 78.2011 33.9321 78.4848C34.1172 79.1706 34.268 79.8666 34.3703 80.5754C34.7717 84.2198 34.1543 88.2696 33.1142 92.163L33.1146 92.1628C33.1146 92.1628 31.9055 98.6895 37.7644 99.3701C43.6233 100.051 51.3954 103.518 54.0857 111.589C54.0857 111.589 51.5012 107.508 47.0656 104.907C48.126 106.165 49.4525 108.466 49.0728 111.857C49.0728 111.857 48.4939 104.948 39.3035 102.298C35.0973 101.532 31.7422 101.681 31.7857 101.876C31.8454 102.143 39.3069 104.238 43.6273 109.501C47.6971 114.459 46.8516 121.699 46.8516 121.457C46.8516 121.215 46.0534 113.806 42.4663 110.518C41.6995 109.815 40.8086 109.163 39.8326 108.573C43.3745 112.766 42.4852 116.956 42.4852 116.956C41.1122 110.812 37.7073 107.855 35.4566 106.527C33.9158 105.982 32.3126 105.583 30.738 105.344C30.7538 105.384 30.7619 105.407 30.7619 105.407C30.7619 105.407 29.3846 105.131 27.4006 105.091C27.3868 105.091 27.3738 105.091 27.3602 105.091C24.4378 105.037 20.2203 105.502 17.1354 108.104C11.9331 112.492 14.5368 119.859 14.5368 119.859C14.5368 119.859 11.449 115.146 14.5368 108.862C16.1256 105.629 19.085 103.918 21.5854 103.017C19.8748 102.776 18.1706 102.479 16.4341 102.561C14.688 102.644 12.9492 103.256 11.6763 104.482C10.2433 105.863 9.28175 107.786 8.4804 109.58C7.54838 111.665 6.92251 113.869 6.72677 116.148C6.79124 112.476 7.68102 108.684 9.59184 105.52C9.60607 105.496 9.62148 105.455 9.64219 105.437C7.42811 107.383 5.90888 110.014 5.15314 112.845C5.15962 111.129 5.64311 109.334 6.38195 107.888C7.19175 106.304 8.19241 104.786 9.51104 103.599C12.0224 101.338 15.362 99.5552 18.7899 99.3793C18.866 99.3754 18.9422 99.3723 19.0185 99.3702C25.6679 99.1872 27.7329 95.1898 28.0958 94.3451C28.1166 94.2923 28.1386 94.2394 28.1593 94.1868V94.1867C29.7444 89.9766 31.2505 85.4225 31.0479 80.913C30.7622 77.9003 29.5115 75.0681 28.2841 72.2832C27.7348 71.0787 27.1851 69.911 26.6659 68.7567L26.6692 68.7641C5.86732 70.4034 -0.00114059 56.926 -0.00114059 56.926Z" fill="#2F5481"/>
<mask id="mask1_125_13069" style="mask-type:luminance" maskUnits="userSpaceOnUse" x="-1" y="26" width="56" height="96">
<path d="M-0.00211716 56.926C20.1529 56.926 25.7847 66.7194 25.7847 66.7194C24.2147 62.9011 23.1984 59.0858 23.9184 54.4328C24.5356 50.4439 25.8079 46.6518 26.9388 42.818C20.8585 41.4857 21.1298 32.5564 21.1298 32.5564C28.0844 35.9946 27.2105 41.8806 27.2092 41.8886C28.0688 38.8939 28.8034 35.8624 29.0351 32.6807C29.1976 30.4472 29.4968 28.2947 30.0316 26.1152C30.4774 31.4628 29.6568 36.8788 28.4642 42.0812C27.2966 47.1746 25.319 52.2067 25.6039 57.5172C25.6039 57.5172 29.5225 48.0755 41.9491 46.9373C41.9491 46.9373 37.7312 59.4119 25.6695 58.3254C26.1581 62.9609 28.6218 66.8819 30.7853 71.0651C31.5871 72.6245 32.394 74.2226 33.0532 75.8781C34.3547 72.6763 39.0031 65.2097 54.085 65.0557C54.085 65.0557 50.8596 78.2011 33.9311 78.4848C34.1162 79.1706 34.267 79.8666 34.3693 80.5754C34.7708 84.2198 34.1533 88.2696 33.1132 92.163L33.1137 92.1628C33.1137 92.1628 31.9045 98.6895 37.7634 99.3701C43.6223 100.051 51.3945 103.518 54.0847 111.589C54.0847 111.589 51.5002 107.508 47.0647 104.907C48.1251 106.165 49.4516 108.466 49.0718 111.857C49.0718 111.857 48.4929 104.948 39.3025 102.298C35.0964 101.532 31.7412 101.681 31.7847 101.876C31.8445 102.143 39.3059 104.238 43.6263 109.501C47.6961 114.459 46.8506 121.699 46.8506 121.457C46.8506 121.215 46.0524 113.806 42.4653 110.518C41.6986 109.815 40.8076 109.163 39.8316 108.573C43.3735 112.766 42.4842 116.956 42.4842 116.956C41.1113 110.812 37.7063 107.855 35.4557 106.527C33.9148 105.982 32.3116 105.583 30.7371 105.344C30.7528 105.384 30.7609 105.407 30.7609 105.407C30.7609 105.407 29.3836 105.131 27.3996 105.091C27.3858 105.091 27.3729 105.091 27.3592 105.091C24.4368 105.037 20.2193 105.502 17.1345 108.104C11.9322 112.492 14.5359 119.859 14.5359 119.859C14.5359 119.859 11.448 115.146 14.5359 108.862C16.1247 105.629 19.0841 103.918 21.5844 103.017C19.8738 102.776 18.1696 102.479 16.4331 102.561C14.687 102.644 12.9482 103.256 11.6753 104.482C10.2423 105.863 9.28077 107.786 8.47943 109.58C7.5474 111.665 6.92153 113.869 6.7258 116.148C6.79027 112.476 7.68004 108.684 9.59086 105.52C9.60509 105.496 9.6205 105.455 9.64122 105.437C7.42713 107.383 5.9079 110.014 5.15216 112.845C5.15865 111.129 5.64214 109.334 6.38097 107.888C7.19077 106.304 8.19143 104.786 9.51007 103.599C12.0214 101.338 15.361 99.5552 18.7889 99.3793C18.8651 99.3754 18.9412 99.3723 19.0175 99.3702C25.6669 99.1872 27.7319 95.1898 28.0948 94.3451C28.1156 94.2923 28.1376 94.2394 28.1584 94.1868V94.1867C29.7435 89.9766 31.2495 85.4225 31.0469 80.913C30.7613 77.9003 29.5106 75.0681 28.2831 72.2832C27.7338 71.0787 27.1841 69.911 26.6649 68.7567L26.6682 68.7641C5.86634 70.4034 -0.00211716 56.926 -0.00211716 56.926Z" fill="white"/>
</mask>
<g mask="url(#mask1_125_13069)">
<path d="M0.936729 56.2119C0.936729 56.2119 10.9354 66.0636 26.6662 68.7563C26.6662 68.7563 20.8102 71.3205 14.5141 69.5859C8.21793 67.8513 -1.29055 60.3344 -1.86885 56.6081L0.936729 56.2119Z" fill="#254768"/>
</g>
<mask id="mask2_125_13069" style="mask-type:luminance" maskUnits="userSpaceOnUse" x="-1" y="26" width="56" height="96">
<path d="M-0.00211716 56.926C20.1529 56.926 25.7847 66.7194 25.7847 66.7194C24.2147 62.9011 23.1984 59.0858 23.9184 54.4328C24.5356 50.4439 25.8079 46.6518 26.9388 42.818C20.8585 41.4857 21.1298 32.5564 21.1298 32.5564C28.0844 35.9946 27.2105 41.8806 27.2092 41.8886C28.0688 38.8939 28.8034 35.8624 29.0351 32.6807C29.1976 30.4472 29.4968 28.2947 30.0316 26.1152C30.4774 31.4628 29.6568 36.8788 28.4642 42.0812C27.2966 47.1746 25.319 52.2067 25.6039 57.5172C25.6039 57.5172 29.5225 48.0755 41.9491 46.9373C41.9491 46.9373 37.7312 59.4119 25.6695 58.3254C26.1581 62.9609 28.6218 66.8819 30.7853 71.0651C31.5871 72.6245 32.394 74.2226 33.0532 75.8781C34.3547 72.6763 39.0031 65.2097 54.085 65.0557C54.085 65.0557 50.8596 78.2011 33.9311 78.4848C34.1162 79.1706 34.267 79.8666 34.3693 80.5754C34.7708 84.2198 34.1533 88.2696 33.1132 92.163L33.1137 92.1628C33.1137 92.1628 31.9045 98.6895 37.7634 99.3701C43.6223 100.051 51.3945 103.518 54.0847 111.589C54.0847 111.589 51.5002 107.508 47.0647 104.907C48.1251 106.165 49.4516 108.466 49.0718 111.857C49.0718 111.857 48.4929 104.948 39.3025 102.298C35.0964 101.532 31.7412 101.681 31.7847 101.876C31.8445 102.143 39.3059 104.238 43.6263 109.501C47.6961 114.459 46.8506 121.699 46.8506 121.457C46.8506 121.215 46.0524 113.806 42.4653 110.518C41.6986 109.815 40.8076 109.163 39.8316 108.573C43.3735 112.766 42.4842 116.956 42.4842 116.956C41.1113 110.812 37.7063 107.855 35.4557 106.527C33.9148 105.982 32.3116 105.583 30.7371 105.344C30.7528 105.384 30.7609 105.407 30.7609 105.407C30.7609 105.407 29.3836 105.131 27.3996 105.091C27.3858 105.091 27.3729 105.091 27.3592 105.091C24.4368 105.037 20.2193 105.502 17.1345 108.104C11.9322 112.492 14.5359 119.859 14.5359 119.859C14.5359 119.859 11.448 115.146 14.5359 108.862C16.1247 105.629 19.0841 103.918 21.5844 103.017C19.8738 102.776 18.1696 102.479 16.4331 102.561C14.687 102.644 12.9482 103.256 11.6753 104.482C10.2423 105.863 9.28077 107.786 8.47943 109.58C7.5474 111.665 6.92153 113.869 6.7258 116.148C6.79027 112.476 7.68004 108.684 9.59086 105.52C9.60509 105.496 9.6205 105.455 9.64122 105.437C7.42713 107.383 5.9079 110.014 5.15216 112.845C5.15865 111.129 5.64214 109.334 6.38097 107.888C7.19077 106.304 8.19143 104.786 9.51007 103.599C12.0214 101.338 15.361 99.5552 18.7889 99.3793C18.8651 99.3754 18.9412 99.3723 19.0175 99.3702C25.6669 99.1872 27.7319 95.1898 28.0948 94.3451C28.1156 94.2923 28.1376 94.2394 28.1584 94.1868V94.1867C29.7435 89.9766 31.2495 85.4225 31.0469 80.913C30.7613 77.9003 29.5106 75.0681 28.2831 72.2832C27.7338 71.0787 27.1841 69.911 26.6649 68.7567L26.6682 68.7641C5.86634 70.4034 -0.00211716 56.926 -0.00211716 56.926Z" fill="white"/>
</mask>
<g mask="url(#mask2_125_13069)">
<path d="M33.0553 75.8777L34.0397 78.8976C34.0397 78.8976 40.7806 80.4717 46.0957 76.9116C51.4109 73.3514 54.4697 66.7324 54.4697 66.7324C54.4697 66.7324 40.7303 75.7804 33.0082 73.7887L33.0553 75.8777Z" fill="#254768"/>
</g>
<mask id="mask3_125_13069" style="mask-type:luminance" maskUnits="userSpaceOnUse" x="-1" y="26" width="56" height="96">
<path d="M-0.00211716 56.926C20.1529 56.926 25.7847 66.7194 25.7847 66.7194C24.2147 62.9011 23.1984 59.0858 23.9184 54.4328C24.5356 50.4439 25.8079 46.6518 26.9388 42.818C20.8585 41.4857 21.1298 32.5564 21.1298 32.5564C28.0844 35.9946 27.2105 41.8806 27.2092 41.8886C28.0688 38.8939 28.8034 35.8624 29.0351 32.6807C29.1976 30.4472 29.4968 28.2947 30.0316 26.1152C30.4774 31.4628 29.6568 36.8788 28.4642 42.0812C27.2966 47.1746 25.319 52.2067 25.6039 57.5172C25.6039 57.5172 29.5225 48.0755 41.9491 46.9373C41.9491 46.9373 37.7312 59.4119 25.6695 58.3254C26.1581 62.9609 28.6218 66.8819 30.7853 71.0651C31.5871 72.6245 32.394 74.2226 33.0532 75.8781C34.3547 72.6763 39.0031 65.2097 54.085 65.0557C54.085 65.0557 50.8596 78.2011 33.9311 78.4848C34.1162 79.1706 34.267 79.8666 34.3693 80.5754C34.7708 84.2198 34.1533 88.2696 33.1132 92.163L33.1137 92.1628C33.1137 92.1628 31.9045 98.6895 37.7634 99.3701C43.6223 100.051 51.3945 103.518 54.0847 111.589C54.0847 111.589 51.5002 107.508 47.0647 104.907C48.1251 106.165 49.4516 108.466 49.0718 111.857C49.0718 111.857 48.4929 104.948 39.3025 102.298C35.0964 101.532 31.7412 101.681 31.7847 101.876C31.8445 102.143 39.3059 104.238 43.6263 109.501C47.6961 114.459 46.8506 121.699 46.8506 121.457C46.8506 121.215 46.0524 113.806 42.4653 110.518C41.6986 109.815 40.8076 109.163 39.8316 108.573C43.3735 112.766 42.4842 116.956 42.4842 116.956C41.1113 110.812 37.7063 107.855 35.4557 106.527C33.9148 105.982 32.3116 105.583 30.7371 105.344C30.7528 105.384 30.7609 105.407 30.7609 105.407C30.7609 105.407 29.3836 105.131 27.3996 105.091C27.3858 105.091 27.3729 105.091 27.3592 105.091C24.4368 105.037 20.2193 105.502 17.1345 108.104C11.9322 112.492 14.5359 119.859 14.5359 119.859C14.5359 119.859 11.448 115.146 14.5359 108.862C16.1247 105.629 19.0841 103.918 21.5844 103.017C19.8738 102.776 18.1696 102.479 16.4331 102.561C14.687 102.644 12.9482 103.256 11.6753 104.482C10.2423 105.863 9.28077 107.786 8.47943 109.58C7.5474 111.665 6.92153 113.869 6.7258 116.148C6.79027 112.476 7.68004 108.684 9.59086 105.52C9.60509 105.496 9.6205 105.455 9.64122 105.437C7.42713 107.383 5.9079 110.014 5.15216 112.845C5.15865 111.129 5.64214 109.334 6.38097 107.888C7.19077 106.304 8.19143 104.786 9.51007 103.599C12.0214 101.338 15.361 99.5552 18.7889 99.3793C18.8651 99.3754 18.9412 99.3723 19.0175 99.3702C25.6669 99.1872 27.7319 95.1898 28.0948 94.3451C28.1156 94.2923 28.1376 94.2394 28.1584 94.1868V94.1867C29.7435 89.9766 31.2495 85.4225 31.0469 80.913C30.7613 77.9003 29.5106 75.0681 28.2831 72.2832C27.7338 71.0787 27.1841 69.911 26.6649 68.7567L26.6682 68.7641C5.86634 70.4034 -0.00211716 56.926 -0.00211716 56.926Z" fill="white"/>
</mask>
<g mask="url(#mask3_125_13069)">
<path d="M40.9038 51.9805C40.9038 51.9805 30.2886 56.9713 25.8981 55.4485L25.6055 57.5174L25.6711 58.3256C25.6711 58.3256 28.3622 59.3334 30.9302 58.5015C33.4983 57.6697 40.9038 51.9805 40.9038 51.9805Z" fill="#254768"/>
</g>
<mask id="mask4_125_13069" style="mask-type:luminance" maskUnits="userSpaceOnUse" x="-1" y="26" width="56" height="96">
<path d="M-0.00211716 56.926C20.1529 56.926 25.7847 66.7194 25.7847 66.7194C24.2147 62.9011 23.1984 59.0858 23.9184 54.4328C24.5356 50.4439 25.8079 46.6518 26.9388 42.818C20.8585 41.4857 21.1298 32.5564 21.1298 32.5564C28.0844 35.9946 27.2105 41.8806 27.2092 41.8886C28.0688 38.8939 28.8034 35.8624 29.0351 32.6807C29.1976 30.4472 29.4968 28.2947 30.0316 26.1152C30.4774 31.4628 29.6568 36.8788 28.4642 42.0812C27.2966 47.1746 25.319 52.2067 25.6039 57.5172C25.6039 57.5172 29.5225 48.0755 41.9491 46.9373C41.9491 46.9373 37.7312 59.4119 25.6695 58.3254C26.1581 62.9609 28.6218 66.8819 30.7853 71.0651C31.5871 72.6245 32.394 74.2226 33.0532 75.8781C34.3547 72.6763 39.0031 65.2097 54.085 65.0557C54.085 65.0557 50.8596 78.2011 33.9311 78.4848C34.1162 79.1706 34.267 79.8666 34.3693 80.5754C34.7708 84.2198 34.1533 88.2696 33.1132 92.163L33.1137 92.1628C33.1137 92.1628 31.9045 98.6895 37.7634 99.3701C43.6223 100.051 51.3945 103.518 54.0847 111.589C54.0847 111.589 51.5002 107.508 47.0647 104.907C48.1251 106.165 49.4516 108.466 49.0718 111.857C49.0718 111.857 48.4929 104.948 39.3025 102.298C35.0964 101.532 31.7412 101.681 31.7847 101.876C31.8445 102.143 39.3059 104.238 43.6263 109.501C47.6961 114.459 46.8506 121.699 46.8506 121.457C46.8506 121.215 46.0524 113.806 42.4653 110.518C41.6986 109.815 40.8076 109.163 39.8316 108.573C43.3735 112.766 42.4842 116.956 42.4842 116.956C41.1113 110.812 37.7063 107.855 35.4557 106.527C33.9148 105.982 32.3116 105.583 30.7371 105.344C30.7528 105.384 30.7609 105.407 30.7609 105.407C30.7609 105.407 29.3836 105.131 27.3996 105.091C27.3858 105.091 27.3729 105.091 27.3592 105.091C24.4368 105.037 20.2193 105.502 17.1345 108.104C11.9322 112.492 14.5359 119.859 14.5359 119.859C14.5359 119.859 11.448 115.146 14.5359 108.862C16.1247 105.629 19.0841 103.918 21.5844 103.017C19.8738 102.776 18.1696 102.479 16.4331 102.561C14.687 102.644 12.9482 103.256 11.6753 104.482C10.2423 105.863 9.28077 107.786 8.47943 109.58C7.5474 111.665 6.92153 113.869 6.7258 116.148C6.79027 112.476 7.68004 108.684 9.59086 105.52C9.60509 105.496 9.6205 105.455 9.64122 105.437C7.42713 107.383 5.9079 110.014 5.15216 112.845C5.15865 111.129 5.64214 109.334 6.38097 107.888C7.19077 106.304 8.19143 104.786 9.51007 103.599C12.0214 101.338 15.361 99.5552 18.7889 99.3793C18.8651 99.3754 18.9412 99.3723 19.0175 99.3702C25.6669 99.1872 27.7319 95.1898 28.0948 94.3451C28.1156 94.2923 28.1376 94.2394 28.1584 94.1868V94.1867C29.7435 89.9766 31.2495 85.4225 31.0469 80.913C30.7613 77.9003 29.5106 75.0681 28.2831 72.2832C27.7338 71.0787 27.1841 69.911 26.6649 68.7567L26.6682 68.7641C5.86634 70.4034 -0.00211716 56.926 -0.00211716 56.926Z" fill="white"/>
</mask>
<g mask="url(#mask4_125_13069)">
<path d="M27.5815 40.5567C27.5815 40.5567 25.6007 40.5351 24.0159 39.4187C22.4312 38.3022 20.8826 35.1328 20.8826 35.1328C20.8826 35.1328 21.0987 38.2302 22.4673 40.3911C23.836 42.5521 26.7647 43.4054 26.7647 43.4054L27.5815 40.5567Z" fill="#254768"/>
</g>
<path d="M84.9389 20.1992C85.0842 16.1167 84.9125 13.5743 84.7473 11.1302C84.4573 6.83563 82.1646 3.49309 79.6266 3.66451C77.0887 3.83594 75.2664 7.4564 75.5566 11.7511C75.6002 12.3975 75.6918 13.0217 75.8177 13.6167C76.4087 16.4067 78.5044 17.8233 80.9486 17.4636L80.9227 20.6748L84.9389 20.1992Z" fill="white"/>
<mask id="mask5_125_13069" style="mask-type:luminance" maskUnits="userSpaceOnUse" x="75" y="3" width="10" height="18">
<path d="M84.9428 20.1992C85.0881 16.1167 84.9164 13.5743 84.7513 11.1302C84.4612 6.83563 82.1685 3.49309 79.6306 3.66451C77.0926 3.83594 75.2703 7.4564 75.5605 11.7511C75.6041 12.3975 75.6957 13.0217 75.8217 13.6167C76.4126 16.4067 78.5083 17.8233 80.9525 17.4636L80.9266 20.6748L84.9428 20.1992Z" fill="white"/>
</mask>
<g mask="url(#mask5_125_13069)">
<path d="M80.9519 17.464C81.4389 17.4908 81.932 17.4114 82.3624 17.1741C82.822 16.9207 83.0506 16.5264 83.3901 16.1593C83.3991 16.1496 83.414 16.5975 83.4059 16.6362C83.3628 16.8409 83.2763 17.0424 83.1623 17.2173C82.664 17.9815 81.6485 18.2194 80.8011 18.3025L80.4336 18.2147L80.9519 17.464Z" fill="#254768"/>
</g>
<path d="M75.9532 7.65993C75.9532 7.65993 80.5246 5.39896 83.3782 7.09576L84.7484 12.8843C84.7484 12.8843 88.8373 9.65547 85.2983 4.06887C83.5884 1.36956 79.3476 0.361483 79.3752 0.918476C79.4029 1.47547 80.4178 1.90004 80.289 1.9416C80.1603 1.98315 75.8874 1.02253 75.0308 1.96799C74.1741 2.91344 76.1676 2.51584 75.9749 2.69328C75.7822 2.87073 72.4335 3.42564 72.035 4.34019C71.6364 5.25474 73.4338 4.60734 73.4338 4.60734C73.4338 4.60734 70.9238 6.05898 71.3127 7.64338C71.4936 8.38025 74.2684 8.33383 75.9532 7.65993Z" fill="#254768"/>
<path d="M85.6762 10.131C85.4936 10.8398 84.8914 11.2974 84.3311 11.1531C83.7707 11.0087 83.4646 10.3171 83.6472 9.60825C83.8298 8.89939 84.432 8.44183 84.9924 8.58617C85.5526 8.73051 85.8588 9.42212 85.6762 10.131Z" fill="white"/>
<path d="M78.0349 10.0434C78.063 10.4601 77.8251 10.8156 77.5034 10.8374C77.1818 10.8591 76.8983 10.5388 76.8701 10.1221C76.8418 9.70543 77.0798 9.34996 77.4015 9.32819C77.7231 9.30643 78.0067 9.62672 78.0349 10.0434Z" fill="#254768"/>
<path d="M82.1003 9.86568C82.1284 10.2824 81.8905 10.6379 81.5689 10.6596C81.2472 10.6814 81.0142 10.2611 80.9861 9.84439C80.9579 9.42768 81.1452 9.17222 81.4669 9.15046C81.7886 9.1287 82.0722 9.44898 82.1003 9.86568Z" fill="#254768"/>
<path d="M96.7607 49.3331C96.7607 49.3331 93.0907 17.5391 84.2185 17.9781C69.9642 18.6834 83.8838 48.682 83.8838 48.682L96.7607 49.3331Z" fill="white"/>
<path d="M80.0019 48.6304C80.0019 48.6304 76.2914 33.001 76.1572 27.8627C76.0231 22.7244 80.937 18.5117 80.937 18.5117L80.9609 18.873C80.9609 18.873 76.8083 23.6405 78.1423 30.1336C79.4762 36.6267 84.2891 48.7012 84.2891 48.7012L85.7969 51.6305C80.9756 53.209 80.0019 48.6304 80.0019 48.6304Z" fill="#254768"/>
<path d="M79.2758 13.1745C79.3217 13.1745 79.3668 13.1729 79.4104 13.1697C79.5329 13.1608 79.625 13.0543 79.6161 12.9319C79.6072 12.8094 79.4998 12.7182 79.3782 12.7262C78.957 12.757 78.4685 12.5985 78.288 12.3737C78.2215 12.2909 78.2035 12.209 78.2313 12.1158C78.2451 12.0694 78.2712 12.0391 78.3185 12.0144C78.5399 11.8992 79.0426 11.9962 79.3074 12.0844C79.3766 12.1074 79.4528 12.0952 79.5111 12.0515C79.5695 12.0077 79.6028 11.9381 79.6001 11.8653L79.5288 9.93877C79.5243 9.81608 79.4234 9.72047 79.2984 9.72475C79.1757 9.72926 79.0798 9.83251 79.0843 9.95521L79.1445 11.5807C78.8511 11.5169 78.413 11.4641 78.1138 11.6196C77.9599 11.6995 77.8532 11.8271 77.8051 11.9887C77.7348 12.2244 77.7819 12.4537 77.9412 12.6521C78.2248 13.005 78.8013 13.1745 79.2758 13.1745Z" fill="#254768"/>
<path d="M81.2567 8.81078C81.5204 8.81078 81.8452 8.76124 82.243 8.6294C82.3596 8.59074 82.4228 8.46492 82.3841 8.34836C82.3455 8.2318 82.2196 8.16871 82.1031 8.20725C80.9252 8.59768 80.6155 8.15065 80.6127 8.14602C80.5533 8.03861 80.4179 7.9996 80.3105 8.05909C80.2031 8.11847 80.1641 8.25379 80.2236 8.36132C80.237 8.3854 80.4841 8.81078 81.2567 8.81078Z" fill="#254768"/>
<path d="M76.8492 8.90205C77.9367 8.90205 78.5914 8.46069 78.6205 8.44067C78.7216 8.3711 78.7472 8.23267 78.6776 8.1315C78.6082 8.03045 78.4702 8.00487 78.369 8.07397C78.3569 8.08207 77.7067 8.50977 76.6518 8.45201C76.5283 8.44541 76.4243 8.53941 76.4176 8.66187C76.4109 8.78457 76.505 8.88932 76.6276 8.89603C76.7032 8.89997 76.7772 8.90205 76.8492 8.90205Z" fill="#254768"/>
<path d="M78.8335 15.0491C78.8944 15.0491 78.9552 15.0242 78.9991 14.9752C79.3221 14.6157 80.3763 13.6478 80.965 13.9084C81.0773 13.9581 81.2085 13.9073 81.2583 13.7951C81.3079 13.6828 81.2572 13.5515 81.145 13.5017C80.7061 13.3074 80.1479 13.4556 79.4863 13.9424C79.0265 14.2807 78.6825 14.6623 78.6681 14.6783C78.5862 14.7698 78.5938 14.9103 78.6851 14.9923C78.7275 15.0305 78.7806 15.0491 78.8335 15.0491Z" fill="#254768"/>
<path d="M84.2198 48.6816C84.2198 48.6816 109.392 95.8293 110.914 95.7278C112.436 95.6263 116.9 94.1043 116.9 93.597C116.9 93.0896 100.557 60.213 100.56 59.7057C100.564 59.1983 101.274 51.441 99.9547 49.3329L84.2198 48.6816Z" fill="#254768"/>
<path d="M85.3208 17.9883C85.3208 17.9883 82.3239 20.5387 82.4626 25.0783C82.6011 29.6178 87.698 49.0477 89.2896 50.4855C90.8811 51.9232 101.124 52.5291 103.77 49.1042C106.416 45.6794 96.4674 36.8952 95.656 35.3076C94.8446 33.7201 91.9165 23.419 90.5054 21.0552C89.0942 18.6916 85.3208 17.9883 85.3208 17.9883Z" fill="#2F5481"/>
<path d="M76.1578 27.8623C76.1578 27.8623 71.9122 53.1939 72.4216 53.8945C72.9311 54.5949 75.2764 55.1043 75.5365 54.8497C75.7966 54.595 80.3785 40.9373 80.1267 40.3948C79.8748 39.8521 76.1578 27.8623 76.1578 27.8623Z" fill="#254768"/>
<path d="M81.9179 18.5119C81.9179 18.5119 75.2095 34.2135 75.1267 38.2717C75.0438 42.3299 75.5258 42.8268 75.5258 42.8268C75.5258 42.8268 79.0606 40.7977 79.7646 38.9757C80.4686 37.1537 82.0061 19.776 82.8408 18.1543C82.8408 18.1543 82.2687 18.1874 81.9179 18.5119Z" fill="#F7D131"/>
<path d="M72.5787 54.0586C72.5787 54.0586 71.5932 55.1049 71.5809 55.5592C71.5687 56.0135 71.9248 57.3275 72.3669 57.389C72.8089 57.4504 74.3603 57.424 74.6878 57.0451C75.0154 56.6662 75.0318 54.9915 74.9581 54.8947C74.8842 54.7979 74.0424 54.917 72.5787 54.0586Z" fill="white"/>
<path d="M57.3506 61.6423C57.3506 61.6423 58.8389 62.1363 59.2725 63.3497L69.1755 65.285L68.6495 60.7314C68.5878 60.1975 68.9706 59.7149 69.5044 59.6533L70.3231 59.5587L70.1007 57.6323C70.0069 56.8205 70.591 56.0839 71.4028 55.9901L76.0081 55.4581C76.8198 55.3644 77.5564 55.9484 77.6503 56.7602L77.8729 58.6866L78.6216 58.6002C79.1554 58.5385 79.6381 58.9213 79.6998 59.455L80.97 70.4515C81.0317 70.9852 80.6489 71.468 80.1151 71.5296L70.9981 72.5827C70.4642 72.6444 69.9816 72.2616 69.9199 71.7278L69.7061 69.8768L59.0787 65.0834C58.4829 65.9115 57.2404 65.9005 57.2404 65.9005C57.2404 65.9005 56.5799 63.1656 57.3506 61.6423ZM77.078 58.7783L76.8556 56.8519C76.8124 56.4783 76.4733 56.2095 76.0998 56.2526L71.4944 56.7846C71.1209 56.8278 70.852 57.1668 70.8952 57.5404L71.1177 59.4668L77.078 58.7783Z" fill="#F7D131"/>
<mask id="mask6_125_13069" style="mask-type:luminance" maskUnits="userSpaceOnUse" x="56" y="55" width="25" height="18">
<path d="M57.3516 61.6423C57.3516 61.6423 58.8399 62.1363 59.2735 63.3497L69.1765 65.285L68.6505 60.7314C68.5888 60.1975 68.9716 59.7149 69.5054 59.6533L70.3241 59.5587L70.1016 57.6323C70.0079 56.8205 70.592 56.0839 71.4037 55.9901L76.0091 55.4581C76.8208 55.3644 77.5574 55.9484 77.6513 56.7602L77.8739 58.6866L78.6225 58.6002C79.1564 58.5385 79.6391 58.9213 79.7008 59.455L80.971 70.4515C81.0327 70.9852 80.6499 71.468 80.1161 71.5296L70.9991 72.5827C70.4652 72.6444 69.9825 72.2616 69.9208 71.7278L69.7071 69.8768L59.0797 65.0834C58.4838 65.9115 57.2414 65.9005 57.2414 65.9005C57.2414 65.9005 56.5809 63.1656 57.3516 61.6423ZM77.079 58.7783L76.8565 56.8519C76.8134 56.4783 76.4743 56.2095 76.1008 56.2526L71.4954 56.7846C71.1219 56.8278 70.853 57.1668 70.8962 57.5404L71.1186 59.4668L77.079 58.7783Z" fill="white"/>
</mask>
<g mask="url(#mask6_125_13069)">
<path d="M82.9619 68.3692C82.9619 68.3692 69.3873 64.1564 67.2029 62.128C65.0184 60.0996 56.2288 59.4235 56.1248 61.3998C56.0208 63.3761 55.8127 66.2367 56.697 66.7569C57.5811 67.2769 62.262 68.2651 62.262 68.2651C62.262 68.2651 69.3354 73.9342 71.2597 73.8822C73.1841 73.8302 80.6024 73.5181 80.976 73.154C81.3496 72.79 82.9619 68.3692 82.9619 68.3692Z" fill="#E2BF2B"/>
</g>
<mask id="mask7_125_13069" style="mask-type:luminance" maskUnits="userSpaceOnUse" x="56" y="55" width="25" height="18">
<path d="M57.3516 61.6423C57.3516 61.6423 58.8399 62.1363 59.2735 63.3497L69.1765 65.285L68.6505 60.7314C68.5888 60.1975 68.9716 59.7149 69.5054 59.6533L70.3241 59.5587L70.1016 57.6323C70.0079 56.8205 70.592 56.0839 71.4037 55.9901L76.0091 55.4581C76.8208 55.3644 77.5574 55.9484 77.6513 56.7602L77.8739 58.6866L78.6225 58.6002C79.1564 58.5385 79.6391 58.9213 79.7008 59.455L80.971 70.4515C81.0327 70.9852 80.6499 71.468 80.1161 71.5296L70.9991 72.5827C70.4652 72.6444 69.9825 72.2616 69.9208 71.7278L69.7071 69.8768L59.0797 65.0834C58.4838 65.9115 57.2414 65.9005 57.2414 65.9005C57.2414 65.9005 56.5809 63.1656 57.3516 61.6423ZM77.079 58.7783L76.8565 56.8519C76.8134 56.4783 76.4743 56.2095 76.1008 56.2526L71.4954 56.7846C71.1219 56.8278 70.853 57.1668 70.8962 57.5404L71.1186 59.4668L77.079 58.7783Z" fill="white"/>
</mask>
<g mask="url(#mask7_125_13069)">
<path d="M57.6763 61.7777C57.6763 61.7777 57.2349 64.346 57.6331 65.8647L57.0612 65.9906C57.0612 65.9906 56.3398 63.1176 57.2478 61.5381L57.6763 61.7777Z" fill="#2F5481"/>
</g>
<path d="M72.3234 55.002C72.3234 55.002 71.9923 55.577 71.9923 55.9253C71.9923 56.2736 72.3875 56.8719 72.5264 56.9039C72.6653 56.936 73.0927 56.7223 73.0927 56.6155C73.0927 56.5087 72.8576 55.8783 72.8897 55.8141C72.9217 55.75 73.488 55.376 73.4667 55.1303C73.4454 54.8844 72.441 54.6174 72.3234 55.002Z" fill="white"/>
<path d="M72.8907 55.8136L74.5581 55.6258C74.5581 55.6258 73.9483 54.9791 73.7864 54.917C73.6246 54.8548 72.8907 55.8136 72.8907 55.8136Z" fill="#7CB5E0"/>
<path d="M73.0944 56.6151C73.0944 56.6151 73.0926 56.1791 73.4234 56.19C73.7543 56.2009 73.8194 56.4503 73.8194 56.4503C73.8194 56.4503 73.9333 56.0434 74.1774 56.0489C74.4215 56.0543 74.5588 56.3319 74.5588 56.3319C74.5588 56.3319 74.8337 56.0543 74.9368 56.1899C75.04 56.3255 74.841 57.0419 74.6231 57.1041C74.4053 57.1665 73.118 57.138 73.0944 56.6151Z" fill="white"/>
<path d="M87.6353 48.8711L88.341 53.8799C83.192 60.726 77.5376 68.5133 77.0858 70.2747C76.2431 73.5604 76.7247 95.7309 78.3975 96.1341C80.0703 96.537 83.4644 96.2793 83.5878 95.7279C83.7111 95.1765 85.0319 73.1972 85.4629 72.616C87.9395 69.2767 91.0329 66.3457 93.9483 63.3978C97.0021 60.3103 100.731 57.369 102.031 53.0634C102.095 52.8528 102.86 49.108 102.641 49.1046C102.636 49.1046 87.6353 48.8711 87.6353 48.8711Z" fill="#2F5481"/>
<path d="M102.589 50.1258C102.589 50.1258 98.0736 52.3451 93.5786 51.6308C89.0836 50.9165 88.4156 48.8555 88.4156 48.8555C88.4156 48.8555 88.6433 52.1388 93.3387 53.1245C98.0341 54.1102 102.186 52.3542 102.186 52.3542C102.186 52.3542 102.537 51.1466 102.589 50.1258Z" fill="#254768"/>
<path d="M86.6665 43.6817C86.6665 43.6817 89.08 36.6464 89.2729 33.9131C89.2729 33.9131 89.5356 35.8265 89.2729 38.3775C89.0101 40.9286 87.2788 45.6557 87.2788 45.6557L86.6665 43.6817Z" fill="#254768"/>
<path d="M82.8385 22.6807C82.8385 22.6807 81.3391 39.0415 80.9762 39.7464C80.6133 40.4514 62.0057 37.5838 61.8325 38.2763C61.6594 38.9687 61.5729 41.6518 61.8325 42.0846C62.0921 42.5174 82.688 47.3199 84.9909 45.835C87.2938 44.3502 89.1831 36.7848 89.2697 35.2369C89.3562 33.6889 86.3608 23.8671 82.8385 22.6807Z" fill="#2F5481"/>
<path d="M54.2258 27.6415C56.2596 26.7602 58.7498 28.1399 59.895 30.7823C61.0401 33.4249 60.344 36.1852 58.3102 37.0667C56.2765 37.948 53.7862 36.5684 52.6411 33.9258C51.496 31.2833 52.1921 28.5229 54.2258 27.6415ZM57.9616 36.2623C59.5204 35.5868 60.0259 33.2894 59.0905 31.131C58.1551 28.9726 56.1332 27.7705 54.5744 28.446C53.0155 29.1215 52.5101 31.4188 53.4453 33.5774C54.3807 35.7357 56.4026 36.9379 57.9616 36.2623Z" fill="#254768"/>
<path opacity="0.43" d="M54.5738 28.4458C56.1326 27.7703 58.1546 28.9724 59.0899 31.1308C60.0253 33.2892 59.5198 35.5866 57.961 36.2622C56.4022 36.9377 54.3802 35.7355 53.4449 33.5771C52.5094 31.4187 53.0149 29.1214 54.5738 28.4458Z" fill="white"/>
<mask id="mask8_125_13069" style="mask-type:luminance" maskUnits="userSpaceOnUse" x="52" y="28" width="8" height="9">
<path d="M54.5777 28.4458C56.1365 27.7703 58.1585 28.9724 59.0938 31.1308C60.0292 33.2892 59.5238 35.5866 57.9649 36.2622C56.4061 36.9377 54.3841 35.7355 53.4488 33.5771C52.5133 31.4187 53.0188 29.1214 54.5777 28.4458Z" fill="white"/>
</mask>
<g mask="url(#mask8_125_13069)">
<path d="M52.9382 29.5166L58.8968 30.1989L59.8467 31.8527L52.6375 31.1289L52.9382 29.5166Z" fill="white"/>
</g>
<mask id="mask9_125_13069" style="mask-type:luminance" maskUnits="userSpaceOnUse" x="52" y="28" width="8" height="9">
<path d="M54.5777 28.4458C56.1365 27.7703 58.1585 28.9724 59.0938 31.1308C60.0292 33.2892 59.5238 35.5866 57.9649 36.2622C56.4061 36.9377 54.3841 35.7355 53.4488 33.5771C52.5133 31.4187 53.0188 29.1214 54.5777 28.4458Z" fill="white"/>
</mask>
<g mask="url(#mask9_125_13069)">
<path d="M59.8809 33.3884L52.7925 32.6523L53.384 34.5499L59.7297 34.9924L59.8809 33.3884Z" fill="white"/>
</g>
<path d="M60.422 43.0602L61.2377 42.7067C61.4693 42.6063 61.5758 42.3371 61.4753 42.1055L59.3184 37.1281C59.2181 36.8965 58.9488 36.79 58.7172 36.8903L57.9015 37.2438C57.6699 37.3442 57.5634 37.6134 57.6639 37.845L59.8208 42.8224C59.9212 43.0542 60.1903 43.1606 60.422 43.0602Z" fill="#254768"/>
<path d="M61.8013 38.435C61.8013 38.435 60.2134 37.5025 59.8586 37.6422C59.5037 37.7819 57.5199 38.8298 57.5338 39.207C57.5478 39.5843 58.1889 39.95 58.1889 39.95C58.1889 39.95 57.7573 40.4784 57.9809 40.7439C58.2044 41.0093 58.7164 41.167 58.7164 41.167C58.7164 41.167 58.2184 41.5681 58.484 41.8196C58.7494 42.0712 59.235 42.3637 59.235 42.3637C59.235 42.3637 61.2519 42.5111 61.7471 41.7952C62.2422 41.0792 61.6677 39.4513 61.8013 38.435Z" fill="white"/>
<path d="M78.906 96.0089C78.906 96.0089 79.1531 97.8371 79.079 97.936C79.0049 98.0348 73.125 100.184 73.0015 100.703C72.878 101.222 83.4024 101.148 83.5012 100.925C83.6001 100.703 82.933 95.7275 82.933 95.7275L78.906 96.0089Z" fill="#254768"/>
<path d="M112.131 94.7743C112.131 94.7743 112.92 96.4417 112.88 96.5584C112.839 96.675 107.887 100.505 107.926 101.037C107.966 101.569 117.973 98.3093 118 98.0675C118.027 97.8257 115.883 93.2861 115.883 93.2861L112.131 94.7743Z" fill="#254768"/>
</svg>
