<svg width="24" height="24" viewBox="0 0 24 24" fill="none" xmlns="http://www.w3.org/2000/svg">
<g id="Subtract">
<path id="Subtract_2" fill-rule="evenodd" clip-rule="evenodd" d="M4 0C1.79086 0 0 1.79086 0 4V20C0 22.2091 1.79086 24 4 24H20C22.2091 24 24 22.2091 24 20V4C24 1.79086 22.2091 0 20 0H4ZM14.6463 3.84H15.9754H15.9767V6.70871C15.8245 6.7096 15.3718 6.70928 14.9573 6.70898C14.7637 6.70885 14.5784 6.70871 14.436 6.70871C14.434 6.70871 14.431 6.70865 14.427 6.70857C14.3154 6.70627 13.4391 6.68826 13.4391 7.56061C13.4448 7.9297 13.4391 9.20064 13.4391 9.20064H15.9871L15.7806 12.0577H13.4987V20.4732H10.0415V12.1129H8.16V9.20879H9.98498C9.98498 8.91643 9.98587 8.63517 9.98674 8.3599C9.98844 7.82656 9.99006 7.31569 9.98498 6.79017C9.98498 4.50348 11.7396 3.84 13.3171 3.84H14.6463Z" fill="white"/>
</g>
</svg>
