<svg width="37" height="36" viewBox="0 0 37 36" fill="none" xmlns="http://www.w3.org/2000/svg">
<g id="ic:round-photo">
<path id="Vector" d="M32.0376 28.5613V7.76451C32.0376 6.13047 30.7007 4.79353 29.0666 4.79353H8.2698C6.63577 4.79353 5.29883 6.13047 5.29883 7.76451V28.5613C5.29883 30.1954 6.63577 31.5323 8.2698 31.5323H29.0666C30.7007 31.5323 32.0376 30.1954 32.0376 28.5613ZM14.0632 21.1042L17.1827 24.8625L21.7877 18.9354C22.0848 18.5491 22.679 18.5491 22.9761 18.9502L28.1902 25.9023C28.2729 26.0126 28.3233 26.1439 28.3357 26.2812C28.3481 26.4186 28.322 26.5567 28.2603 26.6801C28.1986 26.8035 28.1038 26.9072 27.9865 26.9798C27.8691 27.0523 27.7339 27.0907 27.596 27.0907H9.785C9.16109 27.0907 8.81943 26.3777 9.20566 25.8874L12.9045 21.1339C13.1868 20.7477 13.7512 20.7328 14.0632 21.1042Z" fill="#101010"/>
</g>
</svg>
