<svg width="24" height="24" viewBox="0 0 24 24" fill="none" xmlns="http://www.w3.org/2000/svg">
<g id="LinkedIn">
<g clip-path="url(#clip0_2081_870)">
<path id="Vector" d="M20.4491 20.4493H16.8931V14.8801C16.8931 13.5521 16.8694 11.8426 15.0436 11.8426C13.1915 11.8426 12.9081 13.2895 12.9081 14.7835V20.4489H9.35204V8.99652H12.7658V10.5616H12.8136C13.1553 9.97747 13.649 9.49691 14.2421 9.17115C14.8352 8.84535 15.5056 8.68658 16.1819 8.71166C19.7861 8.71166 20.4506 11.0824 20.4506 14.1667L20.4491 20.4493ZM5.33963 7.43107C4.9315 7.43114 4.53248 7.31019 4.1931 7.08349C3.85368 6.85678 3.58913 6.53454 3.43288 6.15748C3.27661 5.78041 3.23567 5.36549 3.31522 4.96516C3.39477 4.56483 3.59124 4.19706 3.8798 3.90838C4.16835 3.61973 4.536 3.42312 4.93631 3.34342C5.33659 3.26372 5.75154 3.30451 6.12863 3.46064C6.50575 3.61677 6.82809 3.88123 7.0549 4.22055C7.28171 4.55987 7.4028 4.95886 7.40288 5.36701C7.40292 5.63802 7.34961 5.90639 7.24593 6.15677C7.14229 6.40719 6.9903 6.63471 6.79872 6.82637C6.60714 7.01803 6.37966 7.1701 6.12933 7.27385C5.87896 7.37761 5.61063 7.43103 5.33963 7.43107ZM7.11765 20.4493H3.5579V8.99652H7.11765V20.4493ZM22.222 0.00126835H1.77099C1.30681 -0.0039701 0.859536 0.175297 0.527456 0.499675C0.19538 0.824054 0.00566523 1.26701 0 1.7312V22.2677C0.00547113 22.7321 0.195069 23.1754 0.527134 23.5001C0.859202 23.8248 1.30658 24.0045 1.77099 23.9995H22.222C22.6873 24.0054 23.1359 23.8262 23.4693 23.5015C23.8027 23.1768 23.9936 22.7331 24 22.2677V1.72971C23.9934 1.2646 23.8024 0.82115 23.469 0.496779C23.1356 0.172407 22.6871 -0.00634766 22.222 -0.000213388V0.00126835Z" fill="white"/>
</g>
</g>
<defs>
<clipPath id="clip0_2081_870">
<rect width="24" height="24" rx="3" fill="white"/>
</clipPath>
</defs>
</svg>
