<svg width="196" height="55" viewBox="0 0 196 55" fill="none" xmlns="http://www.w3.org/2000/svg">
<path fill-rule="evenodd" clip-rule="evenodd" d="M25.4308 13.8922C21.0551 13.8922 17.0941 15.6656 14.2271 18.5321C11.3602 21.3995 9.58722 25.3605 9.58722 29.7362C9.58722 34.1115 11.3602 38.0734 14.2271 40.9399C17.0941 43.8069 21.0551 45.5802 25.4308 45.5802C29.8065 45.5802 33.7675 43.8069 36.6345 40.9399C39.5019 38.0729 41.2748 34.1115 41.2748 29.7362C41.2748 25.3605 39.5014 21.3995 36.6345 18.5321C33.7675 15.6656 29.8069 13.8922 25.4308 13.8922ZM7.56713 11.8721C12.1392 7.30002 18.4554 4.47241 25.4308 4.47241C32.4066 4.47241 38.7224 7.30002 43.2945 11.8721C47.867 16.4442 50.6946 22.7604 50.6946 29.7362C50.6946 36.7121 47.867 43.0282 43.2945 47.5999C38.7224 52.172 32.4062 55 25.4308 55C18.4554 55 12.1388 52.172 7.56713 47.5999C2.99459 43.0278 0.166992 36.7116 0.166992 29.7362C0.16743 22.7604 2.99459 16.4447 7.56713 11.8721Z" fill="#CFCFCF"/>
<path fill-rule="evenodd" clip-rule="evenodd" d="M21.0576 21.8221C21.0576 20.3825 22.2247 19.2158 23.6639 19.2158C25.1039 19.2158 26.271 20.3825 26.271 21.8221L26.3235 40.1857C26.3235 41.6254 25.156 42.792 23.7172 42.792C22.2776 42.792 21.111 41.6249 21.111 40.1857L21.0576 21.8221Z" fill="white"/>
<path fill-rule="evenodd" clip-rule="evenodd" d="M28.7217 20.1988C28.7217 18.7596 29.8883 17.5925 31.3279 17.5925C32.7676 17.5925 33.9342 18.7596 33.9342 20.1988L33.9871 40.1853C33.9871 41.625 32.8196 42.7916 31.3809 42.7916C29.9408 42.7916 28.7742 41.6245 28.7742 40.1853L28.7217 20.1988Z" fill="white"/>
<path fill-rule="evenodd" clip-rule="evenodd" d="M13.7842 26.0018C13.7842 24.5622 14.9513 23.3951 16.3909 23.3951C17.8305 23.3951 18.9976 24.5622 18.9976 26.0018L19.0501 40.1853C19.0501 41.6249 17.883 42.7916 16.4434 42.7916C15.0042 42.7916 13.8371 41.6245 13.8371 40.1853L13.7842 26.0018Z" fill="white"/>
<path fill-rule="evenodd" clip-rule="evenodd" d="M27.094 14.0584L41.1524 0L55.2113 14.0584H46.5885C46.2696 24.7061 46.1716 36.0948 36.2562 43.0448C28.1023 48.7599 12.8637 46.4301 10.6074 35.4238C17.2959 44.2963 31.4667 42.4879 35.2059 31.2642C36.9338 26.0809 36.3935 19.837 35.9093 14.0588H27.094V14.0584Z" fill="white"/>
<path d="M66.6144 42V13.5311H83.6846V16.5893H70.0618V26.2086H82.4058V29.2668H70.0618V42H66.6144ZM89.1442 42V20.6483H92.4248V42H89.1442ZM90.8123 17.0897C90.1728 17.0897 89.6214 16.8719 89.1581 16.4364C88.704 16.0008 88.4769 15.4772 88.4769 14.8656C88.4769 14.2539 88.704 13.7303 89.1581 13.2948C89.6214 12.8592 90.1728 12.6414 90.8123 12.6414C91.4517 12.6414 91.9985 12.8592 92.4526 13.2948C92.9159 13.7303 93.1476 14.2539 93.1476 14.8656C93.1476 15.4772 92.9159 16.0008 92.4526 16.4364C91.9985 16.8719 91.4517 17.0897 90.8123 17.0897ZM101.714 29.1556V42H98.4334V20.6483H101.603V23.9845H101.881C102.381 22.9002 103.141 22.0291 104.161 21.3712C105.18 20.7039 106.496 20.3703 108.108 20.3703C109.554 20.3703 110.819 20.6668 111.903 21.2599C112.988 21.8438 113.831 22.7334 114.433 23.9289C115.036 25.1151 115.337 26.6164 115.337 28.4328V42H112.056V28.6552C112.056 26.9778 111.621 25.6711 110.75 24.7352C109.878 23.7899 108.683 23.3173 107.163 23.3173C106.116 23.3173 105.18 23.5443 104.355 23.9984C103.54 24.4525 102.896 25.1151 102.423 25.9862C101.95 26.8574 101.714 27.9138 101.714 29.1556Z" fill="white"/>
<path d="M116.425 13.5311H120.372L128.268 26.8203H128.602L136.497 13.5311H140.445L130.159 30.2677V42H126.711V30.2677L116.425 13.5311ZM150.113 42.4448C148.186 42.4448 146.494 41.9861 145.039 41.0686C143.594 40.1512 142.463 38.8677 141.648 37.2181C140.841 35.5685 140.438 33.641 140.438 31.4354C140.438 29.2112 140.841 27.2697 141.648 25.6109C142.463 23.9521 143.594 22.6639 145.039 21.7465C146.494 20.829 148.186 20.3703 150.113 20.3703C152.041 20.3703 153.727 20.829 155.173 21.7465C156.628 22.6639 157.759 23.9521 158.565 25.6109C159.38 27.2697 159.788 29.2112 159.788 31.4354C159.788 33.641 159.38 35.5685 158.565 37.2181C157.759 38.8677 156.628 40.1512 155.173 41.0686C153.727 41.9861 152.041 42.4448 150.113 42.4448ZM150.113 39.4978C151.577 39.4978 152.782 39.1225 153.727 38.3719C154.673 37.6212 155.372 36.6343 155.827 35.411C156.281 34.1877 156.508 32.8625 156.508 31.4354C156.508 30.0082 156.281 28.6784 155.827 27.4458C155.372 26.2133 154.673 25.2171 153.727 24.4571C152.782 23.6972 151.577 23.3173 150.113 23.3173C148.649 23.3173 147.444 23.6972 146.499 24.4571C145.554 25.2171 144.854 26.2133 144.4 27.4458C143.946 28.6784 143.719 30.0082 143.719 31.4354C143.719 32.8625 143.946 34.1877 144.4 35.411C144.854 36.6343 145.554 37.6212 146.499 38.3719C147.444 39.1225 148.649 39.4978 150.113 39.4978ZM173.415 50.4517C171.83 50.4517 170.468 50.2478 169.328 49.8401C168.188 49.4416 167.238 48.9134 166.478 48.2554C165.727 47.6067 165.13 46.9116 164.685 46.1703L167.298 44.3353C167.595 44.7246 167.97 45.1694 168.424 45.6698C168.878 46.1795 169.499 46.6197 170.287 46.9904C171.084 47.3704 172.126 47.5603 173.415 47.5603C175.138 47.5603 176.561 47.1433 177.682 46.3093C178.803 45.4752 179.364 44.1685 179.364 42.3892V38.0522H179.086C178.845 38.4414 178.502 38.9233 178.057 39.4978C177.622 40.0631 176.992 40.5682 176.167 41.013C175.351 41.4486 174.249 41.6664 172.859 41.6664C171.135 41.6664 169.587 41.2586 168.216 40.4431C166.853 39.6276 165.774 38.4414 164.977 36.8845C164.189 35.3276 163.795 33.4371 163.795 31.2129C163.795 29.0259 164.18 27.1215 164.949 25.4997C165.718 23.8687 166.788 22.6083 168.16 21.7187C169.532 20.8198 171.116 20.3703 172.914 20.3703C174.304 20.3703 175.407 20.602 176.223 21.0653C177.047 21.5194 177.677 22.0384 178.113 22.6222C178.558 23.1968 178.901 23.6694 179.142 24.0401H179.475V20.6483H182.645V42.6116C182.645 44.4465 182.228 45.9386 181.394 47.0877C180.569 48.2461 179.457 49.0941 178.057 49.6316C176.667 50.1783 175.12 50.4517 173.415 50.4517ZM173.303 38.7194C174.619 38.7194 175.731 38.4182 176.64 37.8158C177.548 37.2135 178.238 36.347 178.711 35.2164C179.183 34.0858 179.42 32.7328 179.42 31.1573C179.42 29.619 179.188 28.2613 178.725 27.0844C178.261 25.9075 177.576 24.9854 176.667 24.3181C175.759 23.6509 174.638 23.3173 173.303 23.3173C171.913 23.3173 170.755 23.6694 169.828 24.3737C168.911 25.078 168.22 26.0233 167.757 27.2095C167.303 28.3957 167.076 29.7117 167.076 31.1573C167.076 32.6401 167.307 33.9514 167.771 35.0913C168.243 36.2219 168.938 37.1115 169.856 37.7602C170.783 38.3997 171.932 38.7194 173.303 38.7194ZM188.65 42V20.6483H191.93V42H188.65ZM190.318 17.0897C189.679 17.0897 189.127 16.8719 188.664 16.4364C188.21 16.0008 187.983 15.4772 187.983 14.8656C187.983 14.2539 188.21 13.7303 188.664 13.2948C189.127 12.8592 189.679 12.6414 190.318 12.6414C190.957 12.6414 191.504 12.8592 191.958 13.2948C192.422 13.7303 192.653 14.2539 192.653 14.8656C192.653 15.4772 192.422 16.0008 191.958 16.4364C191.504 16.8719 190.957 17.0897 190.318 17.0897Z" fill="#CFCFCF"/>
</svg>
