<svg width="74" height="74" viewBox="0 0 74 74" fill="none" xmlns="http://www.w3.org/2000/svg">
<g id="Group 13">
<g id="Group 9">
<g id="Group 48095615">
<g id="OBJECTS">
<g id="Group">
<g id="Group_2">
<g id="Group_3">
<path id="Vector" fill-rule="evenodd" clip-rule="evenodd" d="M33.7607 18.5645C27.9134 18.5645 22.6202 20.9343 18.7889 24.7649C14.9577 28.5967 12.5885 33.8899 12.5885 39.7373C12.5885 45.5841 14.9577 50.8784 18.7889 54.709C22.6202 58.5403 27.9134 60.9101 33.7607 60.9101C39.6081 60.9101 44.9013 58.5403 48.7325 54.709C52.5643 50.8778 54.9335 45.5841 54.9335 39.7373C54.9335 33.8899 52.5637 28.5967 48.7325 24.7649C44.9013 20.9343 39.6087 18.5645 33.7607 18.5645ZM9.88901 15.865C15.9988 9.75517 24.4393 5.97656 33.7607 5.97656C43.0827 5.97656 51.5226 9.75517 57.6324 15.865C63.7428 21.9748 67.5214 30.4153 67.5214 39.7373C67.5214 49.0593 63.7428 57.4997 57.6324 63.609C51.5226 69.7188 43.0821 73.498 33.7607 73.498C24.4393 73.498 15.9983 69.7188 9.88901 63.609C3.7786 57.4992 0 49.0587 0 39.7373C0.000584561 30.4153 3.7786 21.9754 9.88901 15.865Z" fill="#3A83F9"/>
<g id="Group_4">
<path id="Vector_2" fill-rule="evenodd" clip-rule="evenodd" d="M27.918 29.1614C27.918 27.2376 29.4776 25.6786 31.4008 25.6786C33.3251 25.6786 34.8848 27.2376 34.8848 29.1614L34.9549 53.7013C34.9549 55.6251 33.3947 57.1841 31.4721 57.1841C29.5483 57.1841 27.9893 55.6245 27.9893 53.7013L27.918 29.1614Z" fill="#0030AD"/>
<path id="Vector_3" fill-rule="evenodd" clip-rule="evenodd" d="M38.1582 26.9921C38.1582 25.0689 39.7172 23.5093 41.641 23.5093C43.5648 23.5093 45.1238 25.0689 45.1238 26.9921L45.1946 53.7007C45.1946 55.6245 43.6344 57.1835 41.7118 57.1835C39.7874 57.1835 38.2283 55.6239 38.2283 53.7007L38.1582 26.9921Z" fill="#0030AD"/>
<path id="Vector_4" fill-rule="evenodd" clip-rule="evenodd" d="M18.1973 34.7469C18.1973 32.8231 19.7569 31.2635 21.6807 31.2635C23.6045 31.2635 25.1641 32.8231 25.1641 34.7469L25.2342 53.7007C25.2342 55.6245 23.6746 57.1835 21.7508 57.1835C19.8276 57.1835 18.268 55.6239 18.268 53.7007L18.1973 34.7469Z" fill="#0030AD"/>
</g>
<path id="Vector_5" fill-rule="evenodd" clip-rule="evenodd" d="M35.9846 18.7866L54.7712 0L73.5584 18.7866H62.0356C61.6094 33.0154 61.4785 48.2344 48.2283 57.5219C37.3321 65.1592 16.9683 62.0459 13.9531 47.3377C22.8911 59.1944 41.8279 56.7778 46.8247 41.7791C49.1337 34.8527 48.4118 26.5087 47.7647 18.7872H35.9846V18.7866Z" fill="#0030AD"/>
</g>
</g>
</g>
</g>
</g>
</g>
</g>
</svg>
