<svg width="379" height="217" viewBox="0 0 379 217" fill="none" xmlns="http://www.w3.org/2000/svg">
<g opacity="0.658529">
<ellipse cx="180.558" cy="14.7236" rx="180.558" ry="14.7236" transform="matrix(-1 0 0 1 361.115 187.532)" fill="#DCDBED"/>
</g>
<path fill-rule="evenodd" clip-rule="evenodd" d="M324.19 92.7818C324.723 95.5096 323.875 97.9893 322.675 100.412C322.557 100.649 322.436 100.888 322.314 101.128C321.196 103.332 320.031 105.631 320.228 108.109C320.238 108.242 320.4 108.214 320.4 108.109C320.312 105.532 321.44 103.302 322.567 101.074C323.764 98.7072 324.959 96.344 324.694 93.5734C324.396 91.2055 323.436 88.9702 321.923 87.126C320.921 85.938 319.843 84.8165 318.695 83.7688L318.238 83.2061C317.231 82.051 316.332 80.8059 315.553 79.4865C314.739 77.9426 314.204 76.2668 313.972 74.5365C313.941 74.3356 313.911 74.1344 313.88 73.933C313.414 70.8371 312.944 67.7183 310.61 65.39C308.449 63.4023 305.736 62.1185 302.83 61.7085C296.403 60.564 288.937 62.1281 285.08 67.8507C284.401 68.8553 283.881 69.9587 283.538 71.122C281.36 73.047 279.835 75.6041 279.176 78.4373C278.737 80.8122 279.601 82.8481 280.305 84.5075C280.746 85.5472 281.125 86.439 281.081 87.1737C281.013 88.409 280.515 89.5271 280.025 90.6293C279.83 91.0674 279.637 91.503 279.471 91.9425C278.832 93.2591 278.288 94.6202 277.843 96.015C277.332 97.9717 277.412 100.036 278.072 101.947C278.569 103.704 279.487 105.311 280.747 106.63C282.013 107.808 283.584 108.604 285.28 108.929C285.68 109.024 286.09 109.11 286.499 109.186C287.052 109.445 287.62 109.675 288.187 109.904C289.104 110.276 290.021 110.647 290.879 111.142C292.39 112.033 293.527 113.443 294.079 115.109C294.412 116.058 294.638 117.025 294.863 117.988C295.011 118.621 295.158 119.253 295.336 119.878C295.742 121.339 296.424 122.708 297.345 123.912C299.237 126.26 301.853 127.913 304.782 128.614C308.192 129.391 311.742 129.296 315.105 128.338C318.114 127.546 320.914 126.03 322.447 123.216C323.795 120.757 324.031 117.839 323.094 115.195C322.393 113.675 321.548 112.225 320.571 110.865C319.664 109.477 319.215 107.839 319.285 106.182C319.434 103.926 320.36 101.824 321.28 99.7345C322.605 96.7269 323.919 93.7454 322.885 90.3688C322.397 88.9116 321.666 87.5476 320.723 86.3344C322.456 88.1181 323.657 90.3512 324.19 92.7818ZM285.509 108.692C285.541 108.711 285.572 108.729 285.604 108.748L285.546 108.7C285.534 108.697 285.522 108.695 285.509 108.692ZM278.902 93.8353C278.402 94.9684 278.056 96.1633 277.871 97.3884C277.695 100.034 278.384 102.665 279.833 104.885C281.15 106.854 283.191 108.222 285.509 108.692C283.488 107.499 281.81 105.799 280.642 103.759C279.302 101.443 278.614 98.8063 278.652 96.1294C278.669 95.3588 278.753 94.5913 278.902 93.8353ZM278.902 93.8353C278.914 93.8083 278.926 93.7814 278.938 93.7546C278.943 93.723 278.943 93.6907 278.938 93.6592C278.925 93.7178 278.913 93.7765 278.902 93.8353Z" fill="#263238"/>
<path d="M241.991 68.7085L248.143 95.9382C248.409 96.7393 248 97.3783 247.19 97.3593L233.249 97.0159C232.38 96.9306 231.639 96.3512 231.345 95.5281L225.193 68.2983C224.917 67.4972 225.336 66.8582 226.145 66.8772L240.086 67.2206C240.955 67.3059 241.697 67.8854 241.991 68.7085Z" fill="#A6A6A6"/>
<path d="M240.296 68.6514L246.447 95.8811C246.714 96.6823 246.304 97.3213 245.495 97.3022L231.554 96.9589C230.688 96.8729 229.948 96.2985 229.649 95.4806L223.498 68.2413C223.222 67.4402 223.641 66.8107 224.45 66.8298L238.391 67.1636C239.258 67.2534 239.998 67.8312 240.296 68.6514Z" fill="#C7C7C7"/>
<path d="M236.44 69.7959C236.399 70.2455 236.616 70.6794 236.999 70.9166C237.383 71.1539 237.867 71.1539 238.251 70.9166C238.634 70.6794 238.851 70.2455 238.811 69.7959C238.756 69.1812 238.241 68.7102 237.625 68.7102C237.009 68.7102 236.495 69.1812 236.44 69.7959Z" fill="#263238"/>
<path d="M285.919 111.475C277.768 128.185 259.704 149.778 252.371 149.759C248.886 149.759 242.649 150.493 238.087 146.411C228.231 137.493 220.147 120.612 218.585 110.988C218.033 107.574 234.716 100.43 237.125 103.253C242.753 109.844 249.219 122.71 250.238 122.653C253.99 122.424 268.855 110.407 279.225 101.947C291.861 91.6748 289.167 104.808 285.919 111.475Z" fill="#AD6359"/>
<path d="M218.48 93.3535C220.384 86.4579 221.88 84.97 220.384 78.3128C219.432 73.9446 221.746 71.4362 224.774 74.9747C229.726 80.7639 229.193 90.168 228.069 93.3726L218.48 93.3535Z" fill="#AD6359"/>
<path d="M219.384 113.974C219.384 113.974 216.451 104.274 217.699 96.7302C218.575 91.5036 221.727 80.3637 236.439 74.6793C239.934 73.3345 245.857 73.8877 240.953 78.1701C237.477 81.203 234.354 82.0709 232.649 84.2073C232.649 84.2073 240.096 85.8192 241.315 89.3672C242.374 92.4831 243.211 95.6702 243.819 98.9047C243.252 99.1496 242.67 99.3598 242.077 99.5342C242.077 99.5342 242.896 102.968 240.353 107.67L219.384 113.974Z" fill="#AD6359"/>
<path d="M219.327 91.8754C221.469 90.1205 226.059 86.4581 230.859 84.7795C236.191 82.872 246.961 80.7546 248.295 84.7032C249.247 87.5644 245.238 88.7948 245.238 88.7948C245.238 88.7948 249.875 88.7948 250.19 91.6561C250.475 94.2217 247.333 94.9465 247.333 94.9465C247.333 94.9465 250.19 95.4615 249.942 97.9795C249.704 101.022 243.857 99.4482 240.962 102.31C240.267 102.949 219.327 91.8754 219.327 91.8754Z" fill="#AD6359"/>
<path d="M231.897 90.7501C236.006 88.7379 240.63 88.026 245.153 88.7091C245.267 88.7091 245.305 88.833 245.2 88.833C240.693 88.9421 236.216 89.6019 231.869 90.7978C231.869 90.7978 231.869 90.7596 231.897 90.7501Z" fill="#263238"/>
<path d="M233.934 96.091C238.186 94.4839 242.792 94.0555 247.266 94.8511C247.38 94.8511 247.418 94.9846 247.314 94.9751C242.821 94.8581 238.329 95.2516 233.925 96.1482L233.934 96.091Z" fill="#263238"/>
<path d="M278.415 126.611L264.55 112.305C264.55 112.305 274.768 102.767 282.291 99.0855C289.814 95.404 291.09 100.259 288.005 107.86C284.919 115.461 278.415 126.611 278.415 126.611Z" fill="#3DB2FF"/>
<path d="M268.655 110.025C272.914 113.752 276.919 117.76 280.644 122.023C280.644 122.023 280.567 122.147 280.548 122.119C277.082 119.048 270.654 112.41 268.512 110.168C268.474 110.13 268.607 109.987 268.655 110.025Z" fill="#263238"/>
<path d="M267.302 115.166L278.415 126.611C278.415 126.611 284.938 115.405 288.013 107.813C289.68 103.683 290.07 100.345 288.88 98.7615L267.302 115.166Z" fill="#263238"/>
<path d="M76.222 205.439C78.4026 206.279 141.776 207.433 144.261 206.012C144.528 205.849 144.451 203.055 145.385 195.806C145.432 195.463 146.88 194.118 149.137 192.22C157.612 185.105 177.523 170.103 177.523 170.103L145.899 142.587L115.255 172.754L107.275 180.604C107.275 180.604 81.3832 194.605 78.8216 196.455C76.2601 198.305 74.0413 204.6 76.222 205.439Z" fill="#AD6359"/>
<path d="M76.2211 205.439C78.4018 206.278 141.775 207.432 144.26 206.011C144.527 205.849 144.451 203.055 145.384 195.806C135.433 197.389 91.0002 198.229 86.4389 196.416C82.3632 194.776 90.1622 190.007 91.8001 189.053C85.7437 192.392 79.954 195.625 78.8208 196.455C76.2973 198.305 74.0405 204.6 76.2211 205.439Z" fill="#066EB2"/>
<path d="M122.006 162.196L155.64 192.077C155.64 192.077 190.702 156.378 197.929 156.092C201.558 155.949 259.588 188.405 287.023 191.247C306.478 193.26 318.381 168.462 318.381 168.462L275.32 151.8C245.285 136.969 211.432 110.331 190.968 112.82C168.781 115.519 122.006 162.196 122.006 162.196Z" fill="#37474F"/>
<path d="M132.758 157.933C138.262 162.825 136.748 161.347 142.194 166.307C144.861 168.729 158.297 180.89 160.411 183.57C160.459 183.627 160.411 183.713 160.306 183.675C157.45 181.767 144.308 169.321 141.69 166.85C136.329 161.795 137.881 163.188 132.615 158.085C132.584 158.061 132.57 158.021 132.578 157.982C132.585 157.944 132.614 157.913 132.652 157.902C132.69 157.892 132.731 157.904 132.758 157.933Z" fill="#263238"/>
<path d="M160.83 182.005C168.448 175.262 193.511 153.288 194.53 152.439C195.319 151.685 196.195 151.029 197.139 150.484C197.929 150.173 198.817 150.244 199.549 150.675C200.71 151.218 201.844 151.81 202.986 152.372L209.766 155.682C218.527 159.964 227.231 164.361 236.058 168.5C244.504 172.567 253.159 176.181 261.988 179.325C270.797 182.44 279.91 184.614 289.175 185.811C290.318 185.954 291.461 186.078 292.613 186.183C292.65 186.183 292.68 186.213 292.68 186.25C292.68 186.287 292.65 186.316 292.613 186.316C283.521 185.776 274.532 184.1 265.855 181.328C257.097 178.544 248.534 175.183 240.22 171.266C231.573 167.289 223.079 163.026 214.509 158.781C210.004 156.54 205.519 154.28 201.006 152.105C199.987 151.609 198.53 150.522 197.358 151.056C196.87 151.313 196.419 151.633 196.016 152.01L194.511 153.259C192.607 154.871 161.887 181.357 160.877 182.12C160.858 182.177 160.754 182.072 160.83 182.005Z" fill="#263238"/>
<path d="M198.053 156.101C202.71 156.597 259.855 188.424 287.023 191.247C306.478 193.26 318.381 168.462 318.381 168.462L303.668 162.739L198.053 156.101Z" fill="#263238"/>
<path d="M317.039 161.385C317.039 161.385 321.714 188.453 308.192 199.087C294.67 209.721 195.673 208.443 180.647 203.579C165.62 198.715 165.153 174.433 181.599 168.805C197.216 163.455 263.674 160.861 265.312 160.222C265.722 160.059 259.418 156.273 259.446 156.044L274.549 151.409L317.039 161.385Z" fill="#37474F"/>
<path d="M296.526 160.698C296.526 160.584 296.717 160.622 296.717 160.698C296.724 163.838 297.829 166.875 299.84 169.282C302.145 171.943 305.554 173.431 308.611 175.005C308.906 175.148 308.687 175.615 308.373 175.52C306.486 174.936 304.666 174.153 302.945 173.183C301.369 172.338 299.982 171.179 298.869 169.778C296.854 167.213 296.005 163.92 296.526 160.698Z" fill="#263238"/>
<path d="M266.378 157.351C267.063 156.473 267.816 155.634 268.53 154.785C270.225 152.763 271.92 150.741 273.691 148.795C273.863 148.605 274.196 148.872 274.034 149.072C272.844 150.636 271.577 152.153 270.339 153.679L268.435 156.015C267.762 156.714 267.159 157.478 266.635 158.295C266.178 159.163 266.787 159.897 267.682 159.993C268.477 160.011 269.249 159.728 269.844 159.201C271.186 158.009 272.414 156.693 273.51 155.271C274.224 154.47 274.939 153.669 275.662 152.878C276.386 152.086 277.243 151.228 278.014 150.388C278.062 150.331 278.157 150.388 278.119 150.474C277.443 151.428 276.824 152.382 276.157 153.278C275.491 154.175 274.805 155.109 274.11 156.015C273.415 156.921 272.777 157.713 272.072 158.543C271.489 159.269 270.791 159.894 270.006 160.393C268.72 161.147 266.492 161.347 265.806 159.649C265.568 158.836 265.787 157.957 266.378 157.351Z" fill="#263238"/>
<path d="M182.704 203.665C187.874 203.77 193.045 204.066 198.216 204.18C203.387 204.294 208.481 204.314 213.614 204.266C223.917 204.17 234.215 203.77 244.505 203.064C254.894 202.349 266.103 201.309 276.425 199.879C281.367 199.192 286.376 198.62 291.252 197.571C295.637 196.731 299.692 194.653 302.936 191.581C309.602 185.095 312.221 175.539 313.297 166.421C313.439 165.2 313.554 163.97 313.649 162.739C313.649 162.702 313.679 162.673 313.716 162.673C313.752 162.673 313.782 162.702 313.782 162.739C313.173 172.086 311.725 181.814 305.85 189.359C303.383 192.633 300.099 195.199 296.327 196.798C291.709 198.658 286.576 199.097 281.691 199.755C271.33 201.166 260.075 202.253 249.657 203.064C239.239 203.875 228.65 204.38 218.137 204.542C207.624 204.705 197.092 204.542 186.579 204.027C185.294 203.961 184.018 203.894 182.77 203.779C182.627 203.779 182.627 203.665 182.704 203.665Z" fill="#263238"/>
<path d="M215.328 163.875C218.584 163.398 221.832 162.921 225.107 162.587C228.383 162.253 231.716 161.948 235.03 161.633C241.581 161.08 248.152 160.584 254.713 160.279C258.446 160.098 262.179 160.079 265.912 160.126C266.035 160.126 266.026 160.298 265.912 160.308C259.351 160.908 252.78 161.319 246.2 161.757C239.62 162.196 233.087 162.778 226.536 163.398C222.822 163.751 219.108 164.027 215.385 164.351C215.099 164.38 215.042 163.913 215.328 163.875Z" fill="#263238"/>
<path d="M258.656 155.691C261.276 156.824 263.795 158.177 266.188 159.735C268.627 161.196 270.959 162.828 273.168 164.618C273.235 164.676 273.168 164.752 273.082 164.723C270.53 163.541 268.074 162.053 265.636 160.632C263.166 159.246 260.781 157.714 258.494 156.044C258.341 155.92 258.437 155.596 258.656 155.691Z" fill="#263238"/>
<path d="M270.711 137.379L267.312 147.594C267.312 147.594 317.781 181.338 320.124 180.069C320.124 180.069 315.087 116.12 301.812 102.376C295.146 95.4997 287.595 96.2055 282.872 101.241C281.681 102.519 268.873 116.301 267.512 123.731C266.331 130.302 270.711 137.379 270.711 137.379Z" fill="#3DB2FF"/>
<path d="M279.605 134.603C281.757 135.404 283.848 136.36 285.861 137.465C286.813 138.027 287.813 138.628 288.766 139.258C289.242 139.572 289.718 139.868 290.204 140.164C290.709 140.482 291.249 140.741 291.813 140.936C291.86 140.936 291.813 141.022 291.813 141.013C291.267 140.892 290.729 140.736 290.204 140.545C289.695 140.342 289.202 140.103 288.727 139.83C287.718 139.277 286.728 138.666 285.728 138.094C283.69 136.95 281.662 135.796 279.557 134.794C279.424 134.727 279.5 134.565 279.605 134.603Z" fill="#263238"/>
<path d="M273.624 135.09C275.493 135.388 277.344 135.793 279.167 136.301C280.119 136.559 280.966 136.864 281.852 137.198L283.109 137.703C283.576 137.885 284.014 138.142 284.471 138.323C284.471 138.323 284.471 138.419 284.471 138.4C284.023 138.238 283.518 138.152 283.109 138.018L281.747 137.618L279.033 136.816C277.234 136.263 275.424 135.729 273.596 135.233C273.482 135.195 273.529 135.071 273.624 135.09Z" fill="#263238"/>
<path d="M300.212 103.111C318.485 122.186 345.139 170.427 348.434 177.351C350.662 182.044 326.151 194.423 325.104 191.009C323.77 186.641 302.411 132.629 296.745 112.248C293.612 101.012 296.431 99.1717 300.212 103.111Z" fill="#AD6359"/>
<path d="M323.952 187.785C324.809 190.122 327.761 200.06 329.761 201.3C331.76 202.54 342.473 202.254 347.854 202.254C353.234 202.254 354.3 200.747 354.215 198.887C354.129 197.027 342.788 196.684 342.788 196.684C342.788 196.684 357.929 201.004 361.719 201.738C365.509 202.473 374.26 204.657 375.526 201.5C376.098 200.079 373.708 198.639 373.708 198.639C373.708 198.639 377.374 199.707 377.955 197.876C378.621 195.797 375.707 194.652 375.707 194.652C375.707 194.652 378.002 195.119 378.05 193.422C378.174 189.607 363.766 187.776 363.766 187.776C363.766 187.776 374.755 193.136 375.107 190.045C375.603 185.763 353.072 181.071 350.729 179.201C349.196 177.903 347.92 176.327 346.968 174.556L323.952 187.785Z" fill="#AD6359"/>
<path d="M354.138 199.85C354.214 199.315 354.022 198.776 353.624 198.41C353.238 198.055 352.798 197.765 352.319 197.552C351.319 197.127 350.284 196.792 349.225 196.55C347.11 196.016 344.93 195.596 342.768 195.072C345.013 195.032 347.253 195.283 349.434 195.816C350.543 196.072 351.61 196.483 352.605 197.037C353.111 197.312 353.555 197.689 353.91 198.143C354.282 198.631 354.369 199.281 354.138 199.85Z" fill="#263238"/>
<path d="M373.707 198.648C372.155 198.267 370.622 197.828 369.089 197.38C367.555 196.932 366.041 196.474 364.527 196.016L359.975 194.585C358.461 194.108 356.947 193.632 355.414 193.183C357.019 193.35 358.61 193.631 360.175 194.023C361.737 194.376 363.27 194.824 364.794 195.291C366.317 195.758 367.832 196.245 369.317 196.836C370.803 197.428 372.25 197.971 373.707 198.648Z" fill="#263238"/>
<path d="M359.062 189.407C360.525 189.502 361.979 189.703 363.414 190.007C364.857 190.296 366.285 190.662 367.689 191.104C369.088 191.543 370.461 192.058 371.803 192.649C373.153 193.228 374.46 193.901 375.717 194.662C374.326 194.185 372.974 193.651 371.594 193.193C370.213 192.735 368.851 192.239 367.461 191.829C366.07 191.419 364.68 190.98 363.29 190.57C361.899 190.16 360.481 189.788 359.062 189.407Z" fill="#263238"/>
<path d="M361.28 185.792C363.645 185.974 365.976 186.467 368.213 187.261C370.464 188.01 372.609 189.049 374.593 190.351C372.355 189.559 370.184 188.72 367.927 187.976C365.67 187.232 363.537 186.526 361.28 185.792Z" fill="#263238"/>
<path d="M317.067 122.052L298.108 128.242C298.108 128.242 294.07 114.889 294.023 106.477C293.975 98.065 298.936 99.0664 304.402 105.17C309.868 111.275 317.067 122.052 317.067 122.052Z" fill="#3DB2FF"/>
<path d="M297.889 123.569C303.097 121.363 308.448 119.511 313.906 118.027C313.906 118.027 313.982 118.142 313.906 118.161C309.63 119.925 300.85 122.806 297.908 123.75C297.898 123.75 297.831 123.588 297.889 123.569Z" fill="#263238"/>
<path d="M301.498 127.136C300.336 127.393 299.175 127.689 298.032 128.023L298.337 128.175C297.813 125.934 297.241 123.702 296.68 121.499C296.118 119.296 295.527 117.045 294.908 114.823C295.115 117.131 295.481 119.422 296.004 121.68C296.518 123.938 297.153 126.167 297.908 128.357L297.984 128.605L298.175 128.519C299.298 128.061 300.403 127.613 301.498 127.136Z" fill="#263238"/>
<path d="M294.28 116.616C294.46 117.632 294.835 118.604 295.384 119.477C295.565 119.766 295.779 120.031 296.022 120.269C295.845 119.614 295.613 118.976 295.327 118.361C295.048 117.74 294.696 117.154 294.28 116.616Z" fill="#263238"/>
<path d="M296.003 100.993C295.641 101.899 290.756 105.59 286.48 104.761C285.09 104.493 285.728 98.5897 285.728 98.5897L285.68 97.9984L285.061 89.7866L295.26 85.1513L296.727 84.56C296.727 84.56 296.727 86.8204 296.727 89.6244V90.025C296.727 90.1872 296.727 90.3398 296.727 90.4828C296.727 90.9025 296.727 91.3317 296.727 91.7608C296.727 92.19 296.727 92.3999 296.727 92.7146V93.7351C296.651 96.1682 296.409 98.5932 296.003 100.993Z" fill="#AD6359"/>
<path d="M296.746 89.6244C294.468 93.9105 290.42 96.9738 285.681 97.9984L285.062 89.7866L295.261 85.1513L296.727 84.56C296.727 84.56 296.746 86.8204 296.746 89.6244Z" fill="#263238"/>
<path d="M277.367 73.4678C271.425 86.6392 278.634 91.6941 281.472 92.9721C284.043 94.1261 292.965 97.7409 300.231 85.2753C307.497 72.8097 303.259 65.8568 297.508 62.8907C291.756 59.9245 283.3 60.2964 277.367 73.4678Z" fill="#AD6359"/>
<path d="M281.214 70.6927C281.529 70.7611 281.846 70.8121 282.166 70.8453C282.503 70.9601 282.868 70.9601 283.204 70.8453C283.402 70.7246 283.492 70.4848 283.423 70.2635C283.231 69.8444 282.826 69.5632 282.366 69.5291C281.913 69.4309 281.438 69.5021 281.033 69.7294C280.865 69.8532 280.783 70.0626 280.821 70.2681C280.86 70.4736 281.013 70.6386 281.214 70.6927Z" fill="#263238"/>
<path d="M289.928 74.7459C289.623 74.5838 289.366 74.3835 289.09 74.2023C288.767 74.0535 288.502 73.802 288.337 73.487C288.276 73.261 288.369 73.0212 288.566 72.8956C288.991 72.7159 289.48 72.7817 289.842 73.0673C290.244 73.2978 290.549 73.6674 290.699 74.1069C290.753 74.3149 290.682 74.5354 290.516 74.6724C290.351 74.8094 290.122 74.8381 289.928 74.7459Z" fill="#263238"/>
<path d="M286.404 77.2542C286.404 77.2542 286.461 77.3305 286.404 77.3686C286.004 78.2651 285.69 79.3619 286.404 80.001C286.404 80.001 286.404 80.0677 286.404 80.0487C285.452 79.4955 285.88 78.0458 286.404 77.2542Z" fill="#263238"/>
<path d="M287.614 76.644C289.119 77.1304 288.024 80.1157 286.662 79.6579C285.3 79.2001 286.348 76.2339 287.614 76.644Z" fill="#263238"/>
<path d="M288.137 77.0157C288.337 77.2828 288.48 77.6738 288.785 77.8169C289.09 77.9599 289.518 77.8169 289.87 77.5594C289.87 77.5594 289.918 77.5594 289.87 77.6166C289.67 78.1888 289.232 78.6943 288.594 78.5703C287.956 78.4464 287.785 77.7978 287.861 77.1683C287.909 77.0157 288.061 76.9108 288.137 77.0157Z" fill="#263238"/>
<path d="M281.652 74.9365C281.652 74.9365 281.557 74.9365 281.548 74.9842C281.243 75.938 280.748 76.9489 279.795 76.9585V77.0062C280.862 77.2351 281.51 75.8712 281.652 74.9365Z" fill="#263238"/>
<path d="M281.167 73.6683C279.72 73.0198 278.539 75.9669 279.881 76.5296C281.224 77.0923 282.386 74.212 281.167 73.6683Z" fill="#263238"/>
<path d="M280.481 73.6108C280.186 73.6775 279.843 73.8683 279.529 73.7729C279.215 73.6775 279.081 73.2483 279.005 72.8192C279.005 72.8192 278.957 72.8192 278.948 72.8192C278.7 73.3723 278.653 74.04 279.148 74.3642C279.643 74.6885 280.157 74.3642 280.519 73.8206C280.614 73.7824 280.595 73.5917 280.481 73.6108Z" fill="#263238"/>
<path d="M284.157 84.3598C283.884 84.5673 283.548 84.675 283.205 84.665C282.852 84.5514 282.527 84.3627 282.253 84.1119C282.412 84.5709 282.805 84.9094 283.281 84.9988C283.704 85.0149 284.096 84.7792 284.281 84.398C284.281 84.398 284.196 84.3408 284.157 84.3598Z" fill="#263238"/>
<path d="M281.576 79.5817C281.227 80.2007 280.909 80.8374 280.624 81.4892C280.624 81.5464 280.748 81.6418 280.957 81.7371C282.007 82.3799 283.327 82.3799 284.376 81.7371C284.41 81.7213 284.425 81.6808 284.409 81.6465C284.394 81.6123 284.353 81.5974 284.319 81.6132C283.28 81.8641 282.189 81.7738 281.205 81.3556C281.205 81.1554 282.491 79.162 282.395 79.1143C281.875 78.9676 281.336 78.8937 280.796 78.895C282.205 76.1386 284.033 73.6302 285.385 70.8643C285.401 70.8233 285.386 70.777 285.35 70.7521C285.314 70.7273 285.266 70.7303 285.233 70.7594C283.187 73.3846 281.41 76.2092 279.929 79.1906C279.758 79.5721 281.281 79.5912 281.576 79.5817Z" fill="#263238"/>
<path d="M281.138 81.3366C281.265 82.0144 281.563 82.6483 282.005 83.1774C282.255 83.4604 282.589 83.6572 282.957 83.7401C283.757 83.9117 284.109 83.2727 284.262 82.6528C284.338 82.3212 284.376 81.982 284.376 81.6418C283.292 81.8901 282.157 81.7831 281.138 81.3366Z" fill="#263238"/>
<path d="M281.985 83.1771C282.236 83.4601 282.569 83.6569 282.938 83.7398C283.737 83.9115 284.09 83.2724 284.242 82.6525C283.46 82.2745 282.521 82.4928 281.985 83.1771Z" fill="#FF9ABB"/>
<path d="M299.86 84.522C296.651 83.1676 298.851 78.1318 298.851 78.1318C298.851 78.1318 295.365 76.2243 297.632 70.2538C295.169 72.0217 292.023 72.5334 289.128 71.6367C288.023 71.3411 292.68 70.1489 292.68 70.1489C292.68 70.1489 286.862 72.1327 279.729 67.3448C279.225 67.0015 283.919 59.3142 291.213 59.1425C298.508 58.9709 303.307 62.9576 305.412 68.4035C305.412 68.4035 308.983 72.3902 307.669 76.8347C306.354 81.2792 301.117 85.0465 299.86 84.522Z" fill="#263238"/>
<path d="M297.679 85.3422C297.679 85.3422 302.145 82.1281 303.697 83.8639C305.25 85.5997 300.841 90.9885 298.298 91.0362C297.636 91.094 296.978 90.8782 296.478 90.4388C295.978 89.9994 295.679 89.3745 295.651 88.709L297.679 85.3422Z" fill="#AD6359"/>
<path d="M302.402 85.3804C302.402 85.3804 302.402 85.4376 302.402 85.4472C300.593 85.533 299.241 86.7061 298.117 88.0319C298.417 87.776 298.813 87.6646 299.201 87.727C299.59 87.7894 299.932 88.0194 300.136 88.3561C300.136 88.3561 300.136 88.4515 300.069 88.4229C299.562 88.0388 298.868 88.0159 298.336 88.3657C297.908 88.6599 297.509 88.9953 297.146 89.3671C297.022 89.4816 296.794 89.3194 296.908 89.1764C297.593 87.0972 300.155 84.8177 302.402 85.3804Z" fill="#263238"/>
<path fill-rule="evenodd" clip-rule="evenodd" d="M302.24 80.1536L301.736 78.866L296.869 79.9342L297.955 82.7955L302.24 80.1536ZM301.288 79.9531L298.336 81.5459L297.936 80.5349L301.174 79.6575L301.288 79.9531Z" fill="white"/>
<path fill-rule="evenodd" clip-rule="evenodd" d="M301.745 78.0553V76.6819L296.86 75.814L296.774 78.8851L301.745 78.0553ZM300.917 77.5117L297.584 77.8741V76.7869L300.917 77.197V77.5117Z" fill="white"/>
<rect width="51.1451" height="39.9962" rx="2.05685" transform="matrix(-1 0 0 1 255.726 0)" fill="#066EB2"/>
<path d="M238.145 38.4462H222.162L230.153 48.0453L238.145 38.4462Z" fill="#066EB2"/>
<ellipse cx="236.352" cy="11.6238" rx="3.87463" ry="3.87463" fill="white"/>
<path d="M226.279 20.9231C226.279 23.063 224.544 24.7977 222.404 24.7977C220.264 24.7977 218.529 23.063 218.529 20.9231C218.529 18.7832 220.264 17.0485 222.404 17.0485C223.432 17.0485 224.417 17.4567 225.144 18.1833C225.87 18.9099 226.279 19.8955 226.279 20.9231Z" fill="white"/>
<path d="M240.227 28.6722C240.227 30.8121 238.492 32.5468 236.352 32.5468C234.212 32.5468 232.478 30.8121 232.478 28.6722C232.478 26.5323 234.212 24.7975 236.352 24.7975C237.38 24.7975 238.365 25.2058 239.092 25.9324C239.819 26.659 240.227 27.6446 240.227 28.6722Z" fill="white"/>
</svg>
